<?xml version="1.0" standalone="no"?>
<!DOCTYPE svg PUBLIC "-//W3C//DTD SVG 1.1//EN" "http://www.w3.org/Graphics/SVG/1.1/DTD/svg11.dtd" >
<svg xmlns="http://www.w3.org/2000/svg">
    <defs>
        <font id="OpenSans-ExtraBold">
            <font-face font-family="OpenSans-ExtraBold"
                       units-per-em="2048"
                       ascent="2189"
                       descent="-600"
                       bbox="-1491 -600 2881 2302"
                    />
            <missing-glyph horiz-adv-x="0" />
            
            <glyph glyph-name="!" unicode="&#x21;" horiz-adv-x="514" d=" M463,516 L133,516 L82,1462 L514,1462 M86,166 Q86,257 140,307.5 Q194,358 297,358 Q399,358 451.5,307.5 Q504,257 504,166 Q504,76 449.5,25.5 Q395,-25 297,-25 Q198,-25 142,25.5 Q86,76 86,166"/> 
            <glyph glyph-name="&quot;" unicode="&#x22;" horiz-adv-x="952" d=" M477,1462 L436,934 L162,934 L121,1462 M952,1462 L911,934 L637,934 L596,1462"/> 
            <glyph glyph-name="#" unicode="&#x23;" horiz-adv-x="1319" d=" M1042,813 L1012,645 L1255,645 L1255,391 L965,391 L891,0 L623,0 L696,391 L528,391 L457,0 L190,0 L262,391 L37,391 L37,645 L311,645 L342,813 L104,813 L104,1073 L391,1073 L463,1462 L731,1462 L657,1073 L823,1073 L895,1462 L1163,1462 L1090,1073 L1319,1073 L1319,813 M578,645 L743,645 L774,813 L608,813"/> 
            <glyph glyph-name="$" unicode="&#x24;" horiz-adv-x="1128" d=" M504,68 Q285,78 82,166 L82,498 Q198,439 334,399.5 Q470,360 573,360 Q658,360 697.5,380.5 Q737,401 737,449 Q737,482 708.5,505 Q680,528 613.5,557 Q547,586 434,627 Q307,674 229,732.5 Q151,791 115.5,863.5 Q80,936 80,1044 Q80,1209 186,1302 Q292,1395 504,1417 L504,1554 L711,1554 L711,1419 Q910,1408 1112,1321 L993,1036 Q784,1130 616,1130 Q536,1130 503.5,1110.5 Q471,1091 471,1053 Q471,1020 494.5,998.5 Q518,977 576,950.5 Q634,924 737,889 Q946,815 1037,720.5 Q1128,626 1128,477 Q1128,309 1021.5,204 Q915,99 711,74 L711,-119 L504,-119 M613,1462"/> 
            <glyph glyph-name="%" unicode="&#x25;" horiz-adv-x="1903" d=" M338,1022 Q338,907 357,856 Q376,805 414,805 Q452,805 470.5,855 Q489,905 489,1022 Q489,1137 470.5,1188 Q452,1239 414,1239 Q375,1239 356.5,1187 Q338,1135 338,1022 M791,1026 Q791,806 692,685.5 Q593,565 410,565 Q238,565 137.5,689.5 Q37,814 37,1026 Q37,1246 135,1364.5 Q233,1483 410,1483 Q585,1483 688,1360 Q791,1237 791,1026 M1520,1462 L709,0 L412,0 L1223,1462 M1450,440 Q1450,325 1469,274 Q1488,223 1526,223 Q1569,223 1585.5,281.5 Q1602,340 1602,440 Q1602,540 1585.5,598.5 Q1569,657 1526,657 Q1487,657 1468.5,605 Q1450,553 1450,440 M1903,444 Q1903,225 1803.5,104.5 Q1704,-16 1522,-16 Q1350,-16 1249.5,108.5 Q1149,233 1149,444 Q1149,664 1247,782.5 Q1345,901 1522,901 Q1697,901 1800,778 Q1903,655 1903,444"/> 
            <glyph glyph-name="&amp;" unicode="&#x26;" horiz-adv-x="1647" d=" M1141,0 L1042,102 Q952,45 894.5,23.5 Q837,2 765.5,-9 Q694,-20 602,-20 Q444,-20 322.5,34 Q201,88 136.5,185 Q72,282 72,406 Q72,668 344,807 Q282,877 247.5,955.5 Q213,1034 213,1133 Q213,1293 336.5,1387 Q460,1481 676,1481 Q887,1481 1004.5,1387.5 Q1122,1294 1122,1133 Q1122,1022 1058.5,927.5 Q995,833 858,750 L1057,561 Q1132,676 1161,821 L1567,821 Q1537,683 1472.5,544.5 Q1408,406 1327,307 L1647,0 M475,434 Q475,371 520,331 Q565,291 639,291 Q696,291 739,306 Q782,321 805,340 L557,592 Q475,531 475,434 M770,1133 Q770,1182 741.5,1203.5 Q713,1225 670,1225 Q628,1225 596.5,1200 Q565,1175 565,1120 Q565,1045 653,965 Q710,997 740,1041.5 Q770,1086 770,1133"/> 
            <glyph glyph-name="'" unicode="&#x27;" horiz-adv-x="477" d=" M477,1462 L436,934 L162,934 L121,1462"/> 
            <glyph glyph-name="(" unicode="&#x28;" horiz-adv-x="680" d=" M74,582 Q74,872 145,1105 Q216,1338 354,1503 L680,1503 Q554,1328 486,1091 Q418,854 418,584 Q418,323 484,88.5 Q550,-146 678,-324 L354,-324 Q217,-166 145.5,64 Q74,294 74,582 M493,1485"/> 
            <glyph glyph-name=")" unicode="&#x29;" horiz-adv-x="662" d=" M662,582 Q662,299 590.5,67.5 Q519,-164 381,-324 L57,-324 Q183,-152 250,84.5 Q317,321 317,584 Q317,849 251,1085.5 Q185,1322 55,1503 L381,1503 Q520,1337 591,1101 Q662,865 662,582 M247,1485"/> 
            <glyph glyph-name="*" unicode="&#x2A;" horiz-adv-x="1057" d=" M702,1556 L664,1204 L1020,1305 L1057,1010 L743,989 L950,711 L690,573 L547,856 L424,575 L152,711 L358,989 L45,1014 L90,1305 L438,1204 L399,1556"/> 
            <glyph glyph-name="+" unicode="&#x2B;" horiz-adv-x="1085" d=" M444,588 L72,588 L72,856 L444,856 L444,1223 L713,1223 L713,856 L1085,856 L1085,588 L713,588 L713,227 L444,227"/> 
            <glyph glyph-name="," unicode="&#x2C;" horiz-adv-x="512" d=" M498,299 L512,276 Q415,-105 336,-285 L57,-285 Q86,-147 115.5,24.5 Q145,196 156,299"/> 
            <glyph glyph-name="-" unicode="&#x2D;" horiz-adv-x="608" d=" M43,393 L43,705 L608,705 L608,393"/> 
            <glyph glyph-name="." unicode="&#x2E;" horiz-adv-x="504" d=" M86,166 Q86,258 140.5,308 Q195,358 299,358 Q398,358 451,308 Q504,258 504,166 Q504,76 449.5,25.5 Q395,-25 299,-25 Q200,-25 143,25 Q86,75 86,166"/> 
            <glyph glyph-name="/" unicode="&#x2F;" horiz-adv-x="901" d=" M901,1483 L356,-20 L10,-20 L555,1483"/> 
            <glyph glyph-name="0" unicode="&#x30;" horiz-adv-x="1128" d=" M1128,729 Q1128,341 998,160.5 Q868,-20 600,-20 Q338,-20 205,168.5 Q72,357 72,729 Q72,1119 202,1301 Q332,1483 600,1483 Q861,1483 994.5,1293.5 Q1128,1104 1128,729 M465,729 Q465,481 496,388 Q527,295 600,295 Q674,295 704.5,391 Q735,487 735,729 Q735,972 704,1069.5 Q673,1167 600,1167 Q527,1167 496,1073 Q465,979 465,729"/> 
            <glyph glyph-name="1" unicode="&#x31;" horiz-adv-x="942" d=" M942,0 L541,0 L541,774 Q541,915 547,1032 Q510,987 455,938 L289,801 L84,1053 L586,1462 L942,1462"/> 
            <glyph glyph-name="2" unicode="&#x32;" horiz-adv-x="1122" d=" M1122,0 L61,0 L61,260 L418,621 Q571,781 618,839.5 Q665,898 683.5,940 Q702,982 702,1028 Q702,1085 665,1118 Q628,1151 561,1151 Q492,1151 421.5,1111.5 Q351,1072 262,995 L45,1249 Q158,1350 235,1393.5 Q312,1437 402.5,1460 Q493,1483 606,1483 Q748,1483 859.5,1433 Q971,1383 1032.5,1290.5 Q1094,1198 1094,1083 Q1094,997 1072.5,924 Q1051,851 1006,780.5 Q961,710 886.5,632 Q812,554 569,336 L569,326 L1122,326"/> 
            <glyph glyph-name="3" unicode="&#x33;" horiz-adv-x="1116" d=" M1073,1145 Q1073,1009 990,911.5 Q907,814 750,770 L750,764 Q1116,718 1116,418 Q1116,214 954.5,97 Q793,-20 506,-20 Q388,-20 287.5,-3 Q187,14 70,59 L70,387 Q166,338 265.5,314.5 Q365,291 449,291 Q579,291 638.5,327.5 Q698,364 698,442 Q698,502 667,534.5 Q636,567 567,583.5 Q498,600 387,600 L297,600 L297,897 L389,897 Q690,897 690,1051 Q690,1109 645.5,1137 Q601,1165 526,1165 Q386,1165 236,1071 L72,1335 Q188,1415 309.5,1449 Q431,1483 588,1483 Q815,1483 944,1393 Q1073,1303 1073,1145"/> 
            <glyph glyph-name="4" unicode="&#x34;" horiz-adv-x="1169" d=" M1169,283 L1008,283 L1008,0 L618,0 L618,283 L35,283 L35,573 L643,1462 L1008,1462 L1008,578 L1169,578 M618,578 L618,748 Q618,796 621.5,877.5 Q625,959 627,963 L616,963 Q582,886 539,819 L377,578"/> 
            <glyph glyph-name="5" unicode="&#x35;" horiz-adv-x="1106" d=" M664,958 Q790,958 891.5,899.5 Q993,841 1049.5,734 Q1106,627 1106,487 Q1106,242 958.5,111 Q811,-20 512,-20 Q256,-20 94,59 L94,383 Q181,343 290.5,317 Q400,291 479,291 Q589,291 648,337.5 Q707,384 707,475 Q707,559 647,606 Q587,653 465,653 Q372,653 264,618 L119,690 L174,1462 L1008,1462 L1008,1133 L510,1133 L492,940 Q570,955 603,956.5 Q636,958 664,958"/> 
            <glyph glyph-name="6" unicode="&#x36;" horiz-adv-x="1137" d=" M70,618 Q70,924 157.5,1113.5 Q245,1303 415.5,1393 Q586,1483 836,1483 Q925,1483 1044,1466 L1044,1157 Q944,1176 827,1176 Q629,1176 532,1089 Q435,1002 426,805 L438,805 Q528,975 727,975 Q922,975 1029.5,849.5 Q1137,724 1137,500 Q1137,259 1001,119.5 Q865,-20 621,-20 Q362,-20 216,148 Q70,316 70,618 M612,293 Q675,293 714.5,340.5 Q754,388 754,492 Q754,670 616,670 Q548,670 505.5,624 Q463,578 463,512 Q463,416 504,354.5 Q545,293 612,293"/> 
            <glyph glyph-name="7" unicode="&#x37;" horiz-adv-x="1133" d=" M209,0 L711,1133 L78,1133 L78,1460 L1133,1460 L1133,1227 L618,0"/> 
            <glyph glyph-name="8" unicode="&#x38;" horiz-adv-x="1135" d=" M604,1483 Q835,1483 963.5,1390 Q1092,1297 1092,1126 Q1092,1010 1031.5,922.5 Q971,835 840,770 Q1002,678 1068.5,586.5 Q1135,495 1135,389 Q1135,194 994,87 Q853,-20 600,-20 Q342,-20 205,84.5 Q68,189 68,385 Q68,512 129,601.5 Q190,691 334,764 Q218,842 164.5,931.5 Q111,1021 111,1128 Q111,1296 242,1389.5 Q373,1483 604,1483 M430,401 Q430,339 474,301.5 Q518,264 596,264 Q772,264 772,393 Q772,442 733.5,489.5 Q695,537 596,596 Q507,549 468.5,501.5 Q430,454 430,401 M602,1198 Q551,1198 516,1168.5 Q481,1139 481,1092 Q481,1006 598,940 Q669,981 695,1015 Q721,1049 721,1092 Q721,1140 686,1169 Q651,1198 602,1198"/> 
            <glyph glyph-name="9" unicode="&#x39;" horiz-adv-x="1133" d=" M1133,793 Q1133,364 948,172 Q763,-20 356,-20 Q222,-20 152,-10 L152,303 Q238,287 324,287 Q536,287 651,374.5 Q766,462 776,651 L764,651 Q725,579 687,547 Q649,515 594,498 Q539,481 457,481 Q267,481 160,608 Q53,735 53,958 Q53,1201 191.5,1339 Q330,1477 571,1477 Q839,1477 986,1299 Q1133,1121 1133,793 M582,1161 Q517,1161 476.5,1114 Q436,1067 436,963 Q436,881 471,832.5 Q506,784 578,784 Q643,784 691,831 Q739,878 739,944 Q739,1033 694.5,1097 Q650,1161 582,1161"/> 
            <glyph glyph-name=":" unicode="&#x3A;" horiz-adv-x="504" d=" M86,166 Q86,258 140.5,308 Q195,358 299,358 Q398,358 451,308 Q504,258 504,166 Q504,76 449.5,25.5 Q395,-25 299,-25 Q200,-25 143,25 Q86,75 86,166 M86,956 Q86,1047 141,1097 Q196,1147 299,1147 Q398,1147 451,1097 Q504,1047 504,956 Q504,866 450,815 Q396,764 299,764 Q197,764 141.5,815 Q86,866 86,956"/> 
            <glyph glyph-name=";" unicode="&#x3B;" horiz-adv-x="512" d=" M498,299 L512,276 Q415,-105 336,-285 L57,-285 Q86,-147 115.5,24.5 Q145,196 156,299 M92,956 Q92,1047 145.5,1097 Q199,1147 303,1147 Q403,1147 456.5,1096.5 Q510,1046 510,956 Q510,866 456,815 Q402,764 303,764 Q201,764 146.5,814.5 Q92,865 92,956"/> 
            <glyph glyph-name="&lt;" unicode="&#x3C;" horiz-adv-x="1083" d=" M1083,178 L72,627 L72,799 L1083,1305 L1083,1008 L463,725 L1083,473"/> 
            <glyph glyph-name="=" unicode="&#x3D;" horiz-adv-x="1087" d=" M72,815 L72,1083 L1087,1083 L1087,815 M72,358 L72,629 L1087,629 L1087,358"/> 
            <glyph glyph-name="&gt;" unicode="&#x3E;" horiz-adv-x="1083" d=" M72,473 L692,725 L72,1008 L72,1305 L1083,799 L1083,627 L72,178"/> 
            <glyph glyph-name="?" unicode="&#x3F;" horiz-adv-x="997" d=" M295,516 L295,602 Q295,700 335,767.5 Q375,835 477,899 Q558,950 593.5,991 Q629,1032 629,1085 Q629,1127 591,1151.5 Q553,1176 492,1176 Q341,1176 139,1069 L0,1341 Q249,1483 520,1483 Q743,1483 870,1385 Q997,1287 997,1118 Q997,997 940.5,908.5 Q884,820 760,741 Q655,673 628.5,641.5 Q602,610 602,567 L602,516 M252,166 Q252,258 305.5,308 Q359,358 463,358 Q563,358 616.5,307.5 Q670,257 670,166 Q670,75 614.5,25 Q559,-25 463,-25 Q364,-25 308,24.5 Q252,74 252,166"/> 
            <glyph glyph-name="@" unicode="&#x40;" horiz-adv-x="1755" d=" M1755,756 Q1755,615 1706.5,493 Q1658,371 1572,302 Q1486,233 1376,233 Q1297,233 1233,264.5 Q1169,296 1133,352 L1118,352 Q1011,233 858,233 Q675,233 577,340 Q479,447 479,639 Q479,780 541,888.5 Q603,997 720,1055.5 Q837,1114 991,1114 Q1072,1114 1169.5,1097.5 Q1267,1081 1348,1053 L1327,631 L1325,537 Q1325,451 1374,451 Q1426,451 1458.5,538 Q1491,625 1491,758 Q1491,997 1356,1127 Q1221,1257 973,1257 Q783,1257 642.5,1178 Q502,1099 428,951.5 Q354,804 354,606 Q354,351 496.5,212.5 Q639,74 899,74 Q1015,74 1149.5,99 Q1284,124 1413,170 L1413,-59 Q1189,-154 913,-154 Q525,-154 303.5,48.5 Q82,251 82,610 Q82,863 196.5,1063.5 Q311,1264 512.5,1372.5 Q714,1481 969,1481 Q1203,1481 1382.5,1392 Q1562,1303 1658.5,1138.5 Q1755,974 1755,756 M760,641 Q760,541 796.5,496 Q833,451 893,451 Q970,451 1006,513 Q1042,575 1053,733 L1063,889 Q1023,895 995,895 Q887,895 823.5,828 Q760,761 760,641"/> 
            <glyph glyph-name="A" unicode="&#x41;" horiz-adv-x="1487" d=" M1055,0 L983,274 L508,274 L434,0 L0,0 L477,1468 L1004,1468 L1487,0 M901,598 L838,838 Q816,918 784.5,1045 Q753,1172 743,1227 Q734,1176 707.5,1059 Q681,942 590,598"/> 
            <glyph glyph-name="B" unicode="&#x42;" horiz-adv-x="1284" d=" M158,1462 L668,1462 Q966,1462 1110.5,1373.5 Q1255,1285 1255,1098 Q1255,975 1192,888 Q1129,801 1026,776 L1026,766 Q1162,730 1223,646 Q1284,562 1284,428 Q1284,229 1134.5,114.5 Q985,0 727,0 L158,0 M553,901 L672,901 Q757,901 803.5,936 Q850,971 850,1040 Q850,1163 664,1163 L553,1163 M553,612 L553,305 L692,305 Q877,305 877,461 Q877,534 827.5,573 Q778,612 684,612"/> 
            <glyph glyph-name="C" unicode="&#x43;" horiz-adv-x="1266" d=" M809,1159 Q668,1159 589,1043.5 Q510,928 510,725 Q510,303 831,303 Q928,303 1019,330 Q1110,357 1202,395 L1202,61 Q1019,-20 788,-20 Q457,-20 280.5,172 Q104,364 104,727 Q104,954 189.5,1126 Q275,1298 435.5,1390.5 Q596,1483 813,1483 Q1050,1483 1266,1380 L1145,1069 Q1064,1107 983,1133 Q902,1159 809,1159"/> 
            <glyph glyph-name="D" unicode="&#x44;" horiz-adv-x="1399" d=" M1399,762 Q1399,396 1197.5,198 Q996,0 631,0 L158,0 L158,1462 L664,1462 Q1016,1462 1207.5,1282 Q1399,1102 1399,762 M989,748 Q989,949 909.5,1046 Q830,1143 668,1143 L553,1143 L553,324 L641,324 Q821,324 905,428.5 Q989,533 989,748"/> 
            <glyph glyph-name="E" unicode="&#x45;" horiz-adv-x="1026" d=" M1026,0 L158,0 L158,1462 L1026,1462 L1026,1145 L553,1145 L553,915 L991,915 L991,598 L553,598 L553,322 L1026,322"/> 
            <glyph glyph-name="F" unicode="&#x46;" horiz-adv-x="1022" d=" M547,0 L158,0 L158,1462 L1022,1462 L1022,1145 L547,1145 L547,866 L985,866 L985,549 L547,549"/> 
            <glyph glyph-name="G" unicode="&#x47;" horiz-adv-x="1376" d=" M745,856 L1376,856 L1376,68 Q1119,-20 811,-20 Q473,-20 288.5,176 Q104,372 104,735 Q104,1089 306,1286 Q508,1483 872,1483 Q1010,1483 1132.5,1457 Q1255,1431 1346,1391 L1221,1081 Q1063,1159 874,1159 Q701,1159 606.5,1046.5 Q512,934 512,725 Q512,520 597.5,412.5 Q683,305 844,305 Q932,305 1006,322 L1006,551 L745,551"/> 
            <glyph glyph-name="H" unicode="&#x48;" horiz-adv-x="1411" d=" M1411,0 L1014,0 L1014,596 L555,596 L555,0 L158,0 L158,1462 L555,1462 L555,920 L1014,920 L1014,1462 L1411,1462"/> 
            <glyph glyph-name="I" unicode="&#x49;" horiz-adv-x="555" d=" M158,0 L158,1462 L555,1462 L555,0"/> 
            <glyph glyph-name="J" unicode="&#x4A;" horiz-adv-x="563" d=" M43,-459 Q-65,-459 -162,-438 L-162,-131 Q-130,-137 -94,-144.5 Q-58,-152 -16,-152 Q82,-152 124,-93 Q166,-34 166,109 L166,1462 L563,1462 L563,143 Q563,-154 433,-306.5 Q303,-459 43,-459"/> 
            <glyph glyph-name="K" unicode="&#x4B;" horiz-adv-x="1415" d=" M1407,0 L961,0 L672,559 L555,489 L555,0 L158,0 L158,1462 L555,1462 L555,827 Q585,886 676,1014 L983,1462 L1415,1462 L954,807"/> 
            <glyph glyph-name="L" unicode="&#x4C;" horiz-adv-x="1116" d=" M158,0 L158,1462 L553,1462 L553,319 L1116,319 L1116,0"/> 
            <glyph glyph-name="M" unicode="&#x4D;" horiz-adv-x="1823" d=" M795,0 L496,1053 L487,1053 Q508,784 508,635 L508,0 L158,0 L158,1462 L684,1462 L989,424 L997,424 L1296,1462 L1823,1462 L1823,0 L1460,0 L1460,641 Q1460,691 1461.5,752 Q1463,813 1475,1051 L1466,1051 L1171,0"/> 
            <glyph glyph-name="N" unicode="&#x4E;" horiz-adv-x="1550" d=" M1550,0 L1032,0 L498,1030 L489,1030 Q508,787 508,659 L508,0 L158,0 L158,1462 L674,1462 L1206,446 L1212,446 Q1198,667 1198,801 L1198,1462 L1550,1462"/> 
            <glyph glyph-name="O" unicode="&#x4F;" horiz-adv-x="1526" d=" M1526,733 Q1526,364 1345,172 Q1164,-20 815,-20 Q471,-20 287.5,173 Q104,366 104,735 Q104,1100 286.5,1292.5 Q469,1485 817,1485 Q1166,1485 1346,1294 Q1526,1103 1526,733 M520,733 Q520,309 815,309 Q965,309 1037.5,412 Q1110,515 1110,733 Q1110,952 1036.5,1056.5 Q963,1161 817,1161 Q520,1161 520,733"/> 
            <glyph glyph-name="P" unicode="&#x50;" horiz-adv-x="1219" d=" M1219,997 Q1219,752 1074.5,618.5 Q930,485 664,485 L553,485 L553,0 L158,0 L158,1462 L664,1462 Q941,1462 1080,1341 Q1219,1220 1219,997 M553,807 L625,807 Q714,807 766.5,857 Q819,907 819,995 Q819,1143 655,1143 L553,1143"/> 
            <glyph glyph-name="Q" unicode="&#x51;" horiz-adv-x="1567" d=" M1526,733 Q1526,236 1210,63 L1567,-348 L1075,-348 L817,-23 L816,-22 L816,-21 L815,-20 Q471,-20 287.5,173 Q104,366 104,735 Q104,1100 286.5,1292.5 Q469,1485 817,1485 Q1166,1485 1346,1294 Q1526,1103 1526,733 M520,733 Q520,309 815,309 Q965,309 1037.5,412 Q1110,515 1110,733 Q1110,952 1036.5,1056.5 Q963,1161 817,1161 Q520,1161 520,733"/> 
            <glyph glyph-name="R" unicode="&#x52;" horiz-adv-x="1411" d=" M553,532 L553,0 L158,0 L158,1462 L637,1462 Q1233,1462 1233,1030 Q1233,776 985,637 L1411,0 L963,0 L653,532 M553,829 L627,829 Q834,829 834,1012 Q834,1163 631,1163 L553,1163"/> 
            <glyph glyph-name="S" unicode="&#x53;" horiz-adv-x="1114" d=" M1114,444 Q1114,308 1045,202.5 Q976,97 846,38.5 Q716,-20 541,-20 Q395,-20 296,0.5 Q197,21 90,72 L90,424 Q203,366 325,333.5 Q447,301 549,301 Q637,301 678,331.5 Q719,362 719,410 Q719,440 702.5,462.5 Q686,485 649.5,508 Q613,531 455,602 Q312,667 240.5,728 Q169,789 134.5,868 Q100,947 100,1055 Q100,1257 247,1370 Q394,1483 651,1483 Q878,1483 1114,1378 L993,1073 Q788,1167 639,1167 Q562,1167 527,1140 Q492,1113 492,1073 Q492,1030 536.5,996 Q581,962 778,872 Q967,787 1040.5,689.5 Q1114,592 1114,444"/> 
            <glyph glyph-name="T" unicode="&#x54;" horiz-adv-x="1159" d=" M803,0 L408,0 L408,1139 L51,1139 L51,1462 L1159,1462 L1159,1139 L803,1139"/> 
            <glyph glyph-name="U" unicode="&#x55;" horiz-adv-x="1401" d=" M1401,1462 L1401,582 Q1401,295 1238.5,137.5 Q1076,-20 770,-20 Q471,-20 310.5,133 Q150,286 150,573 L150,1462 L547,1462 L547,604 Q547,449 605,379 Q663,309 776,309 Q897,309 951.5,378.5 Q1006,448 1006,606 L1006,1462"/> 
            <glyph glyph-name="V" unicode="&#x56;" horiz-adv-x="1421" d=" M979,1462 L1421,1462 L942,0 L477,0 L0,1462 L444,1462 L643,721 Q705,474 711,377 Q718,447 739,552 Q760,657 776,717"/> 
            <glyph glyph-name="W" unicode="&#x57;" horiz-adv-x="2097" d=" M1737,0 L1270,0 L1130,637 Q1120,677 1098.5,796 Q1077,915 1067,995 Q1059,930 1041,833.5 Q1023,737 1005.5,656 Q988,575 860,0 L393,0 L31,1462 L412,1462 L571,729 Q625,486 645,342 Q658,444 691.5,619 Q725,794 754,909 L883,1462 L1249,1462 L1374,909 Q1406,776 1439,602 Q1472,428 1483,342 Q1496,453 1554,727 L1716,1462 L2097,1462"/> 
            <glyph glyph-name="X" unicode="&#x58;" horiz-adv-x="1475" d=" M1475,0 L1018,0 L733,457 L451,0 L4,0 L489,748 L33,1462 L471,1462 L735,1010 L989,1462 L1440,1462 L977,717"/> 
            <glyph glyph-name="Y" unicode="&#x59;" horiz-adv-x="1360" d=" M680,920 L932,1462 L1360,1462 L879,571 L879,0 L481,0 L481,559 L0,1462 L430,1462"/> 
            <glyph glyph-name="Z" unicode="&#x5A;" horiz-adv-x="1200" d=" M1200,0 L61,0 L61,244 L694,1143 L76,1143 L76,1462 L1184,1462 L1184,1219 L551,319 L1200,319"/> 
            <glyph glyph-name="[" unicode="&#x5B;" horiz-adv-x="616" d=" M616,-344 L117,-344 L117,1503 L616,1503 L616,1249 L434,1249 L434,-90 L616,-90 M355,1485"/> 
            <glyph glyph-name="\" unicode="&#x5C;" horiz-adv-x="897" d=" M352,1483 L897,-20 L551,-20 L6,1483"/> 
            <glyph glyph-name="]" unicode="&#x5D;" horiz-adv-x="547" d=" M47,-90 L229,-90 L229,1249 L47,1249 L47,1503 L547,1503 L547,-344 L47,-344 M317,1485"/> 
            <glyph glyph-name="^" unicode="&#x5E;" horiz-adv-x="1102" d=" M-16,502 L424,1468 L594,1468 L1102,502 L807,502 L518,1079 L394,788 L270,502"/> 
            <glyph glyph-name="_" unicode="&#x5F;" horiz-adv-x="1028" d=" M1028,-379 L-4,-379 L-4,-133 L1028,-133"/> 
            <glyph glyph-name="`" unicode="&#x60;" horiz-adv-x="956" d=" M696,1241 Q627,1285 492.5,1379.5 Q358,1474 264,1548 L264,1569 L694,1569 Q746,1499 897,1336 L956,1270 L956,1241"/> 
            <glyph glyph-name="a" unicode="&#x61;" horiz-adv-x="1145" d=" M874,0 L799,150 L791,150 Q712,52 630,16 Q548,-20 418,-20 Q258,-20 166,76 Q74,172 74,346 Q74,527 200,615.5 Q326,704 565,715 L754,721 L754,737 Q754,877 616,877 Q492,877 301,793 L188,1051 Q386,1153 688,1153 Q906,1153 1025.5,1045 Q1145,937 1145,743 L1145,0 M584,256 Q655,256 705.5,301 Q756,346 756,418 L756,506 L666,502 Q473,495 473,360 Q473,256 584,256"/> 
            <glyph glyph-name="b" unicode="&#x62;" horiz-adv-x="1229" d=" M827,1153 Q1012,1153 1120.5,998 Q1229,843 1229,569 Q1229,293 1119.5,136.5 Q1010,-20 815,-20 Q752,-20 703,-6.5 Q654,7 615.5,31 Q577,55 526,111 L502,111 L440,0 L135,0 L135,1556 L526,1556 L526,1204 Q526,1141 512,987 L526,987 Q583,1075 657.5,1114 Q732,1153 827,1153 M684,846 Q602,846 564,789 Q526,732 526,610 L526,555 Q526,416 564,355.5 Q602,295 688,295 Q757,295 794,365.5 Q831,436 831,573 Q831,846 684,846"/> 
            <glyph glyph-name="c" unicode="&#x63;" horiz-adv-x="1053" d=" M651,-20 Q373,-20 229.5,130 Q86,280 86,561 Q86,843 241,998 Q396,1153 682,1153 Q879,1153 1053,1067 L938,778 Q867,809 807,827.5 Q747,846 682,846 Q587,846 535,772 Q483,698 483,563 Q483,291 684,291 Q856,291 1014,391 L1014,80 Q863,-20 651,-20"/> 
            <glyph glyph-name="d" unicode="&#x64;" horiz-adv-x="1182" d=" M487,-20 Q366,-20 275.5,49 Q185,118 135.5,252 Q86,386 86,565 Q86,841 197,997 Q308,1153 502,1153 Q597,1153 668.5,1115 Q740,1077 799,987 L807,987 Q788,1120 788,1253 L788,1556 L1182,1556 L1182,0 L887,0 L803,143 L788,143 Q687,-20 487,-20 M647,289 Q741,289 779.5,348 Q818,407 821,530 L821,561 Q821,711 778,774.5 Q735,838 643,838 Q566,838 523.5,765.5 Q481,693 481,559 Q481,427 524,358 Q567,289 647,289"/> 
            <glyph glyph-name="e" unicode="&#x65;" horiz-adv-x="1180" d=" M682,-20 Q399,-20 242.5,130.5 Q86,281 86,559 Q86,846 231,999.5 Q376,1153 645,1153 Q901,1153 1040.5,1019.5 Q1180,886 1180,635 L1180,461 L481,461 Q485,366 550.5,312 Q616,258 729,258 Q832,258 918.5,277.5 Q1005,297 1106,344 L1106,63 Q1014,16 916,-2 Q818,-20 682,-20 M659,887 Q590,887 543.5,843.5 Q497,800 489,707 L825,707 Q823,789 778.5,838 Q734,887 659,887"/> 
            <glyph glyph-name="f" unicode="&#x66;" horiz-adv-x="897" d=" M827,840 L586,840 L586,0 L195,0 L195,840 L45,840 L45,1032 L203,1128 L203,1147 Q203,1371 294.5,1469 Q386,1567 588,1567 Q666,1567 735.5,1555 Q805,1543 897,1513 L813,1260 Q741,1280 672,1280 Q627,1280 606.5,1252.5 Q586,1225 586,1163 L586,1133 L827,1133"/> 
            <glyph glyph-name="g" unicode="&#x67;" horiz-adv-x="1204" d=" M1204,1133 L1204,944 L1049,887 Q1081,829 1081,752 Q1081,569 952.5,468 Q824,367 569,367 Q506,367 469,375 Q455,349 455,326 Q455,297 502,281.5 Q549,266 625,266 L813,266 Q1194,266 1194,-55 Q1194,-262 1017.5,-377 Q841,-492 522,-492 Q281,-492 150.5,-411.5 Q20,-331 20,-180 Q20,23 272,82 Q220,104 181.5,153 Q143,202 143,250 Q143,303 172,343.5 Q201,384 293,440 Q205,479 154.5,562 Q104,645 104,764 Q104,949 230,1051 Q356,1153 590,1153 Q621,1153 697,1146 Q773,1139 809,1133 M350,-141 Q350,-189 402,-218.5 Q454,-248 541,-248 Q683,-248 768.5,-212.5 Q854,-177 854,-121 Q854,-76 802,-57.5 Q750,-39 653,-39 L500,-39 Q437,-39 393.5,-68.5 Q350,-98 350,-141 M473,762 Q473,588 594,588 Q650,588 680.5,631 Q711,674 711,760 Q711,936 594,936 Q473,936 473,762"/> 
            <glyph glyph-name="h" unicode="&#x68;" horiz-adv-x="1241" d=" M848,0 L848,618 Q848,846 713,846 Q617,846 571.5,765.5 Q526,685 526,498 L526,0 L135,0 L135,1556 L526,1556 L526,1335 Q526,1185 510,993 L528,993 Q584,1081 661,1117 Q738,1153 840,1153 Q1030,1153 1135.5,1043.5 Q1241,934 1241,737 L1241,0"/> 
            <glyph glyph-name="i" unicode="&#x69;" horiz-adv-x="543" d=" M528,0 L137,0 L137,1133 L528,1133 M127,1415 Q127,1503 176,1546 Q225,1589 334,1589 Q443,1589 493,1545 Q543,1501 543,1415 Q543,1243 334,1243 Q127,1243 127,1415"/> 
            <glyph glyph-name="j" unicode="&#x6A;" horiz-adv-x="541" d=" M106,-492 Q58,-492 -4.5,-484.5 Q-67,-477 -104,-467 L-104,-162 Q-40,-180 16,-180 Q135,-180 135,-10 L135,1133 L526,1133 L526,-92 Q526,-279 416.5,-385.5 Q307,-492 106,-492 M125,1415 Q125,1503 174,1546 Q223,1589 332,1589 Q441,1589 491,1545 Q541,1501 541,1415 Q541,1243 332,1243 Q125,1243 125,1415"/> 
            <glyph glyph-name="k" unicode="&#x6B;" horiz-adv-x="1350" d=" M514,637 Q585,750 635,813 L889,1133 L1325,1133 L932,651 L1350,0 L903,0 L655,406 L528,309 L528,0 L135,0 L135,1556 L528,1556 L528,944 Q528,787 506,637"/> 
            <glyph glyph-name="l" unicode="&#x6C;" horiz-adv-x="526" d=" M526,0 L135,0 L135,1556 L526,1556"/> 
            <glyph glyph-name="m" unicode="&#x6D;" horiz-adv-x="1917" d=" M1526,0 L1526,616 Q1526,731 1494.5,788.5 Q1463,846 1395,846 Q1305,846 1263,769 Q1221,692 1221,528 L1221,0 L829,0 L829,616 Q829,731 799,788.5 Q769,846 702,846 Q610,846 568,764 Q526,682 526,496 L526,0 L135,0 L135,1133 L430,1133 L479,993 L502,993 Q547,1071 632.5,1112 Q718,1153 827,1153 Q1072,1153 1171,1004 L1202,1004 Q1250,1074 1335.5,1113.5 Q1421,1153 1524,1153 Q1725,1153 1821,1050 Q1917,947 1917,737 L1917,0"/> 
            <glyph glyph-name="n" unicode="&#x6E;" horiz-adv-x="1241" d=" M850,0 L850,618 Q850,731 817.5,788.5 Q785,846 713,846 Q614,846 570,767 Q526,688 526,496 L526,0 L135,0 L135,1133 L430,1133 L479,993 L502,993 Q552,1073 640.5,1113 Q729,1153 844,1153 Q1032,1153 1136.5,1044 Q1241,935 1241,737 L1241,0"/> 
            <glyph glyph-name="o" unicode="&#x6F;" horiz-adv-x="1217" d=" M1217,569 Q1217,291 1067.5,135.5 Q918,-20 649,-20 Q391,-20 238.5,139 Q86,298 86,569 Q86,846 235.5,999.5 Q385,1153 655,1153 Q822,1153 950,1082 Q1078,1011 1147.5,878.5 Q1217,746 1217,569 M483,569 Q483,423 522,346.5 Q561,270 653,270 Q744,270 781.5,346.5 Q819,423 819,569 Q819,714 781,788 Q743,862 651,862 Q561,862 522,788.5 Q483,715 483,569"/> 
            <glyph glyph-name="p" unicode="&#x70;" horiz-adv-x="1229" d=" M815,-20 Q729,-20 661,8.5 Q593,37 526,111 L508,111 Q526,-8 526,-37 L526,-492 L135,-492 L135,1133 L453,1133 L508,989 L526,989 Q635,1153 827,1153 Q1015,1153 1122,997 Q1229,841 1229,569 Q1229,295 1117.5,137.5 Q1006,-20 815,-20 M684,846 Q598,846 563.5,784.5 Q529,723 526,602 L526,571 Q526,425 565,360 Q604,295 688,295 Q763,295 797,359.5 Q831,424 831,573 Q831,719 797,782.5 Q763,846 684,846"/> 
            <glyph glyph-name="q" unicode="&#x71;" horiz-adv-x="1182" d=" M492,-20 Q302,-20 194,136 Q86,292 86,565 Q86,841 196.5,997 Q307,1153 498,1153 Q703,1153 807,993 L815,993 L844,1133 L1182,1133 L1182,-492 L791,-492 L791,-23 Q791,11 803,143 L791,143 Q695,-20 492,-20 M651,283 Q740,283 780.5,338 Q821,393 821,524 L821,571 Q821,721 780,785.5 Q739,850 645,850 Q483,850 483,559 Q483,411 524,347 Q565,283 651,283"/> 
            <glyph glyph-name="r" unicode="&#x72;" horiz-adv-x="938" d=" M819,1153 Q870,1153 916,1145 L938,1141 L903,772 Q855,784 770,784 Q642,784 584,725.5 Q526,667 526,557 L526,0 L135,0 L135,1133 L426,1133 L487,952 L506,952 Q555,1042 642.5,1097.5 Q730,1153 819,1153"/> 
            <glyph glyph-name="s" unicode="&#x73;" horiz-adv-x="1010" d=" M1010,348 Q1010,166 886,73 Q762,-20 530,-20 Q404,-20 311,-6.5 Q218,7 121,43 L121,356 Q212,316 320.5,290 Q429,264 514,264 Q641,264 641,322 Q641,352 605.5,375.5 Q570,399 399,467 Q243,531 181,612.5 Q119,694 119,819 Q119,977 241,1065 Q363,1153 586,1153 Q698,1153 796.5,1128.5 Q895,1104 1001,1057 L895,805 Q817,840 730,864.5 Q643,889 588,889 Q492,889 492,842 Q492,813 525.5,792.5 Q559,772 719,709 Q838,660 896.5,613 Q955,566 982.5,502.5 Q1010,439 1010,348"/> 
            <glyph glyph-name="t" unicode="&#x74;" horiz-adv-x="879" d=" M690,289 Q769,289 879,328 L879,43 Q800,9 728.5,-5.5 Q657,-20 561,-20 Q364,-20 277,76.5 Q190,173 190,373 L190,840 L53,840 L53,999 L227,1122 L328,1360 L584,1360 L584,1133 L862,1133 L862,840 L584,840 L584,399 Q584,289 690,289"/> 
            <glyph glyph-name="u" unicode="&#x75;" horiz-adv-x="1237" d=" M942,0 L893,141 L870,141 Q821,63 733.5,21.5 Q646,-20 528,-20 Q341,-20 237,88.5 Q133,197 133,395 L133,1133 L524,1133 L524,514 Q524,403 555.5,346 Q587,289 659,289 Q760,289 803,368.5 Q846,448 846,637 L846,1133 L1237,1133 L1237,0"/> 
            <glyph glyph-name="v" unicode="&#x76;" horiz-adv-x="1251" d=" M432,0 L0,1133 L408,1133 L600,463 Q601,458 604,446 Q607,434 610,417.5 Q613,401 615.5,382.5 Q618,364 618,348 L625,348 Q625,400 643,461 L844,1133 L1251,1133 L819,0"/> 
            <glyph glyph-name="w" unicode="&#x77;" horiz-adv-x="1839" d=" M1110,0 L982,540 L952,703 L932,834 L926,834 Q877,554 860,481 L745,0 L334,0 L25,1133 L410,1133 L502,698 Q546,474 553,326 L559,326 Q562,418 614,676 L719,1133 L1151,1133 L1247,670 Q1293,449 1305,326 L1311,326 Q1317,402 1331,515.5 Q1345,629 1362,698 L1462,1133 L1839,1133 L1528,0"/> 
            <glyph glyph-name="x" unicode="&#x78;" horiz-adv-x="1280" d=" M375,578 L29,1133 L473,1133 L645,815 L821,1133 L1266,1133 L911,578 L1280,0 L836,0 L645,344 L455,0 L10,0"/> 
            <glyph glyph-name="y" unicode="&#x79;" horiz-adv-x="1249" d=" M-2,1133 L410,1133 L602,483 Q616,432 621,360 L629,360 Q637,429 653,481 L850,1133 L1249,1133 L801,-72 Q715,-302 589.5,-397 Q464,-492 262,-492 Q184,-492 102,-475 L102,-168 Q155,-180 223,-180 Q275,-180 314,-160 Q353,-140 382,-103.5 Q411,-67 444,16"/> 
            <glyph glyph-name="z" unicode="&#x7A;" horiz-adv-x="987" d=" M987,0 L49,0 L49,223 L518,834 L76,834 L76,1133 L965,1133 L965,891 L516,299 L987,299"/> 
            <glyph glyph-name="{" unicode="&#x7B;" horiz-adv-x="821" d=" M61,719 Q176,719 241.5,763.5 Q307,808 307,889 L307,1143 Q307,1282 356,1351 Q405,1420 515.5,1451.5 Q626,1483 821,1483 L821,1204 Q732,1201 700.5,1190.5 Q669,1180 650,1158 Q631,1136 631,1098 L631,827 Q631,714 574.5,653.5 Q518,593 391,575 L391,563 Q519,543 575,484 Q631,425 631,317 L631,41 Q631,2 652,-20 Q673,-42 708,-52.5 Q743,-63 821,-66 L821,-344 Q624,-344 514,-312 Q404,-280 355.5,-210.5 Q307,-141 307,0 L307,248 Q307,328 240,373 Q173,418 61,418"/> 
            <glyph glyph-name="|" unicode="&#x7C;" horiz-adv-x="655" d=" M387,1556 L655,1556 L655,-446 L387,-446"/> 
            <glyph glyph-name="}" unicode="&#x7D;" horiz-adv-x="825" d=" M825,418 Q714,418 647,373 Q580,328 580,248 L580,0 Q580,-140 531,-210 Q482,-280 372,-312 Q262,-344 66,-344 L66,-66 Q174,-62 215,-36.5 Q256,-11 256,41 L256,317 Q256,425 312,484 Q368,543 496,563 L496,575 Q369,593 312.5,653.5 Q256,714 256,827 L256,1098 Q256,1137 236.5,1158.5 Q217,1180 186.5,1190.5 Q156,1201 66,1204 L66,1483 Q262,1483 372,1451.5 Q482,1420 531,1351 Q580,1282 580,1143 L580,889 Q580,808 645,763.5 Q710,719 825,719"/> 
            <glyph glyph-name="~" unicode="&#x7E;" horiz-adv-x="1085" d=" M305,647 Q195,647 72,526 L72,807 Q176,915 336,915 Q405,915 466,901.5 Q527,888 616,852 Q747,797 854,797 Q904,797 966.5,829 Q1029,861 1085,918 L1085,637 Q980,528 821,528 Q750,528 687.5,543 Q625,558 541,592 Q410,647 305,647"/> 
            <glyph glyph-name="¡" unicode="&#xA1;" horiz-adv-x="514" d=" M133,612 L463,612 L514,-334 L82,-334 M510,963 Q510,872 456.5,821 Q403,770 299,770 Q197,770 144.5,820.5 Q92,871 92,963 Q92,1053 146,1103 Q200,1153 299,1153 Q400,1153 455,1102.5 Q510,1052 510,963"/> 
            <glyph glyph-name="¢" unicode="&#xA2;" horiz-adv-x="1096" d=" M565,1483 L772,1483 L772,1329 Q943,1320 1096,1245 L981,956 Q910,987 850,1005.5 Q790,1024 725,1024 Q630,1024 578,950 Q526,876 526,741 Q526,469 727,469 Q899,469 1057,569 L1057,258 Q930,176 772,160 L772,-20 L565,-20 L565,166 Q353,197 241,342 Q129,487 129,739 Q129,979 242,1127.5 Q355,1276 565,1317"/> 
            <glyph glyph-name="£" unicode="&#xA3;" horiz-adv-x="1165" d=" M723,1485 Q933,1485 1128,1403 L1018,1114 Q870,1169 766,1169 Q708,1169 680.5,1136 Q653,1103 653,1032 L653,926 L997,926 L997,649 L653,649 L653,553 Q653,403 494,326 L1165,326 L1165,0 L104,0 L104,313 Q185,360 213.5,389.5 Q242,419 255,457 Q268,495 268,551 L268,649 L102,649 L102,926 L268,926 L268,1044 Q268,1259 385,1372 Q502,1485 723,1485"/> 
            <glyph glyph-name="¤" unicode="&#xA4;" horiz-adv-x="1053" d=" M180,723 Q180,812 221,899 L96,1018 L276,1200 L399,1077 Q483,1118 571,1118 Q662,1118 748,1073 L868,1200 L1053,1026 L926,901 Q967,825 967,723 Q967,629 926,547 L1047,428 L868,250 L748,369 Q659,330 571,330 Q471,330 395,367 L276,252 L98,430 L221,549 Q180,631 180,723 M436,723 Q436,667 476.5,627.5 Q517,588 571,588 Q629,588 671,626.5 Q713,665 713,723 Q713,781 671,820.5 Q629,860 571,860 Q515,860 475.5,819.5 Q436,779 436,723"/> 
            <glyph glyph-name="¥" unicode="&#xA5;" horiz-adv-x="1192" d=" M600,958 L793,1462 L1192,1462 L829,750 L1024,750 L1024,539 L782,539 L782,422 L1024,422 L1024,213 L782,213 L782,0 L418,0 L418,213 L172,213 L172,422 L418,422 L418,539 L172,539 L172,750 L362,750 L8,1462 L408,1462"/> 
            <glyph glyph-name="¦" unicode="&#xA6;" horiz-adv-x="655" d=" M387,1556 L655,1556 L655,717 L387,717 M387,393 L655,393 L655,-446 L387,-446"/> 
            <glyph glyph-name="§" unicode="&#xA7;" horiz-adv-x="928" d=" M106,803 Q106,867 149,928 Q192,989 270,1036 Q129,1138 129,1282 Q129,1419 240,1498 Q351,1577 535,1577 Q726,1577 905,1491 L807,1270 Q734,1310 660.5,1333 Q587,1356 532,1356 Q424,1356 424,1282 Q424,1239 469.5,1203 Q515,1167 598,1133 Q773,1062 850.5,981 Q928,900 928,803 Q928,726 896,665.5 Q864,605 780,545 Q905,451 905,301 Q905,152 788.5,63.5 Q672,-25 469,-25 Q265,-25 117,61 L117,305 Q196,261 299,229 Q402,197 471,197 Q610,197 610,293 Q610,335 579,365.5 Q548,396 440,444 Q299,507 234.5,556 Q170,605 138,664 Q106,723 106,803 M397,834 Q397,783 441,743 Q485,703 596,645 Q637,692 637,752 Q637,809 595,852 Q553,895 455,936 Q397,904 397,834"/> 
            <glyph glyph-name="¨" unicode="&#xA8;" horiz-adv-x="1047" d=" M223,1413 Q223,1488 269,1529.5 Q315,1571 393,1571 Q472,1571 518.5,1528.5 Q565,1486 565,1413 Q565,1342 518.5,1299.5 Q472,1257 393,1257 Q315,1257 269,1298 Q223,1339 223,1413 M702,1413 Q702,1488 748,1529.5 Q794,1571 874,1571 Q954,1571 1000.5,1528 Q1047,1485 1047,1413 Q1047,1342 1000.5,1299.5 Q954,1257 874,1257 Q793,1257 747.5,1298.5 Q702,1340 702,1413"/> 
            <glyph glyph-name="©" unicode="&#xA9;" horiz-adv-x="1595" d=" M887,971 Q806,971 760.5,910 Q715,849 715,731 Q715,603 758.5,546 Q802,489 893,489 Q1031,489 1151,557 L1151,326 Q1025,262 879,262 Q667,262 550.5,386 Q434,510 434,735 Q434,952 547,1075 Q660,1198 868,1198 Q1034,1198 1190,1120 L1098,915 Q992,971 887,971 M92,731 Q92,931 192,1106 Q292,1281 467,1382 Q642,1483 844,1483 Q1041,1483 1214,1386 Q1387,1289 1491,1114 Q1595,939 1595,731 Q1595,527 1494.5,354.5 Q1394,182 1221.5,81 Q1049,-20 844,-20 Q637,-20 462,83.5 Q287,187 189.5,360 Q92,533 92,731 M256,731 Q256,573 335.5,435.5 Q415,298 551,220.5 Q687,143 844,143 Q1002,143 1138,221.5 Q1274,300 1353,436.5 Q1432,573 1432,731 Q1432,888 1354.5,1024 Q1277,1160 1140.5,1239.5 Q1004,1319 844,1319 Q686,1319 549.5,1240.5 Q413,1162 334.5,1025.5 Q256,889 256,731"/> 
            <glyph glyph-name="ª" unicode="&#xAA;" horiz-adv-x="733" d=" M571,741 L526,868 Q478,792 421.5,760.5 Q365,729 283,729 Q174,729 111.5,792.5 Q49,856 49,967 Q49,1083 126,1138 Q203,1193 393,1202 L481,1206 L481,1212 Q481,1253 455.5,1270.5 Q430,1288 379,1288 Q322,1288 271.5,1273 Q221,1258 168,1233 L92,1399 Q200,1450 272.5,1464.5 Q345,1479 436,1479 Q575,1479 654,1403.5 Q733,1328 733,1190 L733,741 M301,979 Q301,947 319,929 Q337,911 371,911 Q421,911 451,949.5 Q481,988 481,1047 L481,1069 L397,1063 Q301,1057 301,979"/> 
            <glyph glyph-name="«" unicode="&#xAB;" horiz-adv-x="1319" d=" M74,588 L463,1071 L743,922 L471,575 L743,227 L463,80 L74,561 M649,588 L1036,1071 L1319,922 L1044,575 L1319,227 L1036,80 L649,561"/> 
            <glyph glyph-name="¬" unicode="&#xAC;" horiz-adv-x="1085" d=" M1085,238 L815,238 L815,588 L72,588 L72,856 L1085,856"/> 
            <glyph glyph-name="­" unicode="&#xAD;" horiz-adv-x="608" d=" M43,393 L43,705 L608,705 L608,393"/> 
            <glyph glyph-name="®" unicode="&#xAE;" horiz-adv-x="1595" d=" M1204,918 Q1204,831 1171,771.5 Q1138,712 1063,676 L1257,313 L967,313 L821,633 L786,633 L786,313 L506,313 L506,1188 L797,1188 Q1204,1188 1204,918 M786,809 L797,809 Q855,809 888.5,830.5 Q922,852 922,907 Q922,954 894.5,973.5 Q867,993 799,993 L786,993 M92,731 Q92,931 192,1106 Q292,1281 467,1382 Q642,1483 844,1483 Q1041,1483 1214,1386 Q1387,1289 1491,1114 Q1595,939 1595,731 Q1595,527 1494.5,354.5 Q1394,182 1221.5,81 Q1049,-20 844,-20 Q637,-20 462,83.5 Q287,187 189.5,360 Q92,533 92,731 M256,731 Q256,573 335.5,435.5 Q415,298 551,220.5 Q687,143 844,143 Q1002,143 1138,221.5 Q1274,300 1353,436.5 Q1432,573 1432,731 Q1432,888 1354.5,1024 Q1277,1160 1140.5,1239.5 Q1004,1319 844,1319 Q686,1319 549.5,1240.5 Q413,1162 334.5,1025.5 Q256,889 256,731"/> 
            <glyph glyph-name="¯" unicode="&#xAF;" horiz-adv-x="1030" d=" M1030,1556 L-6,1556 L-6,1802 L1030,1802"/> 
            <glyph glyph-name="°" unicode="&#xB0;" horiz-adv-x="801" d=" M63,1114 Q63,1211 112,1296.5 Q161,1382 247,1432.5 Q333,1483 432,1483 Q531,1483 617,1432.5 Q703,1382 752,1297 Q801,1212 801,1114 Q801,1017 752.5,933 Q704,849 618.5,799.5 Q533,750 432,750 Q333,750 247,799 Q161,848 112,932 Q63,1016 63,1114 M301,1114 Q301,1064 339.5,1025.5 Q378,987 432,987 Q486,987 524.5,1026 Q563,1065 563,1114 Q563,1166 525.5,1206.5 Q488,1247 432,1247 Q376,1247 338.5,1206.5 Q301,1166 301,1114"/> 
            <glyph glyph-name="±" unicode="&#xB1;" horiz-adv-x="1085" d=" M444,684 L72,684 L72,952 L444,952 L444,1319 L713,1319 L713,952 L1085,952 L1085,684 L713,684 L713,324 L444,324 M72,0 L72,268 L1085,268 L1085,0"/> 
            <glyph glyph-name="²" unicode="&#xB2;" horiz-adv-x="750" d=" M750,586 L76,586 L76,793 L291,1006 Q375,1090 407.5,1135 Q440,1180 440,1214 Q440,1272 375,1272 Q294,1272 203,1184 L61,1350 Q141,1423 228.5,1454 Q316,1485 432,1485 Q574,1485 651.5,1422 Q729,1359 729,1247 Q729,1201 716,1160 Q703,1119 675.5,1075.5 Q648,1032 601,984.5 Q554,937 403,811 L750,811"/> 
            <glyph glyph-name="³" unicode="&#xB3;" horiz-adv-x="754" d=" M725,1266 Q725,1188 688,1133.5 Q651,1079 563,1047 L563,1038 Q660,1014 707,962 Q754,910 754,823 Q754,703 656,636 Q558,569 379,569 Q194,569 70,639 L70,872 Q187,791 367,791 Q483,791 483,858 Q483,899 450.5,914.5 Q418,930 348,930 L244,930 L244,1124 L324,1124 Q395,1124 429,1142.5 Q463,1161 463,1202 Q463,1227 442,1248.5 Q421,1270 371,1270 Q321,1270 277,1253 Q233,1236 180,1196 L63,1366 Q212,1481 406,1481 Q552,1481 638.5,1423.5 Q725,1366 725,1266"/> 
            <glyph glyph-name="´" unicode="&#xB4;" horiz-adv-x="956" d=" M264,1241 L264,1270 Q418,1435 459.5,1483 Q501,1531 528,1569 L956,1569 L956,1548 Q876,1484 736,1385 Q596,1286 524,1241"/> 
            <glyph glyph-name="µ" unicode="&#xB5;" horiz-adv-x="1241" d=" M526,518 Q526,403 559.5,346 Q593,289 672,289 Q765,289 806.5,372 Q848,455 848,637 L848,1133 L1241,1133 L1241,0 L948,0 L895,152 L879,152 Q845,64 788.5,22 Q732,-20 666,-20 Q610,-20 576,0 Q542,20 514,63 Q526,-27 526,-172 L526,-492 L135,-492 L135,1133 L526,1133"/> 
            <glyph glyph-name="¶" unicode="&#xB6;" horiz-adv-x="1186" d=" M1186,-260 L995,-260 L995,1327 L838,1327 L838,-260 L647,-260 L647,559 Q593,541 522,541 Q306,541 204,666 Q102,791 102,1042 Q102,1298 209.5,1427 Q317,1556 553,1556 L1186,1556"/> 
            <glyph glyph-name="·" unicode="&#xB7;" horiz-adv-x="504" d=" M86,723 Q86,815 140.5,865 Q195,915 299,915 Q398,915 451,865 Q504,815 504,723 Q504,633 449.5,581.5 Q395,530 299,530 Q199,530 142.5,581 Q86,632 86,723"/> 
            <glyph glyph-name="¸" unicode="&#xB8;" horiz-adv-x="397" d=" M397,-252 Q397,-361 322,-426.5 Q247,-492 123,-492 Q-13,-492 -90,-463 L-90,-258 Q-7,-285 57,-285 Q109,-285 109,-238 Q109,-205 68,-179.5 Q27,-154 -39,-139 L33,0 L236,0 L227,-29 Q323,-68 360,-121.5 Q397,-175 397,-252"/> 
            <glyph glyph-name="¹" unicode="&#xB9;" horiz-adv-x="616" d=" M616,586 L334,586 L334,942 Q334,977 337.5,1060 Q341,1143 344,1159 Q335,1140 312.5,1116 Q290,1092 203,1018 L57,1188 L397,1462 L616,1462"/> 
            <glyph glyph-name="º" unicode="&#xBA;" horiz-adv-x="756" d=" M756,1104 Q756,930 660.5,829.5 Q565,729 399,729 Q240,729 144.5,831.5 Q49,934 49,1104 Q49,1281 143.5,1380 Q238,1479 403,1479 Q560,1479 658,1376 Q756,1273 756,1104 M301,1104 Q301,1017 325,974.5 Q349,932 401,932 Q500,932 500,1104 Q500,1278 401,1278 Q301,1278 301,1104"/> 
            <glyph glyph-name="»" unicode="&#xBB;" horiz-adv-x="1321" d=" M1321,561 L934,80 L649,227 L924,575 L649,922 L934,1071 L1321,588 M745,561 L358,80 L76,227 L348,575 L76,922 L358,1071 L745,588"/> 
            <glyph glyph-name="¼" unicode="&#xBC;" horiz-adv-x="1798" d=" M1798,65676 L1673,65676 L1673,65537 L1398,65537 L1398,65676 L1028,65676 L1028,65864 L1378,66419 L1673,66419 L1673,65877 L1798,65877 M1398,65877 L1398,66043 Q1398,66112 1405,66178 Q1365,66078 1343,66045 L1241,65877 M1412,1462 L658,0 L357,0 L1110,1462 M803,586 L521,586 L521,942 Q521,977 524.5,1060 Q528,1143 531,1159 Q522,1140 499.5,1116 Q477,1092 390,1018 L244,1188 L584,1462 L803,1462"/> 
            <glyph glyph-name="½" unicode="&#xBD;" horiz-adv-x="1829" d=" M1829,65537 L1155,65537 L1155,65744 L1370,65957 Q1454,66041 1486.5,66086 Q1519,66131 1519,66165 Q1519,66223 1454,66223 Q1373,66223 1282,66135 L1140,66301 Q1220,66374 1307.5,66405 Q1395,66436 1511,66436 Q1653,66436 1730.5,66373 Q1808,66310 1808,66198 Q1808,66152 1795,66111 Q1782,66070 1754.5,66026.5 Q1727,65983 1680,65935.5 Q1633,65888 1482,65762 L1829,65762 M1436,1462 L682,0 L381,0 L1134,1462 M803,586 L521,586 L521,942 Q521,977 524.5,1060 Q528,1143 531,1159 Q522,1140 499.5,1116 Q477,1092 390,1018 L244,1188 L584,1462 L803,1462"/> 
            <glyph glyph-name="¾" unicode="&#xBE;" horiz-adv-x="1870" d=" M1870,65676 L1745,65676 L1745,65537 L1470,65537 L1470,65676 L1100,65676 L1100,65864 L1450,66419 L1745,66419 L1745,65877 L1870,65877 M1470,65877 L1470,66043 Q1470,66112 1477,66178 Q1437,66078 1415,66045 L1313,65877 M745,1266 Q745,1188 708,1133.5 Q671,1079 583,1047 L583,1038 Q680,1014 727,962 Q774,910 774,823 Q774,703 676,636 Q578,569 399,569 Q214,569 90,639 L90,872 Q207,791 387,791 Q503,791 503,858 Q503,899 470.5,914.5 Q438,930 368,930 L264,930 L264,1124 L344,1124 Q415,1124 449,1142.5 Q483,1161 483,1202 Q483,1227 462,1248.5 Q441,1270 391,1270 Q341,1270 297,1253 Q253,1236 200,1196 L83,1366 Q232,1481 426,1481 Q572,1481 658.5,1423.5 Q745,1366 745,1266 M1520,1462 L766,0 L465,0 L1218,1462"/> 
            <glyph glyph-name="¿" unicode="&#xBF;" horiz-adv-x="1034" d=" M739,612 L739,526 Q739,428 699,360.5 Q659,293 557,229 Q500,193 467,163 Q434,133 420,107.5 Q406,82 406,43 Q406,1 443.5,-23 Q481,-47 543,-47 Q691,-47 895,59 L1034,-213 Q791,-354 514,-354 Q291,-354 164,-256 Q37,-158 37,10 Q37,130 92,218 Q147,306 274,387 Q374,451 403,484 Q432,517 432,561 L432,612 M782,963 Q782,870 729,820 Q676,770 571,770 Q470,770 417.5,820 Q365,870 365,963 Q365,1053 419,1103 Q473,1153 571,1153 Q672,1153 727,1103.5 Q782,1054 782,963"/> 
            <glyph glyph-name="À" unicode="&#xC0;" horiz-adv-x="1487" d=" M1055,0 L983,274 L508,274 L434,0 L0,0 L477,1468 L1004,1468 L1487,0 M901,598 L838,838 Q816,918 784.5,1045 Q753,1172 743,1227 Q734,1176 707.5,1059 Q681,942 590,598 M704,1579 Q635,1623 500.5,1717.5 Q366,1812 272,1886 L272,1907 L702,1907 Q754,1837 905,1674 L964,1608 L964,1579"/> 
            <glyph glyph-name="Á" unicode="&#xC1;" horiz-adv-x="1487" d=" M1055,0 L983,274 L508,274 L434,0 L0,0 L477,1468 L1004,1468 L1487,0 M901,598 L838,838 Q816,918 784.5,1045 Q753,1172 743,1227 Q734,1176 707.5,1059 Q681,942 590,598 M532,1579 L532,1608 Q686,1773 727.5,1821 Q769,1869 796,1907 L1224,1907 L1224,1886 Q1144,1822 1004,1723 Q864,1624 792,1579"/> 
            <glyph glyph-name="Â" unicode="&#xC2;" horiz-adv-x="1487" d=" M1055,0 L983,274 L508,274 L434,0 L0,0 L477,1468 L1004,1468 L1487,0 M901,598 L838,838 Q816,918 784.5,1045 Q753,1172 743,1227 Q734,1176 707.5,1059 Q681,942 590,598 M948,1579 Q864,1627 747,1729 Q622,1622 553,1579 L295,1579 L295,1608 Q364,1673 439.5,1761 Q515,1849 553,1907 L946,1907 Q1040,1770 1202,1608 L1202,1579"/> 
            <glyph glyph-name="Ã" unicode="&#xC3;" horiz-adv-x="1487" d=" M1055,0 L983,274 L508,274 L434,0 L0,0 L477,1468 L1004,1468 L1487,0 M901,598 L838,838 Q816,918 784.5,1045 Q753,1172 743,1227 Q734,1176 707.5,1059 Q681,942 590,598 M926,1577 Q881,1577 835.5,1592 Q790,1607 746,1625 Q702,1643 660.5,1658 Q619,1673 582,1673 Q528,1673 510,1575 L330,1575 Q341,1750 402,1833.5 Q463,1917 582,1917 Q620,1917 663,1902 Q706,1887 750,1869 Q794,1851 837,1836 Q880,1821 918,1821 Q947,1821 964,1846 Q981,1871 990,1919 L1172,1919 Q1161,1752 1098,1664.5 Q1035,1577 926,1577"/> 
            <glyph glyph-name="Ä" unicode="&#xC4;" horiz-adv-x="1487" d=" M1055,0 L983,274 L508,274 L434,0 L0,0 L477,1468 L1004,1468 L1487,0 M901,598 L838,838 Q816,918 784.5,1045 Q753,1172 743,1227 Q734,1176 707.5,1059 Q681,942 590,598 M352,1751 Q352,1826 398,1867.5 Q444,1909 522,1909 Q601,1909 647.5,1866.5 Q694,1824 694,1751 Q694,1680 647.5,1637.5 Q601,1595 522,1595 Q444,1595 398,1636 Q352,1677 352,1751 M831,1751 Q831,1826 877,1867.5 Q923,1909 1003,1909 Q1083,1909 1129.5,1866 Q1176,1823 1176,1751 Q1176,1680 1129.5,1637.5 Q1083,1595 1003,1595 Q922,1595 876.5,1636.5 Q831,1678 831,1751"/> 
            <glyph glyph-name="Å" unicode="&#xC5;" horiz-adv-x="1487" d=" M1055,0 L983,274 L508,274 L434,0 L0,0 L477,1468 L1004,1468 L1487,0 M901,598 L838,838 Q816,918 784.5,1045 Q753,1172 743,1227 Q734,1176 707.5,1059 Q681,942 590,598 M1011,1616 Q1011,1503 935,1432.5 Q859,1362 739,1362 Q618,1362 546.5,1430.5 Q475,1499 475,1614 Q475,1730 546.5,1799 Q618,1868 739,1868 Q857,1868 934,1798 Q1011,1728 1011,1616 M823,1614 Q823,1652 798.5,1675 Q774,1698 739,1698 Q704,1698 679.5,1675 Q655,1652 655,1614 Q655,1577 676,1553.5 Q697,1530 739,1530 Q774,1530 798.5,1553.5 Q823,1577 823,1614"/> 
            <glyph glyph-name="Æ" unicode="&#xC6;" horiz-adv-x="1839" d=" M1839,0 L969,0 L969,274 L532,274 L432,0 L-10,0 L618,1462 L1839,1462 L1839,1145 L1366,1145 L1366,915 L1804,915 L1804,598 L1366,598 L1366,322 L1839,322 M653,602 L969,602 L969,1128 L858,1128"/> 
            <glyph glyph-name="Ç" unicode="&#xC7;" horiz-adv-x="1266" d=" M809,1159 Q668,1159 589,1043.5 Q510,928 510,725 Q510,303 831,303 Q928,303 1019,330 Q1110,357 1202,395 L1202,61 Q1019,-20 788,-20 Q457,-20 280.5,172 Q104,364 104,727 Q104,954 189.5,1126 Q275,1298 435.5,1390.5 Q596,1483 813,1483 Q1050,1483 1266,1380 L1145,1069 Q1064,1107 983,1133 Q902,1159 809,1159 M964,-252 Q964,-361 889,-426.5 Q814,-492 690,-492 Q554,-492 477,-463 L477,-258 Q560,-285 624,-285 Q676,-285 676,-238 Q676,-205 635,-179.5 Q594,-154 528,-139 L600,0 L803,0 L794,-29 Q890,-68 927,-121.5 Q964,-175 964,-252"/> 
            <glyph glyph-name="È" unicode="&#xC8;" horiz-adv-x="1026" d=" M1026,0 L158,0 L158,1462 L1026,1462 L1026,1145 L553,1145 L553,915 L991,915 L991,598 L553,598 L553,322 L1026,322 M66122,1579 Q66053,1623 65918.5,1717.5 Q65784,1812 65690,1886 L65690,1907 L66120,1907 Q66172,1837 66323,1674 L66382,1608 L66382,1579"/> 
            <glyph glyph-name="É" unicode="&#xC9;" horiz-adv-x="1054" d=" M1026,0 L158,0 L158,1462 L1026,1462 L1026,1145 L553,1145 L553,915 L991,915 L991,598 L553,598 L553,322 L1026,322 M362,1579 L362,1608 Q516,1773 557.5,1821 Q599,1869 626,1907 L1054,1907 L1054,1886 Q974,1822 834,1723 Q694,1624 622,1579"/> 
            <glyph glyph-name="Ê" unicode="&#xCA;" horiz-adv-x="1058" d=" M1026,0 L158,0 L158,1462 L1026,1462 L1026,1145 L553,1145 L553,915 L991,915 L991,598 L553,598 L553,322 L1026,322 M66340,1579 Q66256,1627 66139,1729 Q66014,1622 65945,1579 L65687,1579 L65687,1608 Q65756,1673 65831.5,1761 Q65907,1849 65945,1907 L66338,1907 Q66432,1770 66594,1608 L66594,1579"/> 
            <glyph glyph-name="Ë" unicode="&#xCB;" horiz-adv-x="1026" d=" M1026,0 L158,0 L158,1462 L1026,1462 L1026,1145 L553,1145 L553,915 L991,915 L991,598 L553,598 L553,322 L1026,322 M65723,1751 Q65723,1826 65769,1867.5 Q65815,1909 65893,1909 Q65972,1909 66018.5,1866.5 Q66065,1824 66065,1751 Q66065,1680 66018.5,1637.5 Q65972,1595 65893,1595 Q65815,1595 65769,1636 Q65723,1677 65723,1751 M66202,1751 Q66202,1826 66248,1867.5 Q66294,1909 66374,1909 Q66454,1909 66500.5,1866 Q66547,1823 66547,1751 Q66547,1680 66500.5,1637.5 Q66454,1595 66374,1595 Q66293,1595 66247.5,1636.5 Q66202,1678 66202,1751"/> 
            <glyph glyph-name="Ì" unicode="&#xCC;" horiz-adv-x="576" d=" M158,0 L158,1462 L555,1462 L555,0 M65852,1579 Q65783,1623 65648.5,1717.5 Q65514,1812 65420,1886 L65420,1907 L65850,1907 Q65902,1837 66053,1674 L66112,1608 L66112,1579"/> 
            <glyph glyph-name="Í" unicode="&#xCD;" horiz-adv-x="848" d=" M158,0 L158,1462 L555,1462 L555,0 M65692,1579 L65692,1608 Q65846,1773 65887.5,1821 Q65929,1869 65956,1907 L66384,1907 L66384,1886 Q66304,1822 66164,1723 Q66024,1624 65952,1579"/> 
            <glyph glyph-name="Î" unicode="&#xCE;" horiz-adv-x="812" d=" M158,0 L158,1462 L555,1462 L555,0 M66094,1579 Q66010,1627 65893,1729 Q65768,1622 65699,1579 L65441,1579 L65441,1608 Q65510,1673 65585.5,1761 Q65661,1849 65699,1907 L66092,1907 Q66186,1770 66348,1608 L66348,1579"/> 
            <glyph glyph-name="Ï" unicode="&#xCF;" horiz-adv-x="769" d=" M158,0 L158,1462 L555,1462 L555,0 M65481,1751 Q65481,1826 65527,1867.5 Q65573,1909 65651,1909 Q65730,1909 65776.5,1866.5 Q65823,1824 65823,1751 Q65823,1680 65776.5,1637.5 Q65730,1595 65651,1595 Q65573,1595 65527,1636 Q65481,1677 65481,1751 M65960,1751 Q65960,1826 66006,1867.5 Q66052,1909 66132,1909 Q66212,1909 66258.5,1866 Q66305,1823 66305,1751 Q66305,1680 66258.5,1637.5 Q66212,1595 66132,1595 Q66051,1595 66005.5,1636.5 Q65960,1678 65960,1751"/> 
            <glyph glyph-name="Ð" unicode="&#xD0;" horiz-adv-x="1399" d=" M1399,762 Q1399,396 1197.5,198 Q996,0 631,0 L158,0 L158,563 L31,563 L31,883 L158,883 L158,1462 L664,1462 Q1016,1462 1207.5,1282 Q1399,1102 1399,762 M989,748 Q989,949 909.5,1046 Q830,1143 668,1143 L553,1143 L553,883 L764,883 L764,563 L553,563 L553,324 L641,324 Q821,324 905,428.5 Q989,533 989,748"/> 
            <glyph glyph-name="Ñ" unicode="&#xD1;" horiz-adv-x="1550" d=" M1550,0 L1032,0 L498,1030 L489,1030 Q508,787 508,659 L508,0 L158,0 L158,1462 L674,1462 L1206,446 L1212,446 Q1198,667 1198,801 L1198,1462 L1550,1462 M1030,1577 Q985,1577 939.5,1592 Q894,1607 850,1625 Q806,1643 764.5,1658 Q723,1673 686,1673 Q632,1673 614,1575 L434,1575 Q445,1750 506,1833.5 Q567,1917 686,1917 Q724,1917 767,1902 Q810,1887 854,1869 Q898,1851 941,1836 Q984,1821 1022,1821 Q1051,1821 1068,1846 Q1085,1871 1094,1919 L1276,1919 Q1265,1752 1202,1664.5 Q1139,1577 1030,1577"/> 
            <glyph glyph-name="Ò" unicode="&#xD2;" horiz-adv-x="1526" d=" M1526,733 Q1526,364 1345,172 Q1164,-20 815,-20 Q471,-20 287.5,173 Q104,366 104,735 Q104,1100 286.5,1292.5 Q469,1485 817,1485 Q1166,1485 1346,1294 Q1526,1103 1526,733 M520,733 Q520,309 815,309 Q965,309 1037.5,412 Q1110,515 1110,733 Q1110,952 1036.5,1056.5 Q963,1161 817,1161 Q520,1161 520,733 M829,1579 Q760,1623 625.5,1717.5 Q491,1812 397,1886 L397,1907 L827,1907 Q879,1837 1030,1674 L1089,1608 L1089,1579"/> 
            <glyph glyph-name="Ó" unicode="&#xD3;" horiz-adv-x="1526" d=" M1526,733 Q1526,364 1345,172 Q1164,-20 815,-20 Q471,-20 287.5,173 Q104,366 104,735 Q104,1100 286.5,1292.5 Q469,1485 817,1485 Q1166,1485 1346,1294 Q1526,1103 1526,733 M520,733 Q520,309 815,309 Q965,309 1037.5,412 Q1110,515 1110,733 Q1110,952 1036.5,1056.5 Q963,1161 817,1161 Q520,1161 520,733 M583,1579 L583,1608 Q737,1773 778.5,1821 Q820,1869 847,1907 L1275,1907 L1275,1886 Q1195,1822 1055,1723 Q915,1624 843,1579"/> 
            <glyph glyph-name="Ô" unicode="&#xD4;" horiz-adv-x="1526" d=" M1526,733 Q1526,364 1345,172 Q1164,-20 815,-20 Q471,-20 287.5,173 Q104,366 104,735 Q104,1100 286.5,1292.5 Q469,1485 817,1485 Q1166,1485 1346,1294 Q1526,1103 1526,733 M520,733 Q520,309 815,309 Q965,309 1037.5,412 Q1110,515 1110,733 Q1110,952 1036.5,1056.5 Q963,1161 817,1161 Q520,1161 520,733 M1016,1579 Q932,1627 815,1729 Q690,1622 621,1579 L363,1579 L363,1608 Q432,1673 507.5,1761 Q583,1849 621,1907 L1014,1907 Q1108,1770 1270,1608 L1270,1579"/> 
            <glyph glyph-name="Õ" unicode="&#xD5;" horiz-adv-x="1526" d=" M1526,733 Q1526,364 1345,172 Q1164,-20 815,-20 Q471,-20 287.5,173 Q104,366 104,735 Q104,1100 286.5,1292.5 Q469,1485 817,1485 Q1166,1485 1346,1294 Q1526,1103 1526,733 M520,733 Q520,309 815,309 Q965,309 1037.5,412 Q1110,515 1110,733 Q1110,952 1036.5,1056.5 Q963,1161 817,1161 Q520,1161 520,733 M997,1577 Q952,1577 906.5,1592 Q861,1607 817,1625 Q773,1643 731.5,1658 Q690,1673 653,1673 Q599,1673 581,1575 L401,1575 Q412,1750 473,1833.5 Q534,1917 653,1917 Q691,1917 734,1902 Q777,1887 821,1869 Q865,1851 908,1836 Q951,1821 989,1821 Q1018,1821 1035,1846 Q1052,1871 1061,1919 L1243,1919 Q1232,1752 1169,1664.5 Q1106,1577 997,1577"/> 
            <glyph glyph-name="Ö" unicode="&#xD6;" horiz-adv-x="1526" d=" M1526,733 Q1526,364 1345,172 Q1164,-20 815,-20 Q471,-20 287.5,173 Q104,366 104,735 Q104,1100 286.5,1292.5 Q469,1485 817,1485 Q1166,1485 1346,1294 Q1526,1103 1526,733 M520,733 Q520,309 815,309 Q965,309 1037.5,412 Q1110,515 1110,733 Q1110,952 1036.5,1056.5 Q963,1161 817,1161 Q520,1161 520,733 M403,1751 Q403,1826 449,1867.5 Q495,1909 573,1909 Q652,1909 698.5,1866.5 Q745,1824 745,1751 Q745,1680 698.5,1637.5 Q652,1595 573,1595 Q495,1595 449,1636 Q403,1677 403,1751 M882,1751 Q882,1826 928,1867.5 Q974,1909 1054,1909 Q1134,1909 1180.5,1866 Q1227,1823 1227,1751 Q1227,1680 1180.5,1637.5 Q1134,1595 1054,1595 Q973,1595 927.5,1636.5 Q882,1678 882,1751"/> 
            <glyph glyph-name="×" unicode="&#xD7;" horiz-adv-x="1036" d=" M387,723 L121,991 L303,1180 L573,913 L848,1180 L1036,997 L762,723 L1032,451 L848,266 L573,537 L303,268 L123,455"/> 
            <glyph glyph-name="Ø" unicode="&#xD8;" horiz-adv-x="1526" d=" M1526,733 Q1526,364 1345,172 Q1164,-20 815,-20 Q638,-20 508,23 L424,-109 L231,16 L315,141 Q104,335 104,735 Q104,1100 286.5,1292.5 Q469,1485 817,1485 Q1008,1485 1147,1430 L1223,1548 L1413,1434 L1331,1309 Q1526,1120 1526,733 M1110,733 Q1110,858 1092,944 L698,324 Q752,309 815,309 Q965,309 1037.5,412 Q1110,515 1110,733 M520,733 Q520,578 549,494 L952,1133 Q884,1161 817,1161 Q520,1161 520,733"/> 
            <glyph glyph-name="Ù" unicode="&#xD9;" horiz-adv-x="1401" d=" M1401,1462 L1401,582 Q1401,295 1238.5,137.5 Q1076,-20 770,-20 Q471,-20 310.5,133 Q150,286 150,573 L150,1462 L547,1462 L547,604 Q547,449 605,379 Q663,309 776,309 Q897,309 951.5,378.5 Q1006,448 1006,606 L1006,1462 M712,1579 Q643,1623 508.5,1717.5 Q374,1812 280,1886 L280,1907 L710,1907 Q762,1837 913,1674 L972,1608 L972,1579"/> 
            <glyph glyph-name="Ú" unicode="&#xDA;" horiz-adv-x="1401" d=" M1401,1462 L1401,582 Q1401,295 1238.5,137.5 Q1076,-20 770,-20 Q471,-20 310.5,133 Q150,286 150,573 L150,1462 L547,1462 L547,604 Q547,449 605,379 Q663,309 776,309 Q897,309 951.5,378.5 Q1006,448 1006,606 L1006,1462 M561,1579 L561,1608 Q715,1773 756.5,1821 Q798,1869 825,1907 L1253,1907 L1253,1886 Q1173,1822 1033,1723 Q893,1624 821,1579"/> 
            <glyph glyph-name="Û" unicode="&#xDB;" horiz-adv-x="1401" d=" M1401,1462 L1401,582 Q1401,295 1238.5,137.5 Q1076,-20 770,-20 Q471,-20 310.5,133 Q150,286 150,573 L150,1462 L547,1462 L547,604 Q547,449 605,379 Q663,309 776,309 Q897,309 951.5,378.5 Q1006,448 1006,606 L1006,1462 M975,1579 Q891,1627 774,1729 Q649,1622 580,1579 L322,1579 L322,1608 Q391,1673 466.5,1761 Q542,1849 580,1907 L973,1907 Q1067,1770 1229,1608 L1229,1579"/> 
            <glyph glyph-name="Ü" unicode="&#xDC;" horiz-adv-x="1401" d=" M1401,1462 L1401,582 Q1401,295 1238.5,137.5 Q1076,-20 770,-20 Q471,-20 310.5,133 Q150,286 150,573 L150,1462 L547,1462 L547,604 Q547,449 605,379 Q663,309 776,309 Q897,309 951.5,378.5 Q1006,448 1006,606 L1006,1462 M362,1751 Q362,1826 408,1867.5 Q454,1909 532,1909 Q611,1909 657.5,1866.5 Q704,1824 704,1751 Q704,1680 657.5,1637.5 Q611,1595 532,1595 Q454,1595 408,1636 Q362,1677 362,1751 M841,1751 Q841,1826 887,1867.5 Q933,1909 1013,1909 Q1093,1909 1139.5,1866 Q1186,1823 1186,1751 Q1186,1680 1139.5,1637.5 Q1093,1595 1013,1595 Q932,1595 886.5,1636.5 Q841,1678 841,1751"/> 
            <glyph glyph-name="Ý" unicode="&#xDD;" horiz-adv-x="1360" d=" M680,920 L932,1462 L1360,1462 L879,571 L879,0 L481,0 L481,559 L0,1462 L430,1462 M471,1579 L471,1608 Q625,1773 666.5,1821 Q708,1869 735,1907 L1163,1907 L1163,1886 Q1083,1822 943,1723 Q803,1624 731,1579"/> 
            <glyph glyph-name="Þ" unicode="&#xDE;" horiz-adv-x="1219" d=" M1219,784 Q1219,539 1074.5,405.5 Q930,272 664,272 L553,272 L553,0 L158,0 L158,1462 L553,1462 L553,1249 L664,1249 Q941,1249 1080,1128 Q1219,1007 1219,784 M553,594 L625,594 Q714,594 766.5,644 Q819,694 819,782 Q819,930 655,930 L553,930"/> 
            <glyph glyph-name="ß" unicode="&#xDF;" horiz-adv-x="1477" d=" M1339,1190 Q1339,1133 1319,1086.5 Q1299,1040 1269.5,1002.5 Q1240,965 1205,936 Q1170,907 1140.5,884 Q1111,861 1091,843 Q1071,825 1071,811 Q1071,788 1095.5,767 Q1120,746 1189,709 Q1358,614 1417.5,536 Q1477,458 1477,334 Q1477,160 1362,70 Q1247,-20 1024,-20 Q888,-20 802.5,-7.5 Q717,5 653,39 L653,330 Q702,300 784.5,275 Q867,250 932,250 Q993,250 1031,273.5 Q1069,297 1069,336 Q1069,364 1054.5,383 Q1040,402 1004,425.5 Q968,449 883,494 Q757,561 708,618.5 Q659,676 659,756 Q659,878 799,974 Q874,1026 906,1065.5 Q938,1105 938,1149 Q938,1200 888.5,1234 Q839,1268 748,1268 Q526,1268 526,1059 L526,0 L135,0 L135,1100 Q135,1315 302,1441 Q469,1567 748,1567 Q1024,1567 1181.5,1467.5 Q1339,1368 1339,1190"/> 
            <glyph glyph-name="à" unicode="&#xE0;" horiz-adv-x="1145" d=" M874,0 L799,150 L791,150 Q712,52 630,16 Q548,-20 418,-20 Q258,-20 166,76 Q74,172 74,346 Q74,527 200,615.5 Q326,704 565,715 L754,721 L754,737 Q754,877 616,877 Q492,877 301,793 L188,1051 Q386,1153 688,1153 Q906,1153 1025.5,1045 Q1145,937 1145,743 L1145,0 M584,256 Q655,256 705.5,301 Q756,346 756,418 L756,506 L666,502 Q473,495 473,360 Q473,256 584,256 M892,1241 Q823,1285 688.5,1379.5 Q554,1474 460,1548 L460,1569 L890,1569 Q942,1499 1093,1336 L1152,1270 L1152,1241"/> 
            <glyph glyph-name="á" unicode="&#xE1;" horiz-adv-x="1145" d=" M874,0 L799,150 L791,150 Q712,52 630,16 Q548,-20 418,-20 Q258,-20 166,76 Q74,172 74,346 Q74,527 200,615.5 Q326,704 565,715 L754,721 L754,737 Q754,877 616,877 Q492,877 301,793 L188,1051 Q386,1153 688,1153 Q906,1153 1025.5,1045 Q1145,937 1145,743 L1145,0 M584,256 Q655,256 705.5,301 Q756,346 756,418 L756,506 L666,502 Q473,495 473,360 Q473,256 584,256 M434,1241 L434,1270 Q588,1435 629.5,1483 Q671,1531 698,1569 L1126,1569 L1126,1548 Q1046,1484 906,1385 Q766,1286 694,1241"/> 
            <glyph glyph-name="â" unicode="&#xE2;" horiz-adv-x="1145" d=" M874,0 L799,150 L791,150 Q712,52 630,16 Q548,-20 418,-20 Q258,-20 166,76 Q74,172 74,346 Q74,527 200,615.5 Q326,704 565,715 L754,721 L754,737 Q754,877 616,877 Q492,877 301,793 L188,1051 Q386,1153 688,1153 Q906,1153 1025.5,1045 Q1145,937 1145,743 L1145,0 M584,256 Q655,256 705.5,301 Q756,346 756,418 L756,506 L666,502 Q473,495 473,360 Q473,256 584,256 M850,1494 Q766,1542 649,1644 Q524,1537 455,1494 L197,1494 L197,1523 Q266,1588 341.5,1676 Q417,1764 455,1822 L848,1822 Q942,1685 1104,1523 L1104,1494"/> 
            <glyph glyph-name="ã" unicode="&#xE3;" horiz-adv-x="1145" d=" M874,0 L799,150 L791,150 Q712,52 630,16 Q548,-20 418,-20 Q258,-20 166,76 Q74,172 74,346 Q74,527 200,615.5 Q326,704 565,715 L754,721 L754,737 Q754,877 616,877 Q492,877 301,793 L188,1051 Q386,1153 688,1153 Q906,1153 1025.5,1045 Q1145,937 1145,743 L1145,0 M584,256 Q655,256 705.5,301 Q756,346 756,418 L756,506 L666,502 Q473,495 473,360 Q473,256 584,256 M840,1239 Q795,1239 749.5,1254 Q704,1269 660,1287 Q616,1305 574.5,1320 Q533,1335 496,1335 Q442,1335 424,1237 L244,1237 Q255,1412 316,1495.5 Q377,1579 496,1579 Q534,1579 577,1564 Q620,1549 664,1531 Q708,1513 751,1498 Q794,1483 832,1483 Q861,1483 878,1508 Q895,1533 904,1581 L1086,1581 Q1075,1414 1012,1326.5 Q949,1239 840,1239"/> 
            <glyph glyph-name="ä" unicode="&#xE4;" horiz-adv-x="1145" d=" M874,0 L799,150 L791,150 Q712,52 630,16 Q548,-20 418,-20 Q258,-20 166,76 Q74,172 74,346 Q74,527 200,615.5 Q326,704 565,715 L754,721 L754,737 Q754,877 616,877 Q492,877 301,793 L188,1051 Q386,1153 688,1153 Q906,1153 1025.5,1045 Q1145,937 1145,743 L1145,0 M584,256 Q655,256 705.5,301 Q756,346 756,418 L756,506 L666,502 Q473,495 473,360 Q473,256 584,256 M268,1413 Q268,1488 314,1529.5 Q360,1571 438,1571 Q517,1571 563.5,1528.5 Q610,1486 610,1413 Q610,1342 563.5,1299.5 Q517,1257 438,1257 Q360,1257 314,1298 Q268,1339 268,1413 M747,1413 Q747,1488 793,1529.5 Q839,1571 919,1571 Q999,1571 1045.5,1528 Q1092,1485 1092,1413 Q1092,1342 1045.5,1299.5 Q999,1257 919,1257 Q838,1257 792.5,1298.5 Q747,1340 747,1413"/> 
            <glyph glyph-name="å" unicode="&#xE5;" horiz-adv-x="1145" d=" M874,0 L799,150 L791,150 Q712,52 630,16 Q548,-20 418,-20 Q258,-20 166,76 Q74,172 74,346 Q74,527 200,615.5 Q326,704 565,715 L754,721 L754,737 Q754,877 616,877 Q492,877 301,793 L188,1051 Q386,1153 688,1153 Q906,1153 1025.5,1045 Q1145,937 1145,743 L1145,0 M584,256 Q655,256 705.5,301 Q756,346 756,418 L756,506 L666,502 Q473,495 473,360 Q473,256 584,256 M925,1491 Q925,1378 849,1307.5 Q773,1237 653,1237 Q532,1237 460.5,1305.5 Q389,1374 389,1489 Q389,1605 460.5,1674 Q532,1743 653,1743 Q771,1743 848,1673 Q925,1603 925,1491 M737,1489 Q737,1527 712.5,1550 Q688,1573 653,1573 Q618,1573 593.5,1550 Q569,1527 569,1489 Q569,1452 590,1428.5 Q611,1405 653,1405 Q688,1405 712.5,1428.5 Q737,1452 737,1489"/> 
            <glyph glyph-name="æ" unicode="&#xE6;" horiz-adv-x="1829" d=" M1341,-20 Q1061,-20 911,170 Q831,87 769.5,49.5 Q708,12 631,-4 Q554,-20 434,-20 Q272,-20 173,81.5 Q74,183 74,352 Q74,697 571,715 L754,721 L754,739 Q754,877 618,877 Q480,877 305,797 L195,1053 Q385,1153 649,1153 Q850,1153 985,1059 Q1055,1108 1138,1130.5 Q1221,1153 1337,1153 Q1566,1153 1697.5,1016.5 Q1829,880 1829,633 L1829,461 L1133,461 Q1137,371 1207,314.5 Q1277,258 1393,258 Q1587,258 1757,344 L1757,63 Q1663,15 1566,-2.5 Q1469,-20 1341,-20 M756,506 L672,502 Q566,498 519.5,463.5 Q473,429 473,356 Q473,256 586,256 Q655,256 705.5,301 Q756,346 756,418 M1315,887 Q1153,887 1139,707 L1479,707 Q1477,789 1431,838 Q1385,887 1315,887"/> 
            <glyph glyph-name="ç" unicode="&#xE7;" horiz-adv-x="1053" d=" M651,-20 Q373,-20 229.5,130 Q86,280 86,561 Q86,843 241,998 Q396,1153 682,1153 Q879,1153 1053,1067 L938,778 Q867,809 807,827.5 Q747,846 682,846 Q587,846 535,772 Q483,698 483,563 Q483,291 684,291 Q856,291 1014,391 L1014,80 Q863,-20 651,-20 M848,-252 Q848,-361 773,-426.5 Q698,-492 574,-492 Q438,-492 361,-463 L361,-258 Q444,-285 508,-285 Q560,-285 560,-238 Q560,-205 519,-179.5 Q478,-154 412,-139 L484,0 L687,0 L678,-29 Q774,-68 811,-121.5 Q848,-175 848,-252"/> 
            <glyph glyph-name="è" unicode="&#xE8;" horiz-adv-x="1180" d=" M682,-20 Q399,-20 242.5,130.5 Q86,281 86,559 Q86,846 231,999.5 Q376,1153 645,1153 Q901,1153 1040.5,1019.5 Q1180,886 1180,635 L1180,461 L481,461 Q485,366 550.5,312 Q616,258 729,258 Q832,258 918.5,277.5 Q1005,297 1106,344 L1106,63 Q1014,16 916,-2 Q818,-20 682,-20 M659,887 Q590,887 543.5,843.5 Q497,800 489,707 L825,707 Q823,789 778.5,838 Q734,887 659,887 M877,1241 Q808,1285 673.5,1379.5 Q539,1474 445,1548 L445,1569 L875,1569 Q927,1499 1078,1336 L1137,1270 L1137,1241"/> 
            <glyph glyph-name="é" unicode="&#xE9;" horiz-adv-x="1180" d=" M682,-20 Q399,-20 242.5,130.5 Q86,281 86,559 Q86,846 231,999.5 Q376,1153 645,1153 Q901,1153 1040.5,1019.5 Q1180,886 1180,635 L1180,461 L481,461 Q485,366 550.5,312 Q616,258 729,258 Q832,258 918.5,277.5 Q1005,297 1106,344 L1106,63 Q1014,16 916,-2 Q818,-20 682,-20 M659,887 Q590,887 543.5,843.5 Q497,800 489,707 L825,707 Q823,789 778.5,838 Q734,887 659,887 M471,1241 L471,1270 Q625,1435 666.5,1483 Q708,1531 735,1569 L1163,1569 L1163,1548 Q1083,1484 943,1385 Q803,1286 731,1241"/> 
            <glyph glyph-name="ê" unicode="&#xEA;" horiz-adv-x="1180" d=" M682,-20 Q399,-20 242.5,130.5 Q86,281 86,559 Q86,846 231,999.5 Q376,1153 645,1153 Q901,1153 1040.5,1019.5 Q1180,886 1180,635 L1180,461 L481,461 Q485,366 550.5,312 Q616,258 729,258 Q832,258 918.5,277.5 Q1005,297 1106,344 L1106,63 Q1014,16 916,-2 Q818,-20 682,-20 M659,887 Q590,887 543.5,843.5 Q497,800 489,707 L825,707 Q823,789 778.5,838 Q734,887 659,887 M858,1241 Q774,1289 657,1391 Q532,1284 463,1241 L205,1241 L205,1270 Q274,1335 349.5,1423 Q425,1511 463,1569 L856,1569 Q950,1432 1112,1270 L1112,1241"/> 
            <glyph glyph-name="ë" unicode="&#xEB;" horiz-adv-x="1180" d=" M682,-20 Q399,-20 242.5,130.5 Q86,281 86,559 Q86,846 231,999.5 Q376,1153 645,1153 Q901,1153 1040.5,1019.5 Q1180,886 1180,635 L1180,461 L481,461 Q485,366 550.5,312 Q616,258 729,258 Q832,258 918.5,277.5 Q1005,297 1106,344 L1106,63 Q1014,16 916,-2 Q818,-20 682,-20 M659,887 Q590,887 543.5,843.5 Q497,800 489,707 L825,707 Q823,789 778.5,838 Q734,887 659,887 M252,1413 Q252,1488 298,1529.5 Q344,1571 422,1571 Q501,1571 547.5,1528.5 Q594,1486 594,1413 Q594,1342 547.5,1299.5 Q501,1257 422,1257 Q344,1257 298,1298 Q252,1339 252,1413 M731,1413 Q731,1488 777,1529.5 Q823,1571 903,1571 Q983,1571 1029.5,1528 Q1076,1485 1076,1413 Q1076,1342 1029.5,1299.5 Q983,1257 903,1257 Q822,1257 776.5,1298.5 Q731,1340 731,1413"/> 
            <glyph glyph-name="ì" unicode="&#xEC;" horiz-adv-x="562" d=" M528,0 L137,0 L137,1133 L528,1133 M65838,1241 Q65769,1285 65634.5,1379.5 Q65500,1474 65406,1548 L65406,1569 L65836,1569 Q65888,1499 66039,1336 L66098,1270 L66098,1241"/> 
            <glyph glyph-name="í" unicode="&#xED;" horiz-adv-x="799" d=" M528,0 L137,0 L137,1133 L528,1133 M65643,1241 L65643,1270 Q65797,1435 65838.5,1483 Q65880,1531 65907,1569 L66335,1569 L66335,1548 Q66255,1484 66115,1385 Q65975,1286 65903,1241"/> 
            <glyph glyph-name="î" unicode="&#xEE;" horiz-adv-x="787" d=" M528,0 L137,0 L137,1133 L528,1133 M66069,1241 Q65985,1289 65868,1391 Q65743,1284 65674,1241 L65416,1241 L65416,1270 Q65485,1335 65560.5,1423 Q65636,1511 65674,1569 L66067,1569 Q66161,1432 66323,1270 L66323,1241"/> 
            <glyph glyph-name="ï" unicode="&#xEF;" horiz-adv-x="763" d=" M528,0 L137,0 L137,1133 L528,1133 M65475,1413 Q65475,1488 65521,1529.5 Q65567,1571 65645,1571 Q65724,1571 65770.5,1528.5 Q65817,1486 65817,1413 Q65817,1342 65770.5,1299.5 Q65724,1257 65645,1257 Q65567,1257 65521,1298 Q65475,1339 65475,1413 M65954,1413 Q65954,1488 66000,1529.5 Q66046,1571 66126,1571 Q66206,1571 66252.5,1528 Q66299,1485 66299,1413 Q66299,1342 66252.5,1299.5 Q66206,1257 66126,1257 Q66045,1257 65999.5,1298.5 Q65954,1340 65954,1413"/> 
            <glyph glyph-name="ð" unicode="&#xF0;" horiz-adv-x="1217" d=" M1217,580 Q1217,305 1064.5,142.5 Q912,-20 649,-20 Q390,-20 239,119 Q88,258 88,498 Q88,737 218.5,875.5 Q349,1014 567,1014 Q759,1014 811,930 L819,934 Q752,1064 676,1141 L494,1022 L377,1206 L520,1298 L371,1391 L479,1573 Q653,1500 745,1438 L954,1575 L1069,1393 L924,1296 Q1083,1139 1150,968.5 Q1217,798 1217,580 M817,545 Q817,629 772,681 Q727,733 653,733 Q561,733 525,677 Q489,621 489,500 Q489,258 653,258 Q744,258 780.5,329 Q817,400 817,545"/> 
            <glyph glyph-name="ñ" unicode="&#xF1;" horiz-adv-x="1241" d=" M850,0 L850,618 Q850,731 817.5,788.5 Q785,846 713,846 Q614,846 570,767 Q526,688 526,496 L526,0 L135,0 L135,1133 L430,1133 L479,993 L502,993 Q552,1073 640.5,1113 Q729,1153 844,1153 Q1032,1153 1136.5,1044 Q1241,935 1241,737 L1241,0 M870,1239 Q825,1239 779.5,1254 Q734,1269 690,1287 Q646,1305 604.5,1320 Q563,1335 526,1335 Q472,1335 454,1237 L274,1237 Q285,1412 346,1495.5 Q407,1579 526,1579 Q564,1579 607,1564 Q650,1549 694,1531 Q738,1513 781,1498 Q824,1483 862,1483 Q891,1483 908,1508 Q925,1533 934,1581 L1116,1581 Q1105,1414 1042,1326.5 Q979,1239 870,1239"/> 
            <glyph glyph-name="ò" unicode="&#xF2;" horiz-adv-x="1217" d=" M1217,569 Q1217,291 1067.5,135.5 Q918,-20 649,-20 Q391,-20 238.5,139 Q86,298 86,569 Q86,846 235.5,999.5 Q385,1153 655,1153 Q822,1153 950,1082 Q1078,1011 1147.5,878.5 Q1217,746 1217,569 M483,569 Q483,423 522,346.5 Q561,270 653,270 Q744,270 781.5,346.5 Q819,423 819,569 Q819,714 781,788 Q743,862 651,862 Q561,862 522,788.5 Q483,715 483,569 M863,1241 Q794,1285 659.5,1379.5 Q525,1474 431,1548 L431,1569 L861,1569 Q913,1499 1064,1336 L1123,1270 L1123,1241"/> 
            <glyph glyph-name="ó" unicode="&#xF3;" horiz-adv-x="1217" d=" M1217,569 Q1217,291 1067.5,135.5 Q918,-20 649,-20 Q391,-20 238.5,139 Q86,298 86,569 Q86,846 235.5,999.5 Q385,1153 655,1153 Q822,1153 950,1082 Q1078,1011 1147.5,878.5 Q1217,746 1217,569 M483,569 Q483,423 522,346.5 Q561,270 653,270 Q744,270 781.5,346.5 Q819,423 819,569 Q819,714 781,788 Q743,862 651,862 Q561,862 522,788.5 Q483,715 483,569 M416,1241 L416,1270 Q570,1435 611.5,1483 Q653,1531 680,1569 L1108,1569 L1108,1548 Q1028,1484 888,1385 Q748,1286 676,1241"/> 
            <glyph glyph-name="ô" unicode="&#xF4;" horiz-adv-x="1217" d=" M1217,569 Q1217,291 1067.5,135.5 Q918,-20 649,-20 Q391,-20 238.5,139 Q86,298 86,569 Q86,846 235.5,999.5 Q385,1153 655,1153 Q822,1153 950,1082 Q1078,1011 1147.5,878.5 Q1217,746 1217,569 M483,569 Q483,423 522,346.5 Q561,270 653,270 Q744,270 781.5,346.5 Q819,423 819,569 Q819,714 781,788 Q743,862 651,862 Q561,862 522,788.5 Q483,715 483,569 M852,1241 Q768,1289 651,1391 Q526,1284 457,1241 L199,1241 L199,1270 Q268,1335 343.5,1423 Q419,1511 457,1569 L850,1569 Q944,1432 1106,1270 L1106,1241"/> 
            <glyph glyph-name="õ" unicode="&#xF5;" horiz-adv-x="1217" d=" M1217,569 Q1217,291 1067.5,135.5 Q918,-20 649,-20 Q391,-20 238.5,139 Q86,298 86,569 Q86,846 235.5,999.5 Q385,1153 655,1153 Q822,1153 950,1082 Q1078,1011 1147.5,878.5 Q1217,746 1217,569 M483,569 Q483,423 522,346.5 Q561,270 653,270 Q744,270 781.5,346.5 Q819,423 819,569 Q819,714 781,788 Q743,862 651,862 Q561,862 522,788.5 Q483,715 483,569 M827,1239 Q782,1239 736.5,1254 Q691,1269 647,1287 Q603,1305 561.5,1320 Q520,1335 483,1335 Q429,1335 411,1237 L231,1237 Q242,1412 303,1495.5 Q364,1579 483,1579 Q521,1579 564,1564 Q607,1549 651,1531 Q695,1513 738,1498 Q781,1483 819,1483 Q848,1483 865,1508 Q882,1533 891,1581 L1073,1581 Q1062,1414 999,1326.5 Q936,1239 827,1239"/> 
            <glyph glyph-name="ö" unicode="&#xF6;" horiz-adv-x="1217" d=" M1217,569 Q1217,291 1067.5,135.5 Q918,-20 649,-20 Q391,-20 238.5,139 Q86,298 86,569 Q86,846 235.5,999.5 Q385,1153 655,1153 Q822,1153 950,1082 Q1078,1011 1147.5,878.5 Q1217,746 1217,569 M483,569 Q483,423 522,346.5 Q561,270 653,270 Q744,270 781.5,346.5 Q819,423 819,569 Q819,714 781,788 Q743,862 651,862 Q561,862 522,788.5 Q483,715 483,569 M239,1413 Q239,1488 285,1529.5 Q331,1571 409,1571 Q488,1571 534.5,1528.5 Q581,1486 581,1413 Q581,1342 534.5,1299.5 Q488,1257 409,1257 Q331,1257 285,1298 Q239,1339 239,1413 M718,1413 Q718,1488 764,1529.5 Q810,1571 890,1571 Q970,1571 1016.5,1528 Q1063,1485 1063,1413 Q1063,1342 1016.5,1299.5 Q970,1257 890,1257 Q809,1257 763.5,1298.5 Q718,1340 718,1413"/> 
            <glyph glyph-name="÷" unicode="&#xF7;" horiz-adv-x="1085" d=" M72,588 L72,856 L1085,856 L1085,588 M422,332 Q422,414 461.5,458 Q501,502 578,502 Q653,502 694,458.5 Q735,415 735,332 Q735,252 691.5,207 Q648,162 578,162 Q507,162 464.5,206 Q422,250 422,332 M422,1112 Q422,1194 461.5,1238 Q501,1282 578,1282 Q653,1282 694,1238.5 Q735,1195 735,1112 Q735,1032 691.5,987 Q648,942 578,942 Q507,942 464.5,986 Q422,1030 422,1112"/> 
            <glyph glyph-name="ø" unicode="&#xF8;" horiz-adv-x="1274" d=" M274,113 Q86,271 86,569 Q86,846 243,999.5 Q400,1153 684,1153 Q809,1153 918,1114 L989,1225 L1157,1120 L1090,1016 Q1274,858 1274,569 Q1274,289 1117.5,134.5 Q961,-20 678,-20 Q553,-20 449,14 L365,-117 L195,-10 M461,569 Q461,470 473,422 L762,870 Q726,883 680,883 Q566,883 513.5,809 Q461,735 461,569 M899,569 Q899,655 889,700 L606,258 Q633,250 682,250 Q796,250 847.5,323 Q899,396 899,569"/> 
            <glyph glyph-name="ù" unicode="&#xF9;" horiz-adv-x="1237" d=" M942,0 L893,141 L870,141 Q821,63 733.5,21.5 Q646,-20 528,-20 Q341,-20 237,88.5 Q133,197 133,395 L133,1133 L524,1133 L524,514 Q524,403 555.5,346 Q587,289 659,289 Q760,289 803,368.5 Q846,448 846,637 L846,1133 L1237,1133 L1237,0 M863,1241 Q794,1285 659.5,1379.5 Q525,1474 431,1548 L431,1569 L861,1569 Q913,1499 1064,1336 L1123,1270 L1123,1241"/> 
            <glyph glyph-name="ú" unicode="&#xFA;" horiz-adv-x="1237" d=" M942,0 L893,141 L870,141 Q821,63 733.5,21.5 Q646,-20 528,-20 Q341,-20 237,88.5 Q133,197 133,395 L133,1133 L524,1133 L524,514 Q524,403 555.5,346 Q587,289 659,289 Q760,289 803,368.5 Q846,448 846,637 L846,1133 L1237,1133 L1237,0 M471,1241 L471,1270 Q625,1435 666.5,1483 Q708,1531 735,1569 L1163,1569 L1163,1548 Q1083,1484 943,1385 Q803,1286 731,1241"/> 
            <glyph glyph-name="û" unicode="&#xFB;" horiz-adv-x="1237" d=" M942,0 L893,141 L870,141 Q821,63 733.5,21.5 Q646,-20 528,-20 Q341,-20 237,88.5 Q133,197 133,395 L133,1133 L524,1133 L524,514 Q524,403 555.5,346 Q587,289 659,289 Q760,289 803,368.5 Q846,448 846,637 L846,1133 L1237,1133 L1237,0 M883,1241 Q799,1289 682,1391 Q557,1284 488,1241 L230,1241 L230,1270 Q299,1335 374.5,1423 Q450,1511 488,1569 L881,1569 Q975,1432 1137,1270 L1137,1241"/> 
            <glyph glyph-name="ü" unicode="&#xFC;" horiz-adv-x="1237" d=" M942,0 L893,141 L870,141 Q821,63 733.5,21.5 Q646,-20 528,-20 Q341,-20 237,88.5 Q133,197 133,395 L133,1133 L524,1133 L524,514 Q524,403 555.5,346 Q587,289 659,289 Q760,289 803,368.5 Q846,448 846,637 L846,1133 L1237,1133 L1237,0 M272,1413 Q272,1488 318,1529.5 Q364,1571 442,1571 Q521,1571 567.5,1528.5 Q614,1486 614,1413 Q614,1342 567.5,1299.5 Q521,1257 442,1257 Q364,1257 318,1298 Q272,1339 272,1413 M751,1413 Q751,1488 797,1529.5 Q843,1571 923,1571 Q1003,1571 1049.5,1528 Q1096,1485 1096,1413 Q1096,1342 1049.5,1299.5 Q1003,1257 923,1257 Q842,1257 796.5,1298.5 Q751,1340 751,1413"/> 
            <glyph glyph-name="ý" unicode="&#xFD;" horiz-adv-x="1249" d=" M-2,1133 L410,1133 L602,483 Q616,432 621,360 L629,360 Q637,429 653,481 L850,1133 L1249,1133 L801,-72 Q715,-302 589.5,-397 Q464,-492 262,-492 Q184,-492 102,-475 L102,-168 Q155,-180 223,-180 Q275,-180 314,-160 Q353,-140 382,-103.5 Q411,-67 444,16 M401,1241 L401,1270 Q555,1435 596.5,1483 Q638,1531 665,1569 L1093,1569 L1093,1548 Q1013,1484 873,1385 Q733,1286 661,1241"/> 
            <glyph glyph-name="þ" unicode="&#xFE;" horiz-adv-x="1229" d=" M526,987 Q569,1065 648,1109 Q727,1153 827,1153 Q1012,1153 1120.5,999 Q1229,845 1229,569 Q1229,298 1117.5,139 Q1006,-20 813,-20 Q640,-20 526,109 L512,109 L519,49 L526,-43 L526,-492 L135,-492 L135,1556 L526,1556 L526,1212 Q526,1106 508,987 M682,846 Q597,846 563,784.5 Q529,723 526,600 L526,571 Q526,425 565,360 Q604,295 688,295 Q768,295 799.5,365.5 Q831,436 831,573 Q831,707 798,776.5 Q765,846 682,846"/> 
            <glyph glyph-name="ÿ" unicode="&#xFF;" horiz-adv-x="1249" d=" M-2,1133 L410,1133 L602,483 Q616,432 621,360 L629,360 Q637,429 653,481 L850,1133 L1249,1133 L801,-72 Q715,-302 589.5,-397 Q464,-492 262,-492 Q184,-492 102,-475 L102,-168 Q155,-180 223,-180 Q275,-180 314,-160 Q353,-140 382,-103.5 Q411,-67 444,16 M472,1413 Q472,1488 518,1529.5 Q564,1571 642,1571 Q721,1571 767.5,1528.5 Q814,1486 814,1413 Q814,1342 767.5,1299.5 Q721,1257 642,1257 Q564,1257 518,1298 Q472,1339 472,1413 M951,1413 Q951,1488 997,1529.5 Q1043,1571 1123,1571 Q1203,1571 1249.5,1528 Q1296,1485 1296,1413 Q1296,1342 1249.5,1299.5 Q1203,1257 1123,1257 Q1042,1257 996.5,1298.5 Q951,1340 951,1413"/> 
            <glyph glyph-name="Ā" unicode="&#x100;" horiz-adv-x="1487" d=" M1055,0 L983,274 L508,274 L434,0 L0,0 L477,1468 L1004,1468 L1487,0 M901,598 L838,838 Q816,918 784.5,1045 Q753,1172 743,1227 Q734,1176 707.5,1059 Q681,942 590,598 M373,1815 L1100,1815 L1100,1579 L373,1579"/> 
            <glyph glyph-name="ā" unicode="&#x101;" horiz-adv-x="1145" d=" M874,0 L799,150 L791,150 Q712,52 630,16 Q548,-20 418,-20 Q258,-20 166,76 Q74,172 74,346 Q74,527 200,615.5 Q326,704 565,715 L754,721 L754,737 Q754,877 616,877 Q492,877 301,793 L188,1051 Q386,1153 688,1153 Q906,1153 1025.5,1045 Q1145,937 1145,743 L1145,0 M584,256 Q655,256 705.5,301 Q756,346 756,418 L756,506 L666,502 Q473,495 473,360 Q473,256 584,256 M287,1477 L1014,1477 L1014,1241 L287,1241"/> 
            <glyph glyph-name="Ă" unicode="&#x102;" horiz-adv-x="1487" d=" M1055,0 L983,274 L508,274 L434,0 L0,0 L477,1468 L1004,1468 L1487,0 M901,598 L838,838 Q816,918 784.5,1045 Q753,1172 743,1227 Q734,1176 707.5,1059 Q681,942 590,598 M1149,1950 Q1139,1779 1031,1679 Q923,1579 741,1579 Q554,1579 451.5,1674 Q349,1769 340,1950 L551,1950 Q571,1872 608.5,1845.5 Q646,1819 741,1819 Q822,1819 866.5,1850.5 Q911,1882 930,1950"/> 
            <glyph glyph-name="ă" unicode="&#x103;" horiz-adv-x="1145" d=" M874,0 L799,150 L791,150 Q712,52 630,16 Q548,-20 418,-20 Q258,-20 166,76 Q74,172 74,346 Q74,527 200,615.5 Q326,704 565,715 L754,721 L754,737 Q754,877 616,877 Q492,877 301,793 L188,1051 Q386,1153 688,1153 Q906,1153 1025.5,1045 Q1145,937 1145,743 L1145,0 M584,256 Q655,256 705.5,301 Q756,346 756,418 L756,506 L666,502 Q473,495 473,360 Q473,256 584,256 M1065,1612 Q1055,1441 947,1341 Q839,1241 657,1241 Q470,1241 367.5,1336 Q265,1431 256,1612 L467,1612 Q487,1534 524.5,1507.5 Q562,1481 657,1481 Q738,1481 782.5,1512.5 Q827,1544 846,1612"/> 
            <glyph glyph-name="Ą" unicode="&#x104;" horiz-adv-x="1487" d=" M1055,0 L983,274 L508,274 L434,0 L0,0 L477,1468 L1004,1468 L1487,0 M901,598 L838,838 Q816,918 784.5,1045 Q753,1172 743,1227 Q734,1176 707.5,1059 Q681,942 590,598 M1137,-199 Q1137,-266 1215,-266 Q1285,-266 1333,-244 L1333,-465 Q1250,-492 1159,-492 Q1037,-492 960,-427.5 Q883,-363 883,-260 Q883,-191 923,-128.5 Q963,-66 1057,0 L1270,0 Q1191,-74 1164,-117 Q1137,-160 1137,-199"/> 
            <glyph glyph-name="ą" unicode="&#x105;" horiz-adv-x="1151" d=" M874,0 L799,150 L791,150 Q712,52 630,16 Q548,-20 418,-20 Q258,-20 166,76 Q74,172 74,346 Q74,527 200,615.5 Q326,704 565,715 L754,721 L754,737 Q754,877 616,877 Q492,877 301,793 L188,1051 Q386,1153 688,1153 Q906,1153 1025.5,1045 Q1145,937 1145,743 L1145,0 M584,256 Q655,256 705.5,301 Q756,346 756,418 L756,506 L666,502 Q473,495 473,360 Q473,256 584,256 M955,-199 Q955,-266 1033,-266 Q1103,-266 1151,-244 L1151,-465 Q1068,-492 977,-492 Q855,-492 778,-427.5 Q701,-363 701,-260 Q701,-191 741,-128.5 Q781,-66 875,0 L1088,0 Q1009,-74 982,-117 Q955,-160 955,-199"/> 
            <glyph glyph-name="Ć" unicode="&#x106;" horiz-adv-x="1266" d=" M809,1159 Q668,1159 589,1043.5 Q510,928 510,725 Q510,303 831,303 Q928,303 1019,330 Q1110,357 1202,395 L1202,61 Q1019,-20 788,-20 Q457,-20 280.5,172 Q104,364 104,727 Q104,954 189.5,1126 Q275,1298 435.5,1390.5 Q596,1483 813,1483 Q1050,1483 1266,1380 L1145,1069 Q1064,1107 983,1133 Q902,1159 809,1159 M551,1579 L551,1608 Q705,1773 746.5,1821 Q788,1869 815,1907 L1243,1907 L1243,1886 Q1163,1822 1023,1723 Q883,1624 811,1579"/> 
            <glyph glyph-name="ć" unicode="&#x107;" horiz-adv-x="1114" d=" M651,-20 Q373,-20 229.5,130 Q86,280 86,561 Q86,843 241,998 Q396,1153 682,1153 Q879,1153 1053,1067 L938,778 Q867,809 807,827.5 Q747,846 682,846 Q587,846 535,772 Q483,698 483,563 Q483,291 684,291 Q856,291 1014,391 L1014,80 Q863,-20 651,-20 M422,1241 L422,1270 Q576,1435 617.5,1483 Q659,1531 686,1569 L1114,1569 L1114,1548 Q1034,1484 894,1385 Q754,1286 682,1241"/> 
            <glyph glyph-name="Ĉ" unicode="&#x108;" horiz-adv-x="1266" d=" M809,1159 Q668,1159 589,1043.5 Q510,928 510,725 Q510,303 831,303 Q928,303 1019,330 Q1110,357 1202,395 L1202,61 Q1019,-20 788,-20 Q457,-20 280.5,172 Q104,364 104,727 Q104,954 189.5,1126 Q275,1298 435.5,1390.5 Q596,1483 813,1483 Q1050,1483 1266,1380 L1145,1069 Q1064,1107 983,1133 Q902,1159 809,1159 M987,1579 Q903,1627 786,1729 Q661,1622 592,1579 L334,1579 L334,1608 Q403,1673 478.5,1761 Q554,1849 592,1907 L985,1907 Q1079,1770 1241,1608 L1241,1579"/> 
            <glyph glyph-name="ĉ" unicode="&#x109;" horiz-adv-x="1073" d=" M651,-20 Q373,-20 229.5,130 Q86,280 86,561 Q86,843 241,998 Q396,1153 682,1153 Q879,1153 1053,1067 L938,778 Q867,809 807,827.5 Q747,846 682,846 Q587,846 535,772 Q483,698 483,563 Q483,291 684,291 Q856,291 1014,391 L1014,80 Q863,-20 651,-20 M819,1241 Q735,1289 618,1391 Q493,1284 424,1241 L166,1241 L166,1270 Q235,1335 310.5,1423 Q386,1511 424,1569 L817,1569 Q911,1432 1073,1270 L1073,1241"/> 
            <glyph glyph-name="Ċ" unicode="&#x10A;" horiz-adv-x="1266" d=" M809,1159 Q668,1159 589,1043.5 Q510,928 510,725 Q510,303 831,303 Q928,303 1019,330 Q1110,357 1202,395 L1202,61 Q1019,-20 788,-20 Q457,-20 280.5,172 Q104,364 104,727 Q104,954 189.5,1126 Q275,1298 435.5,1390.5 Q596,1483 813,1483 Q1050,1483 1266,1380 L1145,1069 Q1064,1107 983,1133 Q902,1159 809,1159 M561,1753 Q561,1841 610,1884 Q659,1927 768,1927 Q877,1927 927,1883 Q977,1839 977,1753 Q977,1581 768,1581 Q561,1581 561,1753"/> 
            <glyph glyph-name="ċ" unicode="&#x10B;" horiz-adv-x="1053" d=" M651,-20 Q373,-20 229.5,130 Q86,280 86,561 Q86,843 241,998 Q396,1153 682,1153 Q879,1153 1053,1067 L938,778 Q867,809 807,827.5 Q747,846 682,846 Q587,846 535,772 Q483,698 483,563 Q483,291 684,291 Q856,291 1014,391 L1014,80 Q863,-20 651,-20 M434,1415 Q434,1503 483,1546 Q532,1589 641,1589 Q750,1589 800,1545 Q850,1501 850,1415 Q850,1243 641,1243 Q434,1243 434,1415"/> 
            <glyph glyph-name="Č" unicode="&#x10C;" horiz-adv-x="1266" d=" M809,1159 Q668,1159 589,1043.5 Q510,928 510,725 Q510,303 831,303 Q928,303 1019,330 Q1110,357 1202,395 L1202,61 Q1019,-20 788,-20 Q457,-20 280.5,172 Q104,364 104,727 Q104,954 189.5,1126 Q275,1298 435.5,1390.5 Q596,1483 813,1483 Q1050,1483 1266,1380 L1145,1069 Q1064,1107 983,1133 Q902,1159 809,1159 M1233,1907 L1233,1878 Q1167,1812 1094,1728 Q1021,1644 977,1579 L584,1579 Q545,1639 473.5,1721.5 Q402,1804 326,1878 L326,1907 L584,1907 Q653,1864 778,1757 Q895,1859 979,1907"/> 
            <glyph glyph-name="č" unicode="&#x10D;" horiz-adv-x="1083" d=" M651,-20 Q373,-20 229.5,130 Q86,280 86,561 Q86,843 241,998 Q396,1153 682,1153 Q879,1153 1053,1067 L938,778 Q867,809 807,827.5 Q747,846 682,846 Q587,846 535,772 Q483,698 483,563 Q483,291 684,291 Q856,291 1014,391 L1014,80 Q863,-20 651,-20 M1083,1569 L1083,1540 Q1017,1474 944,1390 Q871,1306 827,1241 L434,1241 Q395,1301 323.5,1383.5 Q252,1466 176,1540 L176,1569 L434,1569 Q503,1526 628,1419 Q745,1521 829,1569"/> 
            <glyph glyph-name="Ď" unicode="&#x10E;" horiz-adv-x="1399" d=" M1399,762 Q1399,396 1197.5,198 Q996,0 631,0 L158,0 L158,1462 L664,1462 Q1016,1462 1207.5,1282 Q1399,1102 1399,762 M989,748 Q989,949 909.5,1046 Q830,1143 668,1143 L553,1143 L553,324 L641,324 Q821,324 905,428.5 Q989,533 989,748 M1182,1907 L1182,1878 Q1116,1812 1043,1728 Q970,1644 926,1579 L533,1579 Q494,1639 422.5,1721.5 Q351,1804 275,1878 L275,1907 L533,1907 Q602,1864 727,1757 Q844,1859 928,1907"/> 
            <glyph glyph-name="ď" unicode="&#x10F;" horiz-adv-x="1678" d=" M487,-20 Q366,-20 275.5,49 Q185,118 135.5,252 Q86,386 86,565 Q86,841 197,997 Q308,1153 502,1153 Q597,1153 668.5,1115 Q740,1077 799,987 L807,987 Q788,1120 788,1253 L788,1556 L1182,1556 L1182,0 L887,0 L803,143 L788,143 Q687,-20 487,-20 M647,289 Q741,289 779.5,348 Q818,407 821,530 L821,561 Q821,711 778,774.5 Q735,838 643,838 Q566,838 523.5,765.5 Q481,693 481,559 Q481,427 524,358 Q567,289 647,289 M1266,1257 Q1309,1442 1323,1556 L1678,1556 L1678,1534 Q1534,1285 1499,1229 L1266,1229"/> 
            <glyph glyph-name="Đ" unicode="&#x110;" horiz-adv-x="1399" d=" M1399,762 Q1399,396 1197.5,198 Q996,0 631,0 L158,0 L158,563 L31,563 L31,883 L158,883 L158,1462 L664,1462 Q1016,1462 1207.5,1282 Q1399,1102 1399,762 M989,748 Q989,949 909.5,1046 Q830,1143 668,1143 L553,1143 L553,883 L764,883 L764,563 L553,563 L553,324 L641,324 Q821,324 905,428.5 Q989,533 989,748"/> 
            <glyph glyph-name="đ" unicode="&#x111;" horiz-adv-x="1337" d=" M471,-20 Q293,-20 189.5,124.5 Q86,269 86,514 Q86,770 197,911.5 Q308,1053 508,1053 Q705,1053 811,889 L819,889 Q807,936 797.5,1010 Q788,1084 788,1157 L788,1167 L557,1167 L557,1409 L788,1409 L788,1556 L1182,1556 L1182,1409 L1337,1409 L1337,1167 L1182,1167 L1182,0 L862,0 L774,143 L760,143 Q655,-20 471,-20 M668,289 Q752,289 785,338 Q818,387 821,487 L821,512 Q821,621 777.5,679 Q734,737 662,737 Q518,737 518,510 Q518,407 559,348 Q600,289 668,289"/> 
            <glyph glyph-name="Ē" unicode="&#x112;" horiz-adv-x="1026" d=" M1026,0 L158,0 L158,1462 L1026,1462 L1026,1145 L553,1145 L553,915 L991,915 L991,598 L553,598 L553,322 L1026,322 M65763,1815 L66490,1815 L66490,1579 L65763,1579"/> 
            <glyph glyph-name="ē" unicode="&#x113;" horiz-adv-x="1180" d=" M682,-20 Q399,-20 242.5,130.5 Q86,281 86,559 Q86,846 231,999.5 Q376,1153 645,1153 Q901,1153 1040.5,1019.5 Q1180,886 1180,635 L1180,461 L481,461 Q485,366 550.5,312 Q616,258 729,258 Q832,258 918.5,277.5 Q1005,297 1106,344 L1106,63 Q1014,16 916,-2 Q818,-20 682,-20 M659,887 Q590,887 543.5,843.5 Q497,800 489,707 L825,707 Q823,789 778.5,838 Q734,887 659,887 M262,1477 L989,1477 L989,1241 L262,1241"/> 
            <glyph glyph-name="Ĕ" unicode="&#x114;" horiz-adv-x="1026" d=" M1026,0 L158,0 L158,1462 L1026,1462 L1026,1145 L553,1145 L553,915 L991,915 L991,598 L553,598 L553,322 L1026,322 M66514,1950 Q66504,1779 66396,1679 Q66288,1579 66106,1579 Q65919,1579 65816.5,1674 Q65714,1769 65705,1950 L65916,1950 Q65936,1872 65973.5,1845.5 Q66011,1819 66106,1819 Q66187,1819 66231.5,1850.5 Q66276,1882 66295,1950"/> 
            <glyph glyph-name="ĕ" unicode="&#x115;" horiz-adv-x="1180" d=" M682,-20 Q399,-20 242.5,130.5 Q86,281 86,559 Q86,846 231,999.5 Q376,1153 645,1153 Q901,1153 1040.5,1019.5 Q1180,886 1180,635 L1180,461 L481,461 Q485,366 550.5,312 Q616,258 729,258 Q832,258 918.5,277.5 Q1005,297 1106,344 L1106,63 Q1014,16 916,-2 Q818,-20 682,-20 M659,887 Q590,887 543.5,843.5 Q497,800 489,707 L825,707 Q823,789 778.5,838 Q734,887 659,887 M1049,1612 Q1039,1441 931,1341 Q823,1241 641,1241 Q454,1241 351.5,1336 Q249,1431 240,1612 L451,1612 Q471,1534 508.5,1507.5 Q546,1481 641,1481 Q722,1481 766.5,1512.5 Q811,1544 830,1612"/> 
            <glyph glyph-name="Ė" unicode="&#x116;" horiz-adv-x="1026" d=" M1026,0 L158,0 L158,1462 L1026,1462 L1026,1145 L553,1145 L553,915 L991,915 L991,598 L553,598 L553,322 L1026,322 M387,1724 Q387,1812 436,1855 Q485,1898 594,1898 Q703,1898 753,1854 Q803,1810 803,1724 Q803,1552 594,1552 Q387,1552 387,1724"/> 
            <glyph glyph-name="ė" unicode="&#x117;" horiz-adv-x="1180" d=" M682,-20 Q399,-20 242.5,130.5 Q86,281 86,559 Q86,846 231,999.5 Q376,1153 645,1153 Q901,1153 1040.5,1019.5 Q1180,886 1180,635 L1180,461 L481,461 Q485,366 550.5,312 Q616,258 729,258 Q832,258 918.5,277.5 Q1005,297 1106,344 L1106,63 Q1014,16 916,-2 Q818,-20 682,-20 M659,887 Q590,887 543.5,843.5 Q497,800 489,707 L825,707 Q823,789 778.5,838 Q734,887 659,887 M455,1415 Q455,1503 504,1546 Q553,1589 662,1589 Q771,1589 821,1545 Q871,1501 871,1415 Q871,1243 662,1243 Q455,1243 455,1415"/> 
            <glyph glyph-name="Ę" unicode="&#x118;" horiz-adv-x="1026" d=" M1026,0 L158,0 L158,1462 L1026,1462 L1026,1145 L553,1145 L553,915 L991,915 L991,598 L553,598 L553,322 L1026,322 M758,-199 Q758,-266 836,-266 Q906,-266 954,-244 L954,-465 Q871,-492 780,-492 Q658,-492 581,-427.5 Q504,-363 504,-260 Q504,-191 544,-128.5 Q584,-66 678,0 L891,0 Q812,-74 785,-117 Q758,-160 758,-199"/> 
            <glyph glyph-name="ę" unicode="&#x119;" horiz-adv-x="1180" d=" M682,-20 Q399,-20 242.5,130.5 Q86,281 86,559 Q86,846 231,999.5 Q376,1153 645,1153 Q901,1153 1040.5,1019.5 Q1180,886 1180,635 L1180,461 L481,461 Q485,366 550.5,312 Q616,258 729,258 Q832,258 918.5,277.5 Q1005,297 1106,344 L1106,63 Q1014,16 916,-2 Q818,-20 682,-20 M659,887 Q590,887 543.5,843.5 Q497,800 489,707 L825,707 Q823,789 778.5,838 Q734,887 659,887 M785,-199 Q785,-266 863,-266 Q933,-266 981,-244 L981,-465 Q898,-492 807,-492 Q685,-492 608,-427.5 Q531,-363 531,-260 Q531,-191 571,-128.5 Q611,-66 705,0 L918,0 Q839,-74 812,-117 Q785,-160 785,-199"/> 
            <glyph glyph-name="Ě" unicode="&#x11A;" horiz-adv-x="1043" d=" M1026,0 L158,0 L158,1462 L1026,1462 L1026,1145 L553,1145 L553,915 L991,915 L991,598 L553,598 L553,322 L1026,322 M66579,1907 L66579,1878 Q66513,1812 66440,1728 Q66367,1644 66323,1579 L65930,1579 Q65891,1639 65819.5,1721.5 Q65748,1804 65672,1878 L65672,1907 L65930,1907 Q65999,1864 66124,1757 Q66241,1859 66325,1907"/> 
            <glyph glyph-name="ě" unicode="&#x11B;" horiz-adv-x="1180" d=" M682,-20 Q399,-20 242.5,130.5 Q86,281 86,559 Q86,846 231,999.5 Q376,1153 645,1153 Q901,1153 1040.5,1019.5 Q1180,886 1180,635 L1180,461 L481,461 Q485,366 550.5,312 Q616,258 729,258 Q832,258 918.5,277.5 Q1005,297 1106,344 L1106,63 Q1014,16 916,-2 Q818,-20 682,-20 M659,887 Q590,887 543.5,843.5 Q497,800 489,707 L825,707 Q823,789 778.5,838 Q734,887 659,887 M1100,1569 L1100,1540 Q1034,1474 961,1390 Q888,1306 844,1241 L451,1241 Q412,1301 340.5,1383.5 Q269,1466 193,1540 L193,1569 L451,1569 Q520,1526 645,1419 Q762,1521 846,1569"/> 
            <glyph glyph-name="Ĝ" unicode="&#x11C;" horiz-adv-x="1376" d=" M745,856 L1376,856 L1376,68 Q1119,-20 811,-20 Q473,-20 288.5,176 Q104,372 104,735 Q104,1089 306,1286 Q508,1483 872,1483 Q1010,1483 1132.5,1457 Q1255,1431 1346,1391 L1221,1081 Q1063,1159 874,1159 Q701,1159 606.5,1046.5 Q512,934 512,725 Q512,520 597.5,412.5 Q683,305 844,305 Q932,305 1006,322 L1006,551 L745,551 M973,1579 Q889,1627 772,1729 Q647,1622 578,1579 L320,1579 L320,1608 Q389,1673 464.5,1761 Q540,1849 578,1907 L971,1907 Q1065,1770 1227,1608 L1227,1579"/> 
            <glyph glyph-name="ĝ" unicode="&#x11D;" horiz-adv-x="1204" d=" M1204,1133 L1204,944 L1049,887 Q1081,829 1081,752 Q1081,569 952.5,468 Q824,367 569,367 Q506,367 469,375 Q455,349 455,326 Q455,297 502,281.5 Q549,266 625,266 L813,266 Q1194,266 1194,-55 Q1194,-262 1017.5,-377 Q841,-492 522,-492 Q281,-492 150.5,-411.5 Q20,-331 20,-180 Q20,23 272,82 Q220,104 181.5,153 Q143,202 143,250 Q143,303 172,343.5 Q201,384 293,440 Q205,479 154.5,562 Q104,645 104,764 Q104,949 230,1051 Q356,1153 590,1153 Q621,1153 697,1146 Q773,1139 809,1133 M350,-141 Q350,-189 402,-218.5 Q454,-248 541,-248 Q683,-248 768.5,-212.5 Q854,-177 854,-121 Q854,-76 802,-57.5 Q750,-39 653,-39 L500,-39 Q437,-39 393.5,-68.5 Q350,-98 350,-141 M473,762 Q473,588 594,588 Q650,588 680.5,631 Q711,674 711,760 Q711,936 594,936 Q473,936 473,762 M817,1241 Q733,1289 616,1391 Q491,1284 422,1241 L164,1241 L164,1270 Q233,1335 308.5,1423 Q384,1511 422,1569 L815,1569 Q909,1432 1071,1270 L1071,1241"/> 
            <glyph glyph-name="Ğ" unicode="&#x11E;" horiz-adv-x="1376" d=" M745,856 L1376,856 L1376,68 Q1119,-20 811,-20 Q473,-20 288.5,176 Q104,372 104,735 Q104,1089 306,1286 Q508,1483 872,1483 Q1010,1483 1132.5,1457 Q1255,1431 1346,1391 L1221,1081 Q1063,1159 874,1159 Q701,1159 606.5,1046.5 Q512,934 512,725 Q512,520 597.5,412.5 Q683,305 844,305 Q932,305 1006,322 L1006,551 L745,551 M1176,1950 Q1166,1779 1058,1679 Q950,1579 768,1579 Q581,1579 478.5,1674 Q376,1769 367,1950 L578,1950 Q598,1872 635.5,1845.5 Q673,1819 768,1819 Q849,1819 893.5,1850.5 Q938,1882 957,1950"/> 
            <glyph glyph-name="ğ" unicode="&#x11F;" horiz-adv-x="1204" d=" M1204,1133 L1204,944 L1049,887 Q1081,829 1081,752 Q1081,569 952.5,468 Q824,367 569,367 Q506,367 469,375 Q455,349 455,326 Q455,297 502,281.5 Q549,266 625,266 L813,266 Q1194,266 1194,-55 Q1194,-262 1017.5,-377 Q841,-492 522,-492 Q281,-492 150.5,-411.5 Q20,-331 20,-180 Q20,23 272,82 Q220,104 181.5,153 Q143,202 143,250 Q143,303 172,343.5 Q201,384 293,440 Q205,479 154.5,562 Q104,645 104,764 Q104,949 230,1051 Q356,1153 590,1153 Q621,1153 697,1146 Q773,1139 809,1133 M350,-141 Q350,-189 402,-218.5 Q454,-248 541,-248 Q683,-248 768.5,-212.5 Q854,-177 854,-121 Q854,-76 802,-57.5 Q750,-39 653,-39 L500,-39 Q437,-39 393.5,-68.5 Q350,-98 350,-141 M473,762 Q473,588 594,588 Q650,588 680.5,631 Q711,674 711,760 Q711,936 594,936 Q473,936 473,762 M1030,1612 Q1020,1441 912,1341 Q804,1241 622,1241 Q435,1241 332.5,1336 Q230,1431 221,1612 L432,1612 Q452,1534 489.5,1507.5 Q527,1481 622,1481 Q703,1481 747.5,1512.5 Q792,1544 811,1612"/> 
            <glyph glyph-name="Ġ" unicode="&#x120;" horiz-adv-x="1376" d=" M745,856 L1376,856 L1376,68 Q1119,-20 811,-20 Q473,-20 288.5,176 Q104,372 104,735 Q104,1089 306,1286 Q508,1483 872,1483 Q1010,1483 1132.5,1457 Q1255,1431 1346,1391 L1221,1081 Q1063,1159 874,1159 Q701,1159 606.5,1046.5 Q512,934 512,725 Q512,520 597.5,412.5 Q683,305 844,305 Q932,305 1006,322 L1006,551 L745,551 M571,1753 Q571,1841 620,1884 Q669,1927 778,1927 Q887,1927 937,1883 Q987,1839 987,1753 Q987,1581 778,1581 Q571,1581 571,1753"/> 
            <glyph glyph-name="ġ" unicode="&#x121;" horiz-adv-x="1204" d=" M1204,1133 L1204,944 L1049,887 Q1081,829 1081,752 Q1081,569 952.5,468 Q824,367 569,367 Q506,367 469,375 Q455,349 455,326 Q455,297 502,281.5 Q549,266 625,266 L813,266 Q1194,266 1194,-55 Q1194,-262 1017.5,-377 Q841,-492 522,-492 Q281,-492 150.5,-411.5 Q20,-331 20,-180 Q20,23 272,82 Q220,104 181.5,153 Q143,202 143,250 Q143,303 172,343.5 Q201,384 293,440 Q205,479 154.5,562 Q104,645 104,764 Q104,949 230,1051 Q356,1153 590,1153 Q621,1153 697,1146 Q773,1139 809,1133 M350,-141 Q350,-189 402,-218.5 Q454,-248 541,-248 Q683,-248 768.5,-212.5 Q854,-177 854,-121 Q854,-76 802,-57.5 Q750,-39 653,-39 L500,-39 Q437,-39 393.5,-68.5 Q350,-98 350,-141 M473,762 Q473,588 594,588 Q650,588 680.5,631 Q711,674 711,760 Q711,936 594,936 Q473,936 473,762 M401,1415 Q401,1503 450,1546 Q499,1589 608,1589 Q717,1589 767,1545 Q817,1501 817,1415 Q817,1243 608,1243 Q401,1243 401,1415"/> 
            <glyph glyph-name="Ģ" unicode="&#x122;" horiz-adv-x="1376" d=" M745,856 L1376,856 L1376,68 Q1119,-20 811,-20 Q473,-20 288.5,176 Q104,372 104,735 Q104,1089 306,1286 Q508,1483 872,1483 Q1010,1483 1132.5,1457 Q1255,1431 1346,1391 L1221,1081 Q1063,1159 874,1159 Q701,1159 606.5,1046.5 Q512,934 512,725 Q512,520 597.5,412.5 Q683,305 844,305 Q932,305 1006,322 L1006,551 L745,551 M596,-424 Q612,-368 626.5,-278 Q641,-188 643,-125 L998,-125 L998,-147 Q927,-312 830,-453 L596,-453"/> 
            <glyph glyph-name="ģ" unicode="&#x123;" horiz-adv-x="1204" d=" M1204,1133 L1204,944 L1049,887 Q1081,829 1081,752 Q1081,569 952.5,468 Q824,367 569,367 Q506,367 469,375 Q455,349 455,326 Q455,297 502,281.5 Q549,266 625,266 L813,266 Q1194,266 1194,-55 Q1194,-262 1017.5,-377 Q841,-492 522,-492 Q281,-492 150.5,-411.5 Q20,-331 20,-180 Q20,23 272,82 Q220,104 181.5,153 Q143,202 143,250 Q143,303 172,343.5 Q201,384 293,440 Q205,479 154.5,562 Q104,645 104,764 Q104,949 230,1051 Q356,1153 590,1153 Q621,1153 697,1146 Q773,1139 809,1133 M350,-141 Q350,-189 402,-218.5 Q454,-248 541,-248 Q683,-248 768.5,-212.5 Q854,-177 854,-121 Q854,-76 802,-57.5 Q750,-39 653,-39 L500,-39 Q437,-39 393.5,-68.5 Q350,-98 350,-141 M473,762 Q473,588 594,588 Q650,588 680.5,631 Q711,674 711,760 Q711,936 594,936 Q473,936 473,762 M821,1540 Q786,1356 776,1241 L419,1241 L419,1264 L589,1569 L821,1569"/> 
            <glyph glyph-name="Ĥ" unicode="&#x124;" horiz-adv-x="1411" d=" M1411,0 L1014,0 L1014,596 L555,596 L555,0 L158,0 L158,1462 L555,1462 L555,920 L1014,920 L1014,1462 L1411,1462 M979,1579 Q895,1627 778,1729 Q653,1622 584,1579 L326,1579 L326,1608 Q395,1673 470.5,1761 Q546,1849 584,1907 L977,1907 Q1071,1770 1233,1608 L1233,1579"/> 
            <glyph glyph-name="ĥ" unicode="&#x125;" horiz-adv-x="1241" d=" M848,0 L848,618 Q848,846 713,846 Q617,846 571.5,765.5 Q526,685 526,498 L526,0 L135,0 L135,1556 L526,1556 L526,1335 Q526,1185 510,993 L528,993 Q584,1081 661,1117 Q738,1153 840,1153 Q1030,1153 1135.5,1043.5 Q1241,934 1241,737 L1241,0 M883,1634 Q799,1682 682,1784 Q557,1677 488,1634 L230,1634 L230,1663 Q299,1728 374.5,1816 Q450,1904 488,1962 L881,1962 Q975,1825 1137,1663 L1137,1634"/> 
            <glyph glyph-name="Ħ" unicode="&#x126;" horiz-adv-x="1602" d=" M174,1300 L174,1462 L569,1462 L569,1300 L1030,1300 L1030,1462 L1427,1462 L1427,1300 L1602,1300 L1602,1067 L1427,1067 L1427,0 L1030,0 L1030,596 L569,596 L569,0 L174,0 L174,1067 L0,1067 L0,1300 M1030,920 L1030,1067 L569,1067 L569,920"/> 
            <glyph glyph-name="ħ" unicode="&#x127;" horiz-adv-x="1262" d=" M156,1167 L0,1167 L0,1409 L156,1409 L156,1556 L547,1556 L547,1409 L780,1409 L780,1167 L545,1167 L545,1126 Q545,1089 540,1012 Q535,935 530,893 L553,893 Q608,979 683.5,1016 Q759,1053 862,1053 Q1051,1053 1156.5,944 Q1262,835 1262,639 L1262,0 L868,0 L868,518 Q868,745 733,745 Q637,745 592,664 Q547,583 547,395 L547,0 L156,0"/> 
            <glyph glyph-name="Ĩ" unicode="&#x128;" horiz-adv-x="779" d=" M158,0 L158,1462 L555,1462 L555,0 M66069,1577 Q66024,1577 65978.5,1592 Q65933,1607 65889,1625 Q65845,1643 65803.5,1658 Q65762,1673 65725,1673 Q65671,1673 65653,1575 L65473,1575 Q65484,1750 65545,1833.5 Q65606,1917 65725,1917 Q65763,1917 65806,1902 Q65849,1887 65893,1869 Q65937,1851 65980,1836 Q66023,1821 66061,1821 Q66090,1821 66107,1846 Q66124,1871 66133,1919 L66315,1919 Q66304,1752 66241,1664.5 Q66178,1577 66069,1577"/> 
            <glyph glyph-name="ĩ" unicode="&#x129;" horiz-adv-x="757" d=" M528,0 L137,0 L137,1133 L528,1133 M66047,1239 Q66002,1239 65956.5,1254 Q65911,1269 65867,1287 Q65823,1305 65781.5,1320 Q65740,1335 65703,1335 Q65649,1335 65631,1237 L65451,1237 Q65462,1412 65523,1495.5 Q65584,1579 65703,1579 Q65741,1579 65784,1564 Q65827,1549 65871,1531 Q65915,1513 65958,1498 Q66001,1483 66039,1483 Q66068,1483 66085,1508 Q66102,1533 66111,1581 L66293,1581 Q66282,1414 66219,1326.5 Q66156,1239 66047,1239"/> 
            <glyph glyph-name="Ī" unicode="&#x12A;" horiz-adv-x="724" d=" M158,0 L158,1462 L555,1462 L555,0 M65533,1815 L66260,1815 L66260,1579 L65533,1579"/> 
            <glyph glyph-name="ī" unicode="&#x12B;" horiz-adv-x="700" d=" M528,0 L137,0 L137,1133 L528,1133 M65509,1477 L66236,1477 L66236,1241 L65509,1241"/> 
            <glyph glyph-name="Ĭ" unicode="&#x12C;" horiz-adv-x="765" d=" M158,0 L158,1462 L555,1462 L555,0 M66301,1950 Q66291,1779 66183,1679 Q66075,1579 65893,1579 Q65706,1579 65603.5,1674 Q65501,1769 65492,1950 L65703,1950 Q65723,1872 65760.5,1845.5 Q65798,1819 65893,1819 Q65974,1819 66018.5,1850.5 Q66063,1882 66082,1950"/> 
            <glyph glyph-name="ĭ" unicode="&#x12D;" horiz-adv-x="738" d=" M528,0 L137,0 L137,1133 L528,1133 M66274,1612 Q66264,1441 66156,1341 Q66048,1241 65866,1241 Q65679,1241 65576.5,1336 Q65474,1431 65465,1612 L65676,1612 Q65696,1534 65733.5,1507.5 Q65771,1481 65866,1481 Q65947,1481 65991.5,1512.5 Q66036,1544 66055,1612"/> 
            <glyph glyph-name="Į" unicode="&#x12E;" horiz-adv-x="555" d=" M158,0 L158,1462 L555,1462 L555,0 M342,-199 Q342,-266 420,-266 Q490,-266 538,-244 L538,-465 Q455,-492 364,-492 Q242,-492 165,-427.5 Q88,-363 88,-260 Q88,-191 128,-128.5 Q168,-66 262,0 L475,0 Q396,-74 369,-117 Q342,-160 342,-199"/> 
            <glyph glyph-name="į" unicode="&#x12F;" horiz-adv-x="544" d=" M528,0 L137,0 L137,1133 L528,1133 M127,1415 Q127,1503 176,1546 Q225,1589 334,1589 Q443,1589 493,1545 Q543,1501 543,1415 Q543,1243 334,1243 Q127,1243 127,1415 M348,-199 Q348,-266 426,-266 Q496,-266 544,-244 L544,-465 Q461,-492 370,-492 Q248,-492 171,-427.5 Q94,-363 94,-260 Q94,-191 134,-128.5 Q174,-66 268,0 L481,0 Q402,-74 375,-117 Q348,-160 348,-199"/> 
            <glyph glyph-name="İ" unicode="&#x130;" horiz-adv-x="563" d=" M158,0 L158,1462 L555,1462 L555,0 M147,1753 Q147,1841 196,1884 Q245,1927 354,1927 Q463,1927 513,1883 Q563,1839 563,1753 Q563,1581 354,1581 Q147,1581 147,1753"/> 
            <glyph glyph-name="ı" unicode="&#x131;" horiz-adv-x="528" d=" M528,0 L137,0 L137,1133 L528,1133"/> 
            <glyph glyph-name="Ĳ" unicode="&#x132;" horiz-adv-x="1276" d=" M158,0 L158,1462 L555,1462 L555,0 M756,-459 Q648,-459 551,-438 L551,-131 Q583,-137 619,-144.5 Q655,-152 697,-152 Q795,-152 837,-93 Q879,-34 879,109 L879,1462 L1276,1462 L1276,143 Q1276,-154 1146,-306.5 Q1016,-459 756,-459"/> 
            <glyph glyph-name="ĳ" unicode="&#x133;" horiz-adv-x="1172" d=" M528,0 L137,0 L137,1133 L528,1133 M127,1415 Q127,1503 176,1546 Q225,1589 334,1589 Q443,1589 493,1545 Q543,1501 543,1415 Q543,1243 334,1243 Q127,1243 127,1415 M737,-492 Q689,-492 626.5,-484.5 Q564,-477 527,-467 L527,-162 Q591,-180 647,-180 Q766,-180 766,-10 L766,1133 L1157,1133 L1157,-92 Q1157,-279 1047.5,-385.5 Q938,-492 737,-492 M756,1415 Q756,1503 805,1546 Q854,1589 963,1589 Q1072,1589 1122,1545 Q1172,1501 1172,1415 Q1172,1243 963,1243 Q756,1243 756,1415"/> 
            <glyph glyph-name="Ĵ" unicode="&#x134;" horiz-adv-x="826" d=" M43,-459 Q-65,-459 -162,-438 L-162,-131 Q-130,-137 -94,-144.5 Q-58,-152 -16,-152 Q82,-152 124,-93 Q166,-34 166,109 L166,1462 L563,1462 L563,143 Q563,-154 433,-306.5 Q303,-459 43,-459 M66108,1579 Q66024,1627 65907,1729 Q65782,1622 65713,1579 L65455,1579 L65455,1608 Q65524,1673 65599.5,1761 Q65675,1849 65713,1907 L66106,1907 Q66200,1770 66362,1608 L66362,1579"/> 
            <glyph glyph-name="ĵ" unicode="&#x135;" horiz-adv-x="781" d=" M106,-492 Q58,-492 -4.5,-484.5 Q-67,-477 -104,-467 L-104,-162 Q-40,-180 16,-180 Q135,-180 135,-10 L135,1133 L526,1133 L526,-92 Q526,-279 416.5,-385.5 Q307,-492 106,-492 M66063,1241 Q65979,1289 65862,1391 Q65737,1284 65668,1241 L65410,1241 L65410,1270 Q65479,1335 65554.5,1423 Q65630,1511 65668,1569 L66061,1569 Q66155,1432 66317,1270 L66317,1241"/> 
            </font>
</defs>
</svg>
