<?xml version="1.0" standalone="no"?>
<!DOCTYPE svg PUBLIC "-//W3C//DTD SVG 1.1//EN" "http://www.w3.org/Graphics/SVG/1.1/DTD/svg11.dtd" >
<svg xmlns="http://www.w3.org/2000/svg">
    <defs>
        <font id="OpenSans-SemiBoldItalic">
            <font-face font-family="OpenSans-SemiBoldItalic"
                       units-per-em="2048"
                       ascent="2189"
                       descent="-600"
                       bbox="-993 -575 2585 2146"
                    />
            <missing-glyph horiz-adv-x="0" />
            
            <glyph glyph-name="!" unicode="&#x21;" horiz-adv-x="600" d=" M336,444 L160,444 L328,1462 L600,1462 M33,96 Q33,176 78.5,226 Q124,276 209,276 Q266,276 300,243.5 Q334,211 334,150 Q334,71 287,22 Q240,-27 164,-27 Q102,-27 67.5,6.5 Q33,40 33,96"/> 
            <glyph glyph-name="&quot;" unicode="&#x22;" horiz-adv-x="893" d=" M516,1462 L365,934 L213,934 L285,1462 M893,1462 L741,934 L588,934 L662,1462"/> 
            <glyph glyph-name="#" unicode="&#x23;" horiz-adv-x="1335" d=" M1036,872 L952,586 L1223,586 L1208,418 L905,418 L784,0 L604,0 L727,418 L479,418 L358,0 L184,0 L301,418 L51,418 L68,586 L348,586 L432,872 L168,872 L184,1040 L479,1040 L600,1462 L778,1462 L657,1040 L909,1040 L1030,1462 L1204,1462 L1083,1040 L1335,1040 L1321,872 M526,586 L776,586 L858,872 L608,872"/> 
            <glyph glyph-name="$" unicode="&#x24;" horiz-adv-x="1096" d=" M987,494 Q987,322 867.5,217 Q748,112 530,92 L485,-119 L350,-119 L395,92 Q198,105 61,172 L61,381 Q139,339 240.5,311 Q342,283 434,281 L518,668 Q362,724 294.5,806.5 Q227,889 227,1006 Q227,1173 345.5,1273.5 Q464,1374 670,1391 L707,1554 L842,1554 L807,1389 Q968,1373 1096,1307 L1010,1122 Q876,1188 766,1196 L686,825 Q814,774 872.5,730 Q931,686 959,629 Q987,572 987,494 M571,285 Q657,296 707.5,345 Q758,394 758,471 Q758,572 643,616 M629,1196 Q540,1185 495.5,1138.5 Q451,1092 451,1016 Q451,918 561,877"/> 
            <glyph glyph-name="%" unicode="&#x25;" horiz-adv-x="1606" d=" M530,1315 Q475,1315 431,1254 Q387,1193 360.5,1081 Q334,969 334,866 Q334,731 414,731 Q466,731 509.5,789 Q553,847 582.5,964.5 Q612,1082 612,1184 Q612,1315 530,1315 M805,1186 Q805,1026 749.5,872.5 Q694,719 603,642 Q512,565 397,565 Q273,565 207,644 Q141,723 141,872 Q141,1038 194,1185.5 Q247,1333 336.5,1408 Q426,1483 545,1483 Q672,1483 738.5,1407 Q805,1331 805,1186 M1511,1462 L426,0 L231,0 L1317,1462 M1329,731 Q1277,731 1233.5,673.5 Q1190,616 1161.5,502.5 Q1133,389 1133,281 Q1133,147 1214,147 Q1266,147 1310,205.5 Q1354,264 1383.5,380 Q1413,496 1413,600 Q1413,731 1329,731 M1606,604 Q1606,443 1550.5,288.5 Q1495,134 1404,57 Q1313,-20 1200,-20 Q1073,-20 1006.5,56.5 Q940,133 940,279 Q940,450 993,599 Q1046,748 1135.5,822.5 Q1225,897 1343,897 Q1470,897 1538,822 Q1606,747 1606,604"/> 
            <glyph glyph-name="&amp;" unicode="&#x26;" horiz-adv-x="1370" d=" M748,1298 Q661,1298 614,1244 Q567,1190 567,1102 Q567,993 629,901 Q776,976 828.5,1034.5 Q881,1093 881,1161 Q881,1227 845,1262.5 Q809,1298 748,1298 M508,176 Q585,176 655,203 Q725,230 799,285 L535,666 Q402,592 353.5,524.5 Q305,457 305,371 Q305,285 361,230.5 Q417,176 508,176 M66,350 Q66,497 151.5,604 Q237,711 438,809 Q350,960 350,1092 Q350,1272 462.5,1378.5 Q575,1485 760,1485 Q920,1485 1012,1404 Q1104,1323 1104,1186 Q1104,1057 1014.5,956 Q925,855 721,764 L956,438 Q1065,550 1137,733 L1370,733 Q1257,463 1073,279 L1278,0 L1001,0 L907,131 Q801,51 696,15.5 Q591,-20 467,-20 Q277,-20 171.5,77.5 Q66,175 66,350"/> 
            <glyph glyph-name="'" unicode="&#x27;" horiz-adv-x="516" d=" M516,1462 L365,934 L213,934 L285,1462"/> 
            <glyph glyph-name="(" unicode="&#x28;" horiz-adv-x="791" d=" M78,276 Q78,619 202.5,908.5 Q327,1198 582,1462 L791,1462 Q293,914 293,272 Q293,-57 408,-324 L225,-324 Q78,-63 78,276"/> 
            <glyph glyph-name=")" unicode="&#x29;" horiz-adv-x="559" d=" M559,860 Q559,518 436,230.5 Q313,-57 55,-324 L-154,-324 Q344,224 344,866 Q344,1193 229,1462 L412,1462 Q559,1197 559,860"/> 
            <glyph glyph-name="*" unicode="&#x2A;" horiz-adv-x="1155" d=" M868,1524 L752,1157 L1155,1180 L1143,975 L776,1020 L946,659 L741,598 L639,969 L412,657 L250,801 L543,1067 L193,1167 L264,1362 L618,1184 L655,1567"/> 
            <glyph glyph-name="+" unicode="&#x2B;" horiz-adv-x="1053" d=" M496,631 L117,631 L117,811 L496,811 L496,1192 L676,1192 L676,811 L1053,811 L1053,631 L676,631 L676,256 L496,256"/> 
            <glyph glyph-name="," unicode="&#x2C;" horiz-adv-x="342" d=" M334,238 L342,215 Q217,-45 76,-264 L-102,-264 Q3,-26 98,238"/> 
            <glyph glyph-name="-" unicode="&#x2D;" horiz-adv-x="594" d=" M47,446 L92,649 L594,649 L549,446"/> 
            <glyph glyph-name="." unicode="&#x2E;" horiz-adv-x="334" d=" M33,94 Q33,177 80,226.5 Q127,276 211,276 Q267,276 300.5,244.5 Q334,213 334,152 Q334,74 286.5,22.5 Q239,-29 162,-29 Q96,-29 64.5,6.5 Q33,42 33,94"/> 
            <glyph glyph-name="/" unicode="&#x2F;" horiz-adv-x="952" d=" M952,1462 L141,0 L-92,0 L719,1462"/> 
            <glyph glyph-name="0" unicode="&#x30;" horiz-adv-x="1100" d=" M1100,1012 Q1100,706 1021,465.5 Q942,225 802,102.5 Q662,-20 477,-20 Q283,-20 187.5,107.5 Q92,235 92,471 Q92,755 175,997 Q258,1239 397.5,1362 Q537,1485 719,1485 Q906,1485 1003,1366.5 Q1100,1248 1100,1012 M700,1288 Q603,1288 520,1176 Q437,1064 383.5,863.5 Q330,663 330,469 Q330,326 369,251 Q408,176 498,176 Q598,176 680.5,289.5 Q763,403 812.5,606 Q862,809 862,1020 Q862,1288 700,1288"/> 
            <glyph glyph-name="1" unicode="&#x31;" horiz-adv-x="948" d=" M637,0 L399,0 L588,870 Q616,1020 670,1194 Q613,1139 535,1092 L348,975 L242,1145 L750,1462 L948,1462"/> 
            <glyph glyph-name="2" unicode="&#x32;" horiz-adv-x="1087" d=" M911,0 L-18,0 L18,180 L489,602 Q665,761 727.5,833 Q790,905 818,966.5 Q846,1028 846,1098 Q846,1183 796.5,1232.5 Q747,1282 657,1282 Q587,1282 518,1252 Q449,1222 348,1143 L233,1303 Q353,1400 464,1441.5 Q575,1483 692,1483 Q873,1483 980,1390 Q1087,1297 1087,1139 Q1087,1031 1048,938 Q1009,845 925,747.5 Q841,650 641,479 L330,215 L330,207 L952,207"/> 
            <glyph glyph-name="3" unicode="&#x33;" horiz-adv-x="1087" d=" M1087,1153 Q1087,995 988,889 Q889,783 719,752 L719,745 Q846,721 915.5,639 Q985,557 985,434 Q985,301 917,197.5 Q849,94 720.5,37 Q592,-20 416,-20 Q191,-20 31,59 L31,274 Q115,225 216.5,198.5 Q318,172 412,172 Q569,172 657,243.5 Q745,315 745,440 Q745,659 467,659 L334,659 L371,842 L477,842 Q641,842 744.5,916.5 Q848,991 848,1116 Q848,1195 798.5,1240.5 Q749,1286 659,1286 Q587,1286 512.5,1260.5 Q438,1235 350,1176 L246,1337 Q366,1418 471.5,1450.5 Q577,1483 698,1483 Q881,1483 984,1394.5 Q1087,1306 1087,1153"/> 
            <glyph glyph-name="4" unicode="&#x34;" horiz-adv-x="1090" d=" M1047,317 L846,317 L778,0 L549,0 L618,317 L-4,317 L33,514 L836,1466 L1090,1466 L889,514 L1090,514 M659,514 L727,823 Q758,959 827,1200 L819,1200 Q768,1114 684,1014 L262,514"/> 
            <glyph glyph-name="5" unicode="&#x35;" horiz-adv-x="1112" d=" M610,907 Q791,907 898.5,803.5 Q1006,700 1006,518 Q1006,357 936,235 Q866,113 732,46.5 Q598,-20 408,-20 Q194,-20 53,59 L53,276 Q220,176 395,176 Q568,176 665,259 Q762,342 762,489 Q762,594 700,657.5 Q638,721 512,721 Q417,721 287,686 L199,754 L399,1462 L1112,1462 L1067,1253 L561,1253 L455,889 Q548,907 610,907"/> 
            <glyph glyph-name="6" unicode="&#x36;" horiz-adv-x="1133" d=" M111,446 Q111,651 171.5,852 Q232,1053 336.5,1195 Q441,1337 587.5,1410 Q734,1483 930,1483 Q1047,1483 1133,1458 L1090,1264 Q1018,1286 909,1286 Q704,1286 572,1156.5 Q440,1027 375,764 L381,764 Q506,934 707,934 Q863,934 950.5,835 Q1038,736 1038,563 Q1038,401 969.5,262 Q901,123 784,51.5 Q667,-20 514,-20 Q320,-20 215.5,100 Q111,220 111,446 M530,174 Q611,174 673,222.5 Q735,271 769,357 Q803,443 803,545 Q803,745 625,745 Q574,745 529.5,726 Q485,707 450.5,678 Q416,649 392,613.5 Q368,578 353,531.5 Q338,485 340,418 Q340,308 389.5,241 Q439,174 530,174"/> 
            <glyph glyph-name="7" unicode="&#x37;" horiz-adv-x="1180" d=" M125,0 L879,1257 L205,1257 L248,1462 L1180,1462 L1147,1294 L389,0"/> 
            <glyph glyph-name="8" unicode="&#x38;" horiz-adv-x="1118" d=" M731,1485 Q910,1485 1014,1396 Q1118,1307 1118,1157 Q1118,1025 1039,927.5 Q960,830 791,764 Q911,686 963.5,598.5 Q1016,511 1016,397 Q1016,276 954.5,180.5 Q893,85 779,32.5 Q665,-20 508,-20 Q305,-20 190.5,80 Q76,180 76,348 Q76,645 444,780 Q353,850 313.5,925 Q274,1000 274,1087 Q274,1266 401,1375.5 Q528,1485 731,1485 M594,672 Q445,618 378,545.5 Q311,473 311,369 Q311,276 370,220 Q429,164 528,164 Q643,164 712.5,228 Q782,292 782,395 Q782,486 733.5,552.5 Q685,619 594,672 M711,1300 Q618,1300 561,1244 Q504,1188 504,1096 Q504,1013 543,959 Q582,905 647,866 Q762,909 824.5,971 Q887,1033 887,1128 Q887,1209 839,1254.5 Q791,1300 711,1300"/> 
            <glyph glyph-name="9" unicode="&#x39;" horiz-adv-x="1079" d=" M1079,1018 Q1079,813 1021,603.5 Q963,394 868.5,254.5 Q774,115 642.5,47.5 Q511,-20 332,-20 Q199,-20 92,12 L92,219 Q213,176 328,176 Q516,176 634,299 Q752,422 811,688 L805,688 Q692,528 500,528 Q335,528 244.5,630 Q154,732 154,918 Q154,1074 221,1207 Q288,1340 407.5,1411.5 Q527,1483 682,1483 Q874,1483 976.5,1363.5 Q1079,1244 1079,1018 M664,1288 Q582,1288 518.5,1241 Q455,1194 421,1111 Q387,1028 387,932 Q387,827 433,772 Q479,717 567,717 Q684,717 765,811 Q846,905 846,1051 Q846,1159 798,1223.5 Q750,1288 664,1288"/> 
            <glyph glyph-name=":" unicode="&#x3A;" horiz-adv-x="506" d=" M205,948 Q205,1031 252,1080.5 Q299,1130 383,1130 Q439,1130 472.5,1098.5 Q506,1067 506,1006 Q506,927 457.5,876 Q409,825 332,825 Q266,825 235.5,860.5 Q205,896 205,948 M33,94 Q33,177 80,226.5 Q127,276 211,276 Q267,276 300.5,244.5 Q334,213 334,152 Q334,74 286.5,22.5 Q239,-29 162,-29 Q96,-29 64.5,6.5 Q33,42 33,94"/> 
            <glyph glyph-name=";" unicode="&#x3B;" horiz-adv-x="506" d=" M334,238 L342,215 Q217,-45 76,-264 L-100,-264 Q-5,-50 98,238 M205,948 Q205,1031 252,1080.5 Q299,1130 383,1130 Q439,1130 472.5,1098.5 Q506,1067 506,1006 Q506,927 457.5,876 Q409,825 332,825 Q266,825 235.5,860.5 Q205,896 205,948"/> 
            <glyph glyph-name="&lt;" unicode="&#x3C;" horiz-adv-x="1051" d=" M1051,221 L115,651 L115,772 L1051,1260 L1051,1065 L354,721 L1051,418"/> 
            <glyph glyph-name="=" unicode="&#x3D;" horiz-adv-x="1053" d=" M117,831 L117,1010 L1053,1010 L1053,831 M117,430 L117,610 L1053,610 L1053,430"/> 
            <glyph glyph-name="&gt;" unicode="&#x3E;" horiz-adv-x="1051" d=" M115,418 L809,721 L115,1065 L115,1260 L1051,772 L1051,651 L115,221"/> 
            <glyph glyph-name="?" unicode="&#x3F;" horiz-adv-x="963" d=" M260,444 Q278,577 331.5,664.5 Q385,752 508,842 Q615,919 654.5,959 Q694,999 712.5,1039.5 Q731,1080 731,1128 Q731,1198 688.5,1242 Q646,1286 565,1286 Q488,1286 415,1258.5 Q342,1231 264,1194 L186,1370 Q393,1483 596,1483 Q767,1483 865,1397.5 Q963,1312 963,1155 Q963,1035 899.5,937.5 Q836,840 668,721 Q564,647 518,588 Q472,529 457,444 M162,94 Q162,177 209,226.5 Q256,276 340,276 Q396,276 429.5,244.5 Q463,213 463,152 Q463,73 414,23 Q365,-27 289,-27 Q223,-27 192.5,7.5 Q162,42 162,94"/> 
            <glyph glyph-name="@" unicode="&#x40;" horiz-adv-x="1706" d=" M1706,846 Q1706,670 1646.5,523.5 Q1587,377 1480,294 Q1373,211 1241,211 Q1143,211 1090.5,257 Q1038,303 1026,377 L1020,377 Q919,211 743,211 Q620,211 553.5,289.5 Q487,368 487,508 Q487,659 554.5,787.5 Q622,916 742.5,990.5 Q863,1065 1006,1065 Q1058,1065 1100.5,1060 Q1143,1055 1180,1047 Q1217,1039 1309,1008 L1208,616 Q1178,502 1178,457 Q1178,365 1257,365 Q1329,365 1391,431.5 Q1453,498 1488.5,606 Q1524,714 1524,836 Q1524,1064 1395.5,1183.5 Q1267,1303 1032,1303 Q818,1303 647,1203.5 Q476,1104 380.5,922 Q285,740 285,516 Q285,257 425.5,115 Q566,-27 817,-27 Q1017,-27 1247,59 L1247,-96 Q1028,-186 793,-186 Q583,-186 426,-102.5 Q269,-19 184.5,137 Q100,293 100,502 Q100,772 222.5,991 Q345,1210 565.5,1335 Q786,1460 1059,1460 Q1259,1460 1405,1385.5 Q1551,1311 1628.5,1171 Q1706,1031 1706,846 M989,913 Q903,913 830.5,859.5 Q758,806 717,715.5 Q676,625 676,522 Q676,365 788,365 Q870,365 929.5,437 Q989,509 1030,657 L1094,897 Q1041,913 989,913"/> 
            <glyph glyph-name="A" unicode="&#x41;" horiz-adv-x="1102" d=" M827,406 L342,406 L133,0 L-121,0 L662,1464 L936,1464 L1102,0 L868,0 M811,614 Q771,1030 765.5,1117.5 Q760,1205 760,1257 Q705,1118 618,950 L446,614"/> 
            <glyph glyph-name="B" unicode="&#x42;" horiz-adv-x="1227" d=" M778,1462 Q1000,1462 1113.5,1378 Q1227,1294 1227,1130 Q1227,984 1140.5,887 Q1054,790 901,760 L901,752 Q1009,724 1068.5,648.5 Q1128,573 1128,465 Q1128,248 978,124 Q828,0 561,0 L70,0 L379,1462 M489,858 L688,858 Q827,858 903,918.5 Q979,979 979,1090 Q979,1262 756,1262 L575,1262 M348,201 L571,201 Q718,201 801.5,269 Q885,337 885,463 Q885,561 825,612.5 Q765,664 649,664 L449,664"/> 
            <glyph glyph-name="C" unicode="&#x43;" horiz-adv-x="1313" d=" M924,1278 Q770,1278 649,1189 Q528,1100 455.5,929.5 Q383,759 383,555 Q383,375 465.5,279.5 Q548,184 709,184 Q850,184 1038,252 L1038,47 Q858,-20 664,-20 Q416,-20 275.5,128.5 Q135,277 135,545 Q135,805 240.5,1028 Q346,1251 522,1367 Q698,1483 924,1483 Q1141,1483 1313,1391 L1219,1196 Q1156,1230 1085,1254 Q1014,1278 924,1278"/> 
            <glyph glyph-name="D" unicode="&#x44;" horiz-adv-x="1311" d=" M1311,893 Q1311,622 1211,420 Q1111,218 920,109 Q729,0 471,0 L70,0 L379,1462 L748,1462 Q1019,1462 1165,1317 Q1311,1172 1311,893 M483,201 Q660,201 792,287 Q924,373 994.5,529 Q1065,685 1065,885 Q1065,1069 977,1165.5 Q889,1262 721,1262 L575,1262 L348,201"/> 
            <glyph glyph-name="E" unicode="&#x45;" horiz-adv-x="1155" d=" M846,0 L70,0 L379,1462 L1155,1462 L1112,1257 L573,1257 L489,862 L991,862 L950,659 L446,659 L350,203 L889,203"/> 
            <glyph glyph-name="F" unicode="&#x46;" horiz-adv-x="1153" d=" M307,0 L70,0 L379,1462 L1153,1462 L1110,1257 L573,1257 L477,803 L979,803 L934,600 L434,600"/> 
            <glyph glyph-name="G" unicode="&#x47;" horiz-adv-x="1372" d=" M786,793 L1298,793 L1141,57 Q1029,17 922.5,-1.5 Q816,-20 684,-20 Q423,-20 279,126 Q135,272 135,539 Q135,803 237.5,1022 Q340,1241 527.5,1362 Q715,1483 954,1483 Q1065,1483 1167,1462.5 Q1269,1442 1372,1393 L1282,1190 Q1108,1276 948,1276 Q790,1276 661,1185.5 Q532,1095 457.5,927.5 Q383,760 383,555 Q383,372 472,278 Q561,184 725,184 Q834,184 940,217 L1020,588 L743,588"/> 
            <glyph glyph-name="H" unicode="&#x48;" horiz-adv-x="1419" d=" M1110,0 L872,0 L1012,659 L446,659 L307,0 L70,0 L379,1462 L616,1462 L489,864 L1055,864 L1182,1462 L1419,1462"/> 
            <glyph glyph-name="I" unicode="&#x49;" horiz-adv-x="616" d=" M70,0 L381,1462 L616,1462 L305,0"/> 
            <glyph glyph-name="J" unicode="&#x4A;" horiz-adv-x="627" d=" M-152,-408 Q-256,-408 -322,-383 L-317,-182 Q-233,-203 -164,-203 Q37,-203 90,47 L389,1462 L627,1462 L322,16 Q276,-201 160.5,-304.5 Q45,-408 -152,-408"/> 
            <glyph glyph-name="K" unicode="&#x4B;" horiz-adv-x="1382" d=" M1087,0 L825,0 L573,655 L424,555 L307,0 L70,0 L379,1462 L616,1462 L465,756 L606,922 L1098,1462 L1382,1462 L766,793"/> 
            <glyph glyph-name="L" unicode="&#x4C;" horiz-adv-x="889" d=" M70,0 L379,1462 L616,1462 L350,205 L889,205 L846,0"/> 
            <glyph glyph-name="M" unicode="&#x4D;" horiz-adv-x="1765" d=" M647,0 L532,1214 L526,1214 Q517,1096 471,874 L287,0 L68,0 L377,1462 L700,1462 L809,313 L815,313 L1421,1462 L1765,1462 L1460,0 L1233,0 L1415,872 Q1454,1058 1501,1214 L1495,1214 L852,0"/> 
            <glyph glyph-name="N" unicode="&#x4E;" horiz-adv-x="1501" d=" M1192,0 L932,0 L522,1163 L516,1163 L506,1094 Q482,945 470.5,881.5 Q459,818 287,0 L68,0 L377,1462 L645,1462 L1044,313 L1051,313 Q1057,367 1082,505.5 Q1107,644 1122,709 L1282,1462 L1501,1462"/> 
            <glyph glyph-name="O" unicode="&#x4F;" horiz-adv-x="1421" d=" M1421,922 Q1421,643 1326,425 Q1231,207 1064.5,93.5 Q898,-20 678,-20 Q419,-20 277,129.5 Q135,279 135,543 Q135,810 233.5,1030.5 Q332,1251 503,1368 Q674,1485 891,1485 Q1142,1485 1281.5,1336 Q1421,1187 1421,922 M872,1280 Q734,1280 622,1184 Q510,1088 446.5,917.5 Q383,747 383,545 Q383,372 464.5,278 Q546,184 692,184 Q830,184 940.5,279.5 Q1051,375 1112.5,544.5 Q1174,714 1174,920 Q1174,1090 1095,1185 Q1016,1280 872,1280"/> 
            <glyph glyph-name="P" unicode="&#x50;" horiz-adv-x="1174" d=" M465,748 L559,748 Q737,748 834.5,827.5 Q932,907 932,1053 Q932,1162 873.5,1212 Q815,1262 694,1262 L575,1262 M1174,1061 Q1174,813 1004.5,680 Q835,547 532,547 L422,547 L307,0 L70,0 L379,1462 L713,1462 Q942,1462 1058,1361.5 Q1174,1261 1174,1061"/> 
            <glyph glyph-name="Q" unicode="&#x51;" horiz-adv-x="1421" d=" M1421,922 Q1421,600 1291,359 Q1161,118 936,27 L1200,-348 L911,-348 L709,-20 L678,-20 Q419,-20 277,129.5 Q135,279 135,543 Q135,810 233.5,1030.5 Q332,1251 503,1368 Q674,1485 891,1485 Q1142,1485 1281.5,1336 Q1421,1187 1421,922 M872,1280 Q734,1280 622,1184 Q510,1088 446.5,917.5 Q383,747 383,545 Q383,372 464.5,278 Q546,184 692,184 Q830,184 940.5,278 Q1051,372 1112.5,541.5 Q1174,711 1174,920 Q1174,1090 1095,1185 Q1016,1280 872,1280"/> 
            <glyph glyph-name="R" unicode="&#x52;" horiz-adv-x="1178" d=" M430,584 L307,0 L70,0 L379,1462 L717,1462 Q940,1462 1059,1367.5 Q1178,1273 1178,1077 Q1178,912 1091.5,798.5 Q1005,685 834,633 L1083,0 L823,0 L616,584 M473,782 L596,782 Q766,782 850,857 Q934,932 934,1063 Q934,1168 875,1214 Q816,1260 692,1260 L573,1260"/> 
            <glyph glyph-name="S" unicode="&#x53;" horiz-adv-x="1083" d=" M930,428 Q930,218 785.5,99 Q641,-20 387,-20 Q177,-20 39,55 L39,279 Q212,182 389,182 Q526,182 605,240.5 Q684,299 684,403 Q684,472 643,525.5 Q602,579 471,662 Q366,729 316,784 Q266,839 239.5,904.5 Q213,970 213,1049 Q213,1177 274.5,1276 Q336,1375 448.5,1429 Q561,1483 702,1483 Q907,1483 1083,1391 L997,1200 Q836,1278 702,1278 Q593,1278 527,1219.5 Q461,1161 461,1067 Q461,1020 476,984.5 Q491,949 522.5,918.5 Q554,888 657,823 Q812,726 871,635.5 Q930,545 930,428"/> 
            <glyph glyph-name="T" unicode="&#x54;" horiz-adv-x="1219" d=" M528,0 L291,0 L555,1257 L176,1257 L221,1462 L1219,1462 L1176,1257 L795,1257"/> 
            <glyph glyph-name="U" unicode="&#x55;" horiz-adv-x="1419" d=" M1419,1462 L1217,506 Q1161,239 1009,109.5 Q857,-20 606,-20 Q389,-20 270.5,86 Q152,192 152,391 Q152,474 172,561 L365,1462 L602,1462 L410,557 Q389,469 389,399 Q389,297 448.5,240.5 Q508,184 629,184 Q774,184 859,264.5 Q944,345 983,526 L1182,1462"/> 
            <glyph glyph-name="V" unicode="&#x56;" horiz-adv-x="1352" d=" M506,248 Q576,426 643,557 L1098,1462 L1352,1462 L588,0 L330,0 L186,1462 L418,1462 L492,557 Q501,454 503,324 L502,248"/> 
            <glyph glyph-name="W" unicode="&#x57;" horiz-adv-x="1972" d=" M1317,0 L1059,0 L1022,842 L1016,1027 L1020,1133 L1014,1133 Q967,989 897,842 L512,0 L256,0 L203,1462 L432,1462 L451,612 Q451,476 438,266 L444,266 Q527,487 586,621 L973,1462 L1198,1462 L1229,623 L1232,454 L1229,266 L1237,266 Q1265,354 1307,463.5 Q1349,573 1368,616 L1726,1462 L1972,1462"/> 
            <glyph glyph-name="X" unicode="&#x58;" horiz-adv-x="1317" d=" M1040,0 L784,0 L592,592 L154,0 L-111,0 L475,770 L225,1462 L471,1462 L649,922 L1051,1462 L1317,1462 L766,752"/> 
            <glyph glyph-name="Y" unicode="&#x59;" horiz-adv-x="1280" d=" M582,793 L1014,1462 L1280,1462 L657,549 L543,0 L305,0 L424,553 L186,1462 L428,1462"/> 
            <glyph glyph-name="Z" unicode="&#x5A;" horiz-adv-x="1186" d=" M901,0 L-39,0 L-6,168 L844,1255 L246,1255 L289,1462 L1186,1462 L1151,1290 L299,205 L944,205"/> 
            <glyph glyph-name="[" unicode="&#x5B;" horiz-adv-x="784" d=" M403,-324 L-27,-324 L354,1462 L784,1462 L745,1286 L524,1286 L221,-147 L442,-147"/> 
            <glyph glyph-name="\" unicode="&#x5C;" horiz-adv-x="647" d=" M428,1462 L647,0 L438,0 L221,1462"/> 
            <glyph glyph-name="]" unicode="&#x5D;" horiz-adv-x="666" d=" M-106,-147 L113,-147 L418,1286 L197,1286 L236,1462 L666,1462 L285,-324 L-143,-324"/> 
            <glyph glyph-name="^" unicode="&#x5E;" horiz-adv-x="1044" d=" M37,537 L645,1470 L772,1470 L1044,537 L860,537 L672,1227 L238,537"/> 
            <glyph glyph-name="_" unicode="&#x5F;" horiz-adv-x="659" d=" M629,-324 L-188,-324 L-158,-184 L659,-184"/> 
            <glyph glyph-name="`" unicode="&#x60;" horiz-adv-x="918" d=" M918,1241 L774,1241 Q709,1304 642,1392.5 Q575,1481 541,1548 L541,1569 L786,1569 Q833,1415 918,1266"/> 
            <glyph glyph-name="a" unicode="&#x61;" horiz-adv-x="1151" d=" M399,-20 Q258,-20 176,81.5 Q94,183 94,367 Q94,569 163.5,745 Q233,921 355,1023.5 Q477,1126 623,1126 Q720,1126 790,1080.5 Q860,1035 899,948 L909,948 L971,1106 L1151,1106 L915,0 L733,0 L754,176 L748,176 Q590,-20 399,-20 M485,170 Q567,170 646,247.5 Q725,325 776,455 Q827,585 827,739 Q827,827 780,880.5 Q733,934 657,934 Q572,934 497,857 Q422,780 377,647.5 Q332,515 332,373 Q332,271 372.5,220.5 Q413,170 485,170"/> 
            <glyph glyph-name="b" unicode="&#x62;" horiz-adv-x="1104" d=" M578,-20 Q480,-20 409.5,25 Q339,70 299,156 L289,156 L225,0 L47,0 L377,1556 L612,1556 L541,1223 Q528,1160 503,1066.5 Q478,973 463,926 L471,926 Q561,1039 636,1082.5 Q711,1126 797,1126 Q942,1126 1023,1022.5 Q1104,919 1104,737 Q1104,535 1034.5,357.5 Q965,180 844,80 Q723,-20 578,-20 M711,934 Q630,934 549,854 Q468,774 418.5,643.5 Q369,513 369,373 Q369,277 415.5,223.5 Q462,170 547,170 Q632,170 706,248.5 Q780,327 823,458.5 Q866,590 866,733 Q866,934 711,934"/> 
            <glyph glyph-name="c" unicode="&#x63;" horiz-adv-x="973" d=" M506,-20 Q310,-20 202,86 Q94,192 94,389 Q94,596 167.5,765.5 Q241,935 374,1030.5 Q507,1126 676,1126 Q840,1126 973,1065 L903,881 Q781,934 682,934 Q532,934 432,780.5 Q332,627 332,401 Q332,290 388,230 Q444,170 543,170 Q617,170 681.5,192 Q746,214 811,246 L811,51 Q671,-20 506,-20"/> 
            <glyph glyph-name="d" unicode="&#x64;" horiz-adv-x="1245" d=" M623,1126 Q802,1126 891,948 L899,948 Q912,1094 936,1198 L1012,1556 L1245,1556 L915,0 L731,0 L750,176 L743,176 Q655,70 573,25 Q491,-20 399,-20 Q256,-20 175,81.5 Q94,183 94,369 Q94,574 165.5,752 Q237,930 357,1028 Q477,1126 623,1126 M489,170 Q571,170 651.5,252 Q732,334 780.5,466 Q829,598 829,733 Q829,824 785.5,879 Q742,934 653,934 Q568,934 494,857 Q420,780 376,646 Q332,512 332,373 Q332,170 489,170"/> 
            <glyph glyph-name="e" unicode="&#x65;" horiz-adv-x="1018" d=" M664,946 Q568,946 483.5,860 Q399,774 362,633 L391,633 Q579,633 685,686.5 Q791,740 791,838 Q791,889 759,917.5 Q727,946 664,946 M512,-20 Q315,-20 204.5,91 Q94,202 94,401 Q94,599 171.5,769.5 Q249,940 381.5,1033 Q514,1126 678,1126 Q839,1126 928.5,1053.5 Q1018,981 1018,848 Q1018,666 851.5,563.5 Q685,461 377,461 L334,461 L332,430 L332,401 Q332,290 388.5,227 Q445,164 557,164 Q629,164 700,183 Q771,202 868,248 L868,61 Q772,17 691.5,-1.5 Q611,-20 512,-20"/> 
            <glyph glyph-name="f" unicode="&#x66;" horiz-adv-x="942" d=" M-76,-492 Q-166,-492 -225,-469 L-225,-279 Q-161,-299 -111,-299 Q23,-299 66,-94 L283,928 L104,928 L125,1034 L319,1110 L340,1202 Q384,1400 474.5,1483.5 Q565,1567 731,1567 Q846,1567 942,1524 L881,1348 Q807,1376 745,1376 Q676,1376 634.5,1333 Q593,1290 571,1192 L553,1106 L782,1106 L745,928 L516,928 L293,-125 Q253,-314 162,-403 Q71,-492 -76,-492"/> 
            <glyph glyph-name="g" unicode="&#x67;" horiz-adv-x="1143" d=" M1143,1106 L1112,969 L920,936 Q948,878 948,799 Q948,606 829,492.5 Q710,379 510,379 Q458,379 418,387 Q307,347 307,283 Q307,245 338.5,231 Q370,217 430,209 L557,193 Q733,171 809,105.5 Q885,40 885,-82 Q885,-278 734,-385 Q583,-492 305,-492 Q102,-492 -9.5,-417 Q-121,-342 -121,-211 Q-121,-108 -51.5,-33 Q18,42 172,94 Q96,139 96,221 Q96,290 142.5,340.5 Q189,391 289,438 Q154,519 154,690 Q154,886 276.5,1006 Q399,1126 600,1126 Q680,1126 760,1106 M324,18 Q212,0 152,-53 Q92,-106 92,-184 Q92,-249 147.5,-287.5 Q203,-326 317,-326 Q480,-326 572,-272 Q664,-218 664,-117 Q664,-66 619,-37 Q574,-8 461,4 M594,969 Q529,969 480,930.5 Q431,892 404,825.5 Q377,759 377,680 Q377,609 412.5,570.5 Q448,532 514,532 Q579,532 626.5,571 Q674,610 700.5,678 Q727,746 727,827 Q727,969 594,969"/> 
            <glyph glyph-name="h" unicode="&#x68;" horiz-adv-x="1098" d=" M702,0 L844,672 Q862,762 862,799 Q862,934 733,934 Q621,934 523.5,809 Q426,684 381,467 L283,0 L47,0 L377,1556 L612,1556 L555,1294 Q528,1168 482,1001 L463,926 L471,926 Q555,1032 639.5,1079 Q724,1126 817,1126 Q953,1126 1025.5,1048.5 Q1098,971 1098,827 Q1098,751 1075,653 L936,0"/> 
            <glyph glyph-name="i" unicode="&#x69;" horiz-adv-x="598" d=" M330,1378 Q330,1446 369,1488 Q408,1530 479,1530 Q532,1530 565,1503.5 Q598,1477 598,1423 Q598,1352 558,1311 Q518,1270 453,1270 Q400,1270 365,1296 Q330,1322 330,1378 M283,0 L47,0 L283,1106 L518,1106"/> 
            <glyph glyph-name="j" unicode="&#x6A;" horiz-adv-x="598" d=" M-113,-492 Q-203,-492 -262,-469 L-262,-279 Q-198,-299 -145,-299 Q-14,-299 25,-113 L285,1106 L518,1106 L252,-141 Q214,-322 124.5,-407 Q35,-492 -113,-492 M332,1378 Q332,1446 370,1488 Q408,1530 479,1530 Q533,1530 565.5,1503.5 Q598,1477 598,1423 Q598,1352 558,1311 Q518,1270 453,1270 Q400,1270 366,1295.5 Q332,1321 332,1378"/> 
            <glyph glyph-name="k" unicode="&#x6B;" horiz-adv-x="1159" d=" M887,1106 L1159,1106 L676,621 L967,0 L705,0 L496,471 L360,375 L283,0 L47,0 L377,1556 L612,1556 Q477,929 452.5,826.5 Q428,724 393,600 L397,600"/> 
            <glyph glyph-name="l" unicode="&#x6C;" horiz-adv-x="612" d=" M281,0 L47,0 L377,1556 L612,1556"/> 
            <glyph glyph-name="m" unicode="&#x6D;" horiz-adv-x="1710" d=" M807,1126 Q1027,1126 1061,891 L1069,891 Q1144,1007 1239.5,1066.5 Q1335,1126 1438,1126 Q1571,1126 1640.5,1049.5 Q1710,973 1710,834 Q1710,770 1688,653 L1548,0 L1313,0 L1456,672 Q1475,767 1475,805 Q1475,934 1354,934 Q1246,934 1152.5,810 Q1059,686 1016,481 L915,0 L680,0 L823,672 Q840,754 840,799 Q840,934 723,934 Q613,934 519.5,807 Q426,680 381,469 L283,0 L47,0 L283,1106 L467,1106 L446,901 L455,901 Q603,1126 807,1126"/> 
            <glyph glyph-name="n" unicode="&#x6E;" horiz-adv-x="1098" d=" M702,0 L844,672 Q862,762 862,803 Q862,934 733,934 Q661,934 591,877 Q521,820 465,712.5 Q409,605 381,469 L283,0 L47,0 L283,1106 L467,1106 L446,901 L455,901 Q538,1019 626,1072.5 Q714,1126 817,1126 Q951,1126 1024.5,1050 Q1098,974 1098,834 Q1098,765 1075,653 L938,0"/> 
            <glyph glyph-name="o" unicode="&#x6F;" horiz-adv-x="1079" d=" M842,702 Q842,809 793,869.5 Q744,930 653,930 Q560,930 486.5,858.5 Q413,787 372.5,664.5 Q332,542 332,403 Q332,292 381.5,233 Q431,174 528,174 Q618,174 690,242 Q762,310 802,432.5 Q842,555 842,702 M1079,692 Q1079,490 1006,324.5 Q933,159 805.5,70.5 Q678,-18 512,-18 Q320,-18 207,96.5 Q94,211 94,408 Q94,607 165.5,773 Q237,939 366,1031.5 Q495,1124 664,1124 Q859,1124 969,1008 Q1079,892 1079,692"/> 
            <glyph glyph-name="p" unicode="&#x70;" horiz-adv-x="1104" d=" M578,-20 Q397,-20 309,156 L299,156 Q292,59 274,-29 L178,-492 L-55,-492 L283,1106 L467,1106 L446,918 L455,918 Q612,1126 799,1126 Q942,1126 1023,1023 Q1104,920 1104,737 Q1104,533 1034,355.5 Q964,178 843.5,79 Q723,-20 578,-20 M711,934 Q630,934 550,854.5 Q470,775 419.5,644 Q369,513 369,373 Q369,277 415.5,223.5 Q462,170 547,170 Q632,170 706,248.5 Q780,327 823,458.5 Q866,590 866,733 Q866,934 711,934"/> 
            <glyph glyph-name="q" unicode="&#x71;" horiz-adv-x="1151" d=" M625,1126 Q808,1126 899,948 L909,948 L973,1106 L1151,1106 L811,-492 L578,-492 L653,-143 Q665,-87 696.5,37 Q728,161 735,178 L727,178 Q643,70 563,25 Q483,-20 393,-20 Q254,-20 174,82.5 Q94,185 94,367 Q94,575 167,754 Q240,933 359.5,1029.5 Q479,1126 625,1126 M492,170 Q572,170 651,251 Q730,332 778.5,464 Q827,596 827,733 Q827,827 781.5,880.5 Q736,934 655,934 Q569,934 495,856.5 Q421,779 376.5,647 Q332,515 332,373 Q332,170 492,170"/> 
            <glyph glyph-name="r" unicode="&#x72;" horiz-adv-x="905" d=" M797,1126 Q859,1126 905,1114 L854,895 Q800,909 752,909 Q626,909 527,796 Q428,683 389,500 L283,0 L47,0 L283,1106 L467,1106 L446,901 L455,901 Q538,1021 621,1073.5 Q704,1126 797,1126"/> 
            <glyph glyph-name="s" unicode="&#x73;" horiz-adv-x="881" d=" M782,340 Q782,167 664,73.5 Q546,-20 336,-20 Q146,-20 14,47 L14,250 Q167,160 326,160 Q423,160 483,200 Q543,240 543,309 Q543,360 508.5,396.5 Q474,433 367,494 Q242,561 190.5,630.5 Q139,700 139,795 Q139,950 246,1038 Q353,1126 535,1126 Q731,1126 881,1042 L805,866 Q665,942 539,942 Q466,942 420.5,909 Q375,876 375,817 Q375,772 408,737 Q441,702 543,647 Q648,588 692,546 Q736,504 759,454.5 Q782,405 782,340"/> 
            <glyph glyph-name="t" unicode="&#x74;" horiz-adv-x="805" d=" M455,170 Q523,170 606,201 L606,23 Q571,6 511,-7 Q451,-20 391,-20 Q117,-20 117,227 Q117,284 133,358 L254,928 L92,928 L113,1038 L303,1120 L432,1352 L578,1352 L526,1106 L805,1106 L766,928 L489,928 L367,356 Q354,301 354,264 Q354,221 379,195.5 Q404,170 455,170"/> 
            <glyph glyph-name="u" unicode="&#x75;" horiz-adv-x="1159" d=" M506,1106 L377,496 Q346,355 346,303 Q346,170 473,170 Q545,170 616,227 Q687,284 742,389.5 Q797,495 827,637 L926,1106 L1159,1106 L926,0 L741,0 L762,205 L754,205 Q672,89 583,34.5 Q494,-20 391,-20 Q257,-20 184,56 Q111,132 111,274 Q111,337 123,398.5 Q135,460 147,522 L270,1106"/> 
            <glyph glyph-name="v" unicode="&#x76;" horiz-adv-x="1104" d=" M231,0 L100,1106 L332,1106 L387,508 Q401,349 401,211 L408,211 Q436,285 478,376 Q520,467 543,508 L854,1106 L1104,1106 L506,0"/> 
            <glyph glyph-name="w" unicode="&#x77;" horiz-adv-x="1630" d=" M844,0 L825,627 L824,697 L827,897 Q802,835 775.5,772 Q749,709 430,0 L168,0 L121,1106 L342,1106 L355,460 Q353,373 344,215 L350,215 Q416,391 459,487 L737,1106 L991,1106 L1010,502 L1011,449 L1008,215 L1014,215 Q1031,265 1071,373.5 Q1111,482 1134.5,537 Q1158,592 1386,1106 L1630,1106 L1112,0"/> 
            <glyph glyph-name="x" unicode="&#x78;" horiz-adv-x="1108" d=" M489,387 L184,0 L-86,0 L389,569 L158,1106 L403,1106 L547,733 L834,1106 L1108,1106 L647,557 L895,0 L649,0"/> 
            <glyph glyph-name="y" unicode="&#x79;" horiz-adv-x="1106" d=" M100,1106 L332,1106 L395,575 Q404,513 411,400.5 Q418,288 418,219 L424,219 Q510,434 559,532 L852,1106 L1106,1106 L418,-174 Q328,-339 222,-415.5 Q116,-492 -27,-492 Q-103,-492 -170,-473 L-170,-285 Q-95,-301 -45,-301 Q29,-301 89,-257.5 Q149,-214 213,-102 L264,-10"/> 
            <glyph glyph-name="z" unicode="&#x7A;" horiz-adv-x="930" d=" M719,0 L-39,0 L-10,147 L625,928 L186,928 L225,1106 L930,1106 L893,936 L270,178 L756,178"/> 
            <glyph glyph-name="{" unicode="&#x7B;" horiz-adv-x="842" d=" M457,-324 Q141,-324 141,-88 Q141,-27 158,45 L203,246 Q217,311 217,344 Q217,485 8,485 L47,672 Q167,672 238.5,714.5 Q310,757 332,858 L391,1133 Q419,1267 464,1334.5 Q509,1402 584,1432 Q659,1462 782,1462 L842,1462 L801,1278 Q705,1278 661.5,1244 Q618,1210 600,1128 L530,819 Q506,711 443,648.5 Q380,586 264,569 L264,563 Q424,518 424,348 Q424,310 408,227 L365,33 Q354,-15 354,-41 Q354,-92 386.5,-115.5 Q419,-139 496,-139 L496,-324"/> 
            <glyph glyph-name="|" unicode="&#x7C;" horiz-adv-x="676" d=" M498,1552 L676,1552 L676,-481 L498,-481"/> 
            <glyph glyph-name="}" unicode="&#x7D;" horiz-adv-x="721" d=" M270,1462 Q588,1462 588,1227 Q588,1166 571,1094 L526,891 Q512,826 512,793 Q512,651 721,651 L682,465 Q561,465 490,423 Q419,381 397,281 L334,-25 Q300,-190 210.5,-257 Q121,-324 -59,-324 L-88,-324 L-88,-141 Q18,-139 64.5,-104.5 Q111,-70 129,10 L199,319 Q223,428 286,489 Q349,550 465,567 L465,573 Q307,621 307,788 Q307,843 324,909 L367,1106 Q377,1150 377,1180 Q377,1238 334,1258 Q291,1278 213,1278 L248,1462"/> 
            <glyph glyph-name="~" unicode="&#x7E;" horiz-adv-x="1067" d=" M344,692 Q293,692 232,661 Q171,630 111,571 L111,762 Q211,870 360,870 Q424,870 478.5,858 Q533,846 625,807 Q695,777 740,764.5 Q785,752 834,752 Q884,752 946.5,783 Q1009,814 1067,872 L1067,682 Q964,571 817,571 Q754,571 693,587.5 Q632,604 555,637 Q479,669 435.5,680.5 Q392,692 344,692"/> 
            <glyph glyph-name="¡" unicode="&#xA1;" horiz-adv-x="522" d=" M221,645 L395,645 L229,-373 L-45,-373 M522,993 Q522,913 475,863 Q428,813 348,813 Q289,813 255,844.5 Q221,876 221,936 Q221,1018 270,1068 Q319,1118 397,1118 Q462,1118 492,1082.5 Q522,1047 522,993"/> 
            <glyph glyph-name="¢" unicode="&#xA2;" horiz-adv-x="1073" d=" M578,-20 L422,-20 L467,193 Q335,227 265,327.5 Q195,428 195,586 Q195,776 258.5,937 Q322,1098 436.5,1197.5 Q551,1297 698,1319 L733,1483 L889,1483 L852,1319 Q976,1307 1073,1262 L1004,1077 Q879,1130 782,1130 Q683,1130 602,1058.5 Q521,987 476.5,864 Q432,741 432,598 Q432,487 488,427 Q544,367 643,367 Q717,367 781.5,388.5 Q846,410 911,442 L911,248 Q778,179 618,174"/> 
            <glyph glyph-name="£" unicode="&#xA3;" horiz-adv-x="1208" d=" M856,1483 Q1044,1483 1208,1397 L1120,1214 Q977,1288 862,1288 Q677,1288 635,1083 L578,805 L911,805 L877,633 L541,633 L508,481 Q487,383 439.5,316 Q392,249 309,207 L999,207 L954,0 L-18,0 L20,193 Q220,238 270,469 L305,633 L109,633 L145,805 L342,805 L403,1104 Q441,1289 556,1386 Q671,1483 856,1483"/> 
            <glyph glyph-name="¤" unicode="&#xA4;" horiz-adv-x="1049" d=" M209,723 Q209,833 270,928 L141,1057 L260,1176 L387,1049 Q489,1110 594,1110 Q702,1110 801,1047 L928,1176 L1049,1059 L920,930 Q981,831 981,723 Q981,609 920,514 L1047,389 L928,270 L801,397 Q706,338 594,338 Q474,338 387,397 L260,272 L143,391 L270,516 Q209,611 209,723 M377,723 Q377,632 439.5,569 Q502,506 594,506 Q685,506 750,568 Q815,630 815,723 Q815,816 750,879 Q685,942 594,942 Q502,942 439.5,878 Q377,814 377,723"/> 
            <glyph glyph-name="¥" unicode="&#xA5;" horiz-adv-x="1274" d=" M594,793 L1026,1462 L1274,1462 L756,702 L973,702 L938,547 L664,547 L633,399 L907,399 L874,244 L602,244 L549,0 L328,0 L379,244 L106,244 L139,399 L412,399 L442,547 L170,547 L205,702 L416,702 L217,1462 L449,1462"/> 
            <glyph glyph-name="¦" unicode="&#xA6;" horiz-adv-x="676" d=" M498,1552 L676,1552 L676,758 L498,758 M498,315 L676,315 L676,-481 L498,-481"/> 
            <glyph glyph-name="§" unicode="&#xA7;" horiz-adv-x="1012" d=" M162,764 Q162,952 381,1071 Q334,1103 303,1153 Q272,1203 272,1268 Q272,1406 383.5,1488.5 Q495,1571 680,1571 Q858,1571 1012,1493 L944,1335 Q882,1364 814.5,1385.5 Q747,1407 670,1407 Q584,1407 535.5,1372.5 Q487,1338 487,1278 Q487,1235 523.5,1201.5 Q560,1168 672,1118 Q799,1062 858.5,990.5 Q918,919 918,823 Q918,731 865.5,652 Q813,573 705,512 Q807,436 807,319 Q807,162 684,74 Q561,-14 354,-14 Q166,-14 39,53 L39,240 Q191,147 358,147 Q474,147 532,187.5 Q590,228 590,299 Q590,342 551,378.5 Q512,415 410,463 Q280,523 221,594.5 Q162,666 162,764 M510,987 Q441,961 399.5,908 Q358,855 358,793 Q358,732 404.5,688.5 Q451,645 578,588 Q640,624 677.5,678.5 Q715,733 715,793 Q715,853 665.5,897.5 Q616,942 510,987"/> 
            <glyph glyph-name="¨" unicode="&#xA8;" horiz-adv-x="1047" d=" M426,1380 Q426,1440 461,1478 Q496,1516 559,1516 Q607,1516 635.5,1492.5 Q664,1469 664,1421 Q664,1356 628.5,1319 Q593,1282 535,1282 Q488,1282 457,1305.5 Q426,1329 426,1380 M809,1380 Q809,1440 844,1478 Q879,1516 942,1516 Q990,1516 1018.5,1492.5 Q1047,1469 1047,1421 Q1047,1356 1011.5,1319 Q976,1282 918,1282 Q871,1282 840,1305.5 Q809,1329 809,1380"/> 
            <glyph glyph-name="©" unicode="&#xA9;" horiz-adv-x="1634" d=" M930,1034 Q817,1034 754.5,958 Q692,882 692,727 Q692,426 930,426 Q977,426 1042,442 Q1107,458 1151,477 L1151,319 Q1034,268 911,268 Q714,268 608,391.5 Q502,515 502,727 Q502,943 615.5,1067.5 Q729,1192 928,1192 Q1066,1192 1194,1126 L1126,979 Q1020,1034 930,1034 M131,731 Q131,931 231,1106 Q331,1281 506,1382 Q681,1483 883,1483 Q1082,1483 1256.5,1384 Q1431,1285 1532.5,1108.5 Q1634,932 1634,731 Q1634,532 1535.5,358 Q1437,184 1263,82 Q1089,-20 883,-20 Q676,-20 501,83.5 Q326,187 228.5,360 Q131,533 131,731 M254,731 Q254,563 337,418.5 Q420,274 566,188 Q712,102 883,102 Q1056,102 1202.5,189 Q1349,276 1430,420.5 Q1511,565 1511,731 Q1511,896 1429,1041.5 Q1347,1187 1201.5,1273.5 Q1056,1360 883,1360 Q715,1360 568.5,1275.5 Q422,1191 338,1044.5 Q254,898 254,731"/> 
            <glyph glyph-name="ª" unicode="&#xAA;" horiz-adv-x="827" d=" M498,1479 Q611,1479 664,1376 L670,1376 L709,1466 L827,1466 L680,782 L557,782 L567,887 L563,887 Q513,825 465,797.5 Q417,770 356,770 Q265,770 212.5,836 Q160,902 160,1016 Q160,1144 207,1254.5 Q254,1365 329.5,1422 Q405,1479 498,1479 M412,897 Q462,897 509.5,945 Q557,993 586.5,1072.5 Q616,1152 616,1231 Q616,1350 514,1350 Q432,1350 375.5,1252.5 Q319,1155 319,1022 Q319,897 412,897"/> 
            <glyph glyph-name="«" unicode="&#xAB;" horiz-adv-x="1042" d=" M80,575 L475,995 L610,877 L322,545 L475,176 L297,100 L80,553 M520,555 L905,989 L1042,877 L762,526 L909,176 L729,100 L520,530"/> 
            <glyph glyph-name="¬" unicode="&#xAC;" horiz-adv-x="1053" d=" M1053,811 L1053,256 L874,256 L874,631 L117,631 L117,811"/> 
            <glyph glyph-name="­" unicode="&#xAD;" horiz-adv-x="594" d=" M47,446 L92,649 L594,649 L549,446"/> 
            <glyph glyph-name="®" unicode="&#xAE;" horiz-adv-x="1634" d=" M131,731 Q131,931 231,1106 Q331,1281 506,1382 Q681,1483 883,1483 Q1082,1483 1256.5,1384 Q1431,1285 1532.5,1108.5 Q1634,932 1634,731 Q1634,532 1535.5,358 Q1437,184 1263,82 Q1089,-20 883,-20 Q676,-20 501,83.5 Q326,187 228.5,360 Q131,533 131,731 M254,731 Q254,563 337,418.5 Q420,274 566,188 Q712,102 883,102 Q1056,102 1202.5,189 Q1349,276 1430,420.5 Q1511,565 1511,731 Q1511,896 1429,1041.5 Q1347,1187 1201.5,1273.5 Q1056,1360 883,1360 Q715,1360 568.5,1275.5 Q422,1191 338,1044.5 Q254,898 254,731 M1214,907 Q1214,824 1168.5,762 Q1123,700 1038,664 L1249,291 L1049,291 L877,616 L786,616 L786,291 L608,291 L608,1169 L877,1169 Q1214,1169 1214,907 M786,760 L858,760 Q942,760 987,796 Q1032,832 1032,895 Q1032,968 986.5,996 Q941,1024 858,1024 L786,1024"/> 
            <glyph glyph-name="¯" unicode="&#xAF;" horiz-adv-x="1061" d=" M1020,1556 L111,1556 L150,1722 L1061,1722"/> 
            <glyph glyph-name="°" unicode="&#xB0;" horiz-adv-x="846" d=" M188,1153 Q188,1289 285,1386 Q382,1483 518,1483 Q654,1483 750,1386 Q846,1289 846,1153 Q846,1016 750,921.5 Q654,827 518,827 Q430,827 353,871 Q276,915 232,990 Q188,1065 188,1153 M340,1153 Q340,1083 392,1031 Q444,979 518,979 Q590,979 642,1031 Q694,1083 694,1153 Q694,1227 642.5,1279 Q591,1331 518,1331 Q444,1331 392,1279.5 Q340,1228 340,1153"/> 
            <glyph glyph-name="±" unicode="&#xB1;" horiz-adv-x="1053" d=" M496,657 L117,657 L117,838 L496,838 L496,1219 L676,1219 L676,838 L1053,838 L1053,657 L676,657 L676,283 L496,283 M117,0 L117,180 L1053,180 L1053,0"/> 
            <glyph glyph-name="²" unicode="&#xB2;" horiz-adv-x="784" d=" M682,586 L78,586 L106,721 L375,944 Q486,1039 523.5,1080 Q561,1121 578.5,1157 Q596,1193 596,1231 Q596,1277 568,1303 Q540,1329 492,1329 Q401,1329 301,1249 L221,1372 Q289,1426 363.5,1453.5 Q438,1481 532,1481 Q647,1481 715.5,1421 Q784,1361 784,1266 Q784,1197 760.5,1141.5 Q737,1086 686.5,1031 Q636,976 518,885 L344,743 L715,743"/> 
            <glyph glyph-name="³" unicode="&#xB3;" horiz-adv-x="784" d=" M784,1272 Q784,1182 729.5,1123 Q675,1064 571,1038 L571,1034 Q649,1016 686,967 Q723,918 723,852 Q723,723 623.5,646 Q524,569 354,569 Q216,569 104,625 L104,784 Q230,713 352,713 Q442,713 491.5,750 Q541,787 541,856 Q541,969 395,969 L287,969 L315,1102 L408,1102 Q497,1102 550.5,1136 Q604,1170 604,1235 Q604,1335 487,1335 Q395,1335 299,1270 L231,1391 Q357,1481 522,1481 Q646,1481 715,1425.5 Q784,1370 784,1272"/> 
            <glyph glyph-name="´" unicode="&#xB4;" horiz-adv-x="997" d=" M508,1266 Q605,1374 733,1569 L997,1569 L997,1550 Q943,1484 839,1388.5 Q735,1293 664,1241 L508,1241"/> 
            <glyph glyph-name="µ" unicode="&#xB5;" horiz-adv-x="1171" d=" M358,307 Q358,242 391,206 Q424,170 487,170 Q600,170 696.5,295.5 Q793,421 838,633 L940,1106 L1171,1106 L936,0 L752,0 L774,190 L764,190 Q689,79 611,29.5 Q533,-20 446,-20 Q338,-20 291,61 L283,61 Q274,-12 244,-174 L178,-492 L-55,-492 L283,1106 L518,1106 L377,436 Q358,352 358,307"/> 
            <glyph glyph-name="¶" unicode="&#xB6;" horiz-adv-x="1204" d=" M1204,-260 L1065,-260 L1065,1378 L877,1378 L877,-260 L737,-260 L737,559 Q675,541 592,541 Q376,541 274,666 Q172,791 172,1042 Q172,1302 281,1429 Q390,1556 623,1556 L1204,1556"/> 
            <glyph glyph-name="·" unicode="&#xB7;" horiz-adv-x="451" d=" M150,692 Q150,775 197,824.5 Q244,874 328,874 Q384,874 417.5,842.5 Q451,811 451,750 Q451,672 403.5,620.5 Q356,569 279,569 Q213,569 181.5,604.5 Q150,640 150,692"/> 
            <glyph glyph-name="¸" unicode="&#xB8;" horiz-adv-x="236" d=" M236,-264 Q236,-370 154,-431 Q72,-492 -70,-492 Q-134,-492 -188,-477 L-188,-342 Q-141,-356 -92,-356 Q45,-356 45,-260 Q45,-220 10,-198.5 Q-25,-177 -94,-168 L4,0 L150,0 L100,-96 Q172,-121 204,-163 Q236,-205 236,-264"/> 
            <glyph glyph-name="¹" unicode="&#xB9;" horiz-adv-x="694" d=" M532,1462 L694,1462 L508,586 L317,586 L416,1047 Q433,1126 473,1264 Q452,1244 423.5,1221 Q395,1198 270,1118 L193,1247"/> 
            <glyph glyph-name="º" unicode="&#xBA;" horiz-adv-x="776" d=" M776,1206 Q776,1080 734,981 Q692,882 613,826 Q534,770 424,770 Q302,770 233,843 Q164,916 164,1047 Q164,1169 208,1268.5 Q252,1368 333.5,1423.5 Q415,1479 522,1479 Q646,1479 711,1407.5 Q776,1336 776,1206 M510,1346 Q429,1346 377.5,1258.5 Q326,1171 326,1042 Q326,901 438,901 Q515,901 565.5,988.5 Q616,1076 616,1208 Q616,1346 510,1346"/> 
            <glyph glyph-name="»" unicode="&#xBB;" horiz-adv-x="975" d=" M975,510 L578,92 L444,211 L731,541 L578,911 L758,987 L975,532 M535,530 L150,98 L10,211 L291,559 L145,911 L324,987 L535,555"/> 
            <glyph glyph-name="¼" unicode="&#xBC;" horiz-adv-x="1477" d=" M1429,1462 L346,0 L149,0 L1234,1462 M746,1462 L908,1462 L722,586 L531,586 L630,1047 Q647,1126 687,1264 Q666,1244 637.5,1221 Q609,1198 484,1118 L407,1247 M1448,65713 L1326,65713 L1287,65537 L1104,65537 L1143,65713 L775,65713 L801,65850 L1278,66419 L1475,66419 L1354,65856 L1477,65856 M1172,65856 L1224,66077 L1258,66206 Q1226,66155 1160,66075 L973,65856"/> 
            <glyph glyph-name="½" unicode="&#xBD;" horiz-adv-x="1566" d=" M1401,1462 L318,0 L121,0 L1206,1462 M717,1462 L879,1462 L693,586 L502,586 L601,1047 Q618,1126 658,1264 Q637,1244 608.5,1221 Q580,1198 455,1118 L378,1247 M1464,65537 L860,65537 L888,65672 L1157,65895 Q1268,65990 1305.5,66031 Q1343,66072 1360.5,66108 Q1378,66144 1378,66182 Q1378,66228 1350,66254 Q1322,66280 1274,66280 Q1183,66280 1083,66200 L1003,66323 Q1071,66377 1145.5,66404.5 Q1220,66432 1314,66432 Q1429,66432 1497.5,66372 Q1566,66312 1566,66217 Q1566,66148 1542.5,66092.5 Q1519,66037 1468.5,65982 Q1418,65927 1300,65836 L1126,65694 L1497,65694"/> 
            <glyph glyph-name="¾" unicode="&#xBE;" horiz-adv-x="1583" d=" M1571,1462 L488,0 L291,0 L1376,1462 M1554,65713 L1432,65713 L1393,65537 L1210,65537 L1249,65713 L881,65713 L907,65850 L1384,66419 L1581,66419 L1460,65856 L1583,65856 M1278,65856 L1330,66077 L1364,66206 Q1332,66155 1266,66075 L1079,65856 M788,1272 Q788,1182 733.5,1123 Q679,1064 575,1038 L575,1034 Q653,1016 690,967 Q727,918 727,852 Q727,723 627.5,646 Q528,569 358,569 Q220,569 108,625 L108,784 Q234,713 356,713 Q446,713 495.5,750 Q545,787 545,856 Q545,969 399,969 L291,969 L319,1102 L412,1102 Q501,1102 554.5,1136 Q608,1170 608,1235 Q608,1335 491,1335 Q399,1335 303,1270 L235,1391 Q361,1481 526,1481 Q650,1481 719,1425.5 Q788,1370 788,1272"/> 
            <glyph glyph-name="¿" unicode="&#xBF;" horiz-adv-x="766" d=" M668,643 Q643,497 588.5,412 Q534,327 418,244 Q311,165 272.5,126 Q234,87 215.5,47 Q197,7 197,-41 Q197,-112 239,-155.5 Q281,-199 362,-199 Q438,-199 511.5,-171.5 Q585,-144 664,-106 L739,-283 Q534,-395 330,-395 Q156,-395 60.5,-309.5 Q-35,-224 -35,-68 Q-35,52 29,151 Q93,250 260,367 Q353,431 401,489.5 Q449,548 471,643 M766,993 Q766,908 718,858.5 Q670,809 588,809 Q532,809 498.5,841.5 Q465,874 465,934 Q465,1012 511.5,1063 Q558,1114 637,1114 Q703,1114 734.5,1080 Q766,1046 766,993"/> 
            <glyph glyph-name="À" unicode="&#xC0;" horiz-adv-x="1102" d=" M827,406 L342,406 L133,0 L-121,0 L662,1464 L936,1464 L1102,0 L868,0 M811,614 Q771,1030 765.5,1117.5 Q760,1205 760,1257 Q705,1118 618,950 L446,614 M66451,1579 L66307,1579 Q66242,1642 66175,1730.5 Q66108,1819 66074,1886 L66074,1907 L66319,1907 Q66366,1753 66451,1604"/> 
            <glyph glyph-name="Á" unicode="&#xC1;" horiz-adv-x="1196" d=" M827,406 L342,406 L133,0 L-121,0 L662,1464 L936,1464 L1102,0 L868,0 M811,614 Q771,1030 765.5,1117.5 Q760,1205 760,1257 Q705,1118 618,950 L446,614 M707,1604 Q804,1712 932,1907 L1196,1907 L1196,1888 Q1142,1822 1038,1726.5 Q934,1631 863,1579 L707,1579"/> 
            <glyph glyph-name="Â" unicode="&#xC2;" horiz-adv-x="1157" d=" M827,406 L342,406 L133,0 L-121,0 L662,1464 L936,1464 L1102,0 L868,0 M811,614 Q771,1030 765.5,1117.5 Q760,1205 760,1257 Q705,1118 618,950 L446,614 M1157,1579 L1005,1579 Q929,1642 844,1757 Q713,1647 608,1579 L444,1579 L444,1604 Q582,1732 645,1799.5 Q708,1867 735,1907 L983,1907 Q1021,1808 1157,1604"/> 
            <glyph glyph-name="Ã" unicode="&#xC3;" horiz-adv-x="1227" d=" M827,406 L342,406 L133,0 L-121,0 L662,1464 L936,1464 L1102,0 L868,0 M811,614 Q771,1030 765.5,1117.5 Q760,1205 760,1257 Q705,1118 618,950 L446,614 M967,1579 Q922,1579 884.5,1596 Q847,1613 813,1633.5 Q779,1654 747.5,1671 Q716,1688 684,1688 Q646,1688 621,1660.5 Q596,1633 578,1577 L441,1577 Q498,1862 697,1862 Q743,1862 782,1844.5 Q821,1827 854.5,1806.5 Q888,1786 918,1768.5 Q948,1751 977,1751 Q1017,1751 1042,1777.5 Q1067,1804 1090,1864 L1227,1864 Q1161,1579 967,1579"/> 
            <glyph glyph-name="Ä" unicode="&#xC4;" horiz-adv-x="1139" d=" M827,406 L342,406 L133,0 L-121,0 L662,1464 L936,1464 L1102,0 L868,0 M811,614 Q771,1030 765.5,1117.5 Q760,1205 760,1257 Q705,1118 618,950 L446,614 M518,1718 Q518,1778 553,1816 Q588,1854 651,1854 Q699,1854 727.5,1830.5 Q756,1807 756,1759 Q756,1694 720.5,1657 Q685,1620 627,1620 Q580,1620 549,1643.5 Q518,1667 518,1718 M901,1718 Q901,1778 936,1816 Q971,1854 1034,1854 Q1082,1854 1110.5,1830.5 Q1139,1807 1139,1759 Q1139,1694 1103.5,1657 Q1068,1620 1010,1620 Q963,1620 932,1643.5 Q901,1667 901,1718"/> 
            <glyph glyph-name="Å" unicode="&#xC5;" horiz-adv-x="1102" d=" M827,406 L342,406 L133,0 L-121,0 L662,1464 L936,1464 L1102,0 L868,0 M811,614 Q771,1030 765.5,1117.5 Q760,1205 760,1257 Q705,1118 618,950 L446,614 M1039,1575 Q1039,1471 973,1409.5 Q907,1348 801,1348 Q695,1348 631.5,1409 Q568,1470 568,1573 Q568,1676 633,1737.5 Q698,1799 801,1799 Q905,1799 972,1738.5 Q1039,1678 1039,1575 M908,1573 Q908,1623 878,1651.5 Q848,1680 801,1680 Q756,1680 726.5,1651.5 Q697,1623 697,1573 Q697,1524 723.5,1496.5 Q750,1469 801,1469 Q848,1469 878,1496.5 Q908,1524 908,1573"/> 
            <glyph glyph-name="Æ" unicode="&#xC6;" horiz-adv-x="1829" d=" M1520,0 L743,0 L829,406 L397,406 L141,0 L-121,0 L809,1462 L1829,1462 L1786,1257 L1247,1257 L1163,862 L1667,862 L1624,662 L1122,662 L1024,203 L1563,203 M872,614 L1010,1257 L928,1257 L528,614"/> 
            <glyph glyph-name="Ç" unicode="&#xC7;" horiz-adv-x="1313" d=" M924,1278 Q770,1278 649,1189 Q528,1100 455.5,929.5 Q383,759 383,555 Q383,375 465.5,279.5 Q548,184 709,184 Q850,184 1038,252 L1038,47 Q858,-20 664,-20 Q416,-20 275.5,128.5 Q135,277 135,545 Q135,805 240.5,1028 Q346,1251 522,1367 Q698,1483 924,1483 Q1141,1483 1313,1391 L1219,1196 Q1156,1230 1085,1254 Q1014,1278 924,1278 M791,-264 Q791,-370 709,-431 Q627,-492 485,-492 Q421,-492 367,-477 L367,-342 Q414,-356 463,-356 Q600,-356 600,-260 Q600,-220 565,-198.5 Q530,-177 461,-168 L559,0 L705,0 L655,-96 Q727,-121 759,-163 Q791,-205 791,-264"/> 
            <glyph glyph-name="È" unicode="&#xC8;" horiz-adv-x="1155" d=" M846,0 L70,0 L379,1462 L1155,1462 L1112,1257 L573,1257 L489,862 L991,862 L950,659 L446,659 L350,203 L889,203 M66439,1579 L66295,1579 Q66230,1642 66163,1730.5 Q66096,1819 66062,1886 L66062,1907 L66307,1907 Q66354,1753 66439,1604"/> 
            <glyph glyph-name="É" unicode="&#xC9;" horiz-adv-x="1155" d=" M846,0 L70,0 L379,1462 L1155,1462 L1112,1257 L573,1257 L489,862 L991,862 L950,659 L446,659 L350,203 L889,203 M633,1604 Q730,1712 858,1907 L1122,1907 L1122,1888 Q1068,1822 964,1726.5 Q860,1631 789,1579 L633,1579"/> 
            <glyph glyph-name="Ê" unicode="&#xCA;" horiz-adv-x="1155" d=" M846,0 L70,0 L379,1462 L1155,1462 L1112,1257 L573,1257 L489,862 L991,862 L950,659 L446,659 L350,203 L889,203 M1130,1579 L978,1579 Q902,1642 817,1757 Q686,1647 581,1579 L417,1579 L417,1604 Q555,1732 618,1799.5 Q681,1867 708,1907 L956,1907 Q994,1808 1130,1604"/> 
            <glyph glyph-name="Ë" unicode="&#xCB;" horiz-adv-x="1155" d=" M846,0 L70,0 L379,1462 L1155,1462 L1112,1257 L573,1257 L489,862 L991,862 L950,659 L446,659 L350,203 L889,203 M479,1718 Q479,1778 514,1816 Q549,1854 612,1854 Q660,1854 688.5,1830.5 Q717,1807 717,1759 Q717,1694 681.5,1657 Q646,1620 588,1620 Q541,1620 510,1643.5 Q479,1667 479,1718 M862,1718 Q862,1778 897,1816 Q932,1854 995,1854 Q1043,1854 1071.5,1830.5 Q1100,1807 1100,1759 Q1100,1694 1064.5,1657 Q1029,1620 971,1620 Q924,1620 893,1643.5 Q862,1667 862,1718"/> 
            <glyph glyph-name="Ì" unicode="&#xCC;" horiz-adv-x="630" d=" M70,0 L381,1462 L616,1462 L305,0 M66166,1579 L66022,1579 Q65957,1642 65890,1730.5 Q65823,1819 65789,1886 L65789,1907 L66034,1907 Q66081,1753 66166,1604"/> 
            <glyph glyph-name="Í" unicode="&#xCD;" horiz-adv-x="904" d=" M70,0 L381,1462 L616,1462 L305,0 M65951,1604 Q66048,1712 66176,1907 L66440,1907 L66440,1888 Q66386,1822 66282,1726.5 Q66178,1631 66107,1579 L65951,1579"/> 
            <glyph glyph-name="Î" unicode="&#xCE;" horiz-adv-x="873" d=" M70,0 L381,1462 L616,1462 L305,0 M66409,1579 L66257,1579 Q66181,1642 66096,1757 Q65965,1647 65860,1579 L65696,1579 L65696,1604 Q65834,1732 65897,1799.5 Q65960,1867 65987,1907 L66235,1907 Q66273,1808 66409,1604"/> 
            <glyph glyph-name="Ï" unicode="&#xCF;" horiz-adv-x="864" d=" M70,0 L381,1462 L616,1462 L305,0 M65779,1718 Q65779,1778 65814,1816 Q65849,1854 65912,1854 Q65960,1854 65988.5,1830.5 Q66017,1807 66017,1759 Q66017,1694 65981.5,1657 Q65946,1620 65888,1620 Q65841,1620 65810,1643.5 Q65779,1667 65779,1718 M66162,1718 Q66162,1778 66197,1816 Q66232,1854 66295,1854 Q66343,1854 66371.5,1830.5 Q66400,1807 66400,1759 Q66400,1694 66364.5,1657 Q66329,1620 66271,1620 Q66224,1620 66193,1643.5 Q66162,1667 66162,1718"/> 
            <glyph glyph-name="Ð" unicode="&#xD0;" horiz-adv-x="1311" d=" M1311,893 Q1311,622 1211,420 Q1111,218 920,109 Q729,0 471,0 L70,0 L199,623 L53,623 L98,823 L242,823 L379,1462 L748,1462 Q1019,1462 1165,1317 Q1311,1172 1311,893 M483,201 Q660,201 792,287 Q924,373 994.5,529 Q1065,685 1065,885 Q1065,1069 977,1165.5 Q889,1262 721,1262 L575,1262 L481,823 L766,823 L721,623 L438,623 L348,201"/> 
            <glyph glyph-name="Ñ" unicode="&#xD1;" horiz-adv-x="1501" d=" M1192,0 L932,0 L522,1163 L516,1163 L506,1094 Q482,945 470.5,881.5 Q459,818 287,0 L68,0 L377,1462 L645,1462 L1044,313 L1051,313 Q1057,367 1082,505.5 Q1107,644 1122,709 L1282,1462 L1501,1462 M1108,1579 Q1063,1579 1025.5,1596 Q988,1613 954,1633.5 Q920,1654 888.5,1671 Q857,1688 825,1688 Q787,1688 762,1660.5 Q737,1633 719,1577 L582,1577 Q639,1862 838,1862 Q884,1862 923,1844.5 Q962,1827 995.5,1806.5 Q1029,1786 1059,1768.5 Q1089,1751 1118,1751 Q1158,1751 1183,1777.5 Q1208,1804 1231,1864 L1368,1864 Q1302,1579 1108,1579"/> 
            <glyph glyph-name="Ò" unicode="&#xD2;" horiz-adv-x="1421" d=" M1421,922 Q1421,643 1326,425 Q1231,207 1064.5,93.5 Q898,-20 678,-20 Q419,-20 277,129.5 Q135,279 135,543 Q135,810 233.5,1030.5 Q332,1251 503,1368 Q674,1485 891,1485 Q1142,1485 1281.5,1336 Q1421,1187 1421,922 M872,1280 Q734,1280 622,1184 Q510,1088 446.5,917.5 Q383,747 383,545 Q383,372 464.5,278 Q546,184 692,184 Q830,184 940.5,279.5 Q1051,375 1112.5,544.5 Q1174,714 1174,920 Q1174,1090 1095,1185 Q1016,1280 872,1280 M1029,1579 L885,1579 Q820,1642 753,1730.5 Q686,1819 652,1886 L652,1907 L897,1907 Q944,1753 1029,1604"/> 
            <glyph glyph-name="Ó" unicode="&#xD3;" horiz-adv-x="1421" d=" M1421,922 Q1421,643 1326,425 Q1231,207 1064.5,93.5 Q898,-20 678,-20 Q419,-20 277,129.5 Q135,279 135,543 Q135,810 233.5,1030.5 Q332,1251 503,1368 Q674,1485 891,1485 Q1142,1485 1281.5,1336 Q1421,1187 1421,922 M872,1280 Q734,1280 622,1184 Q510,1088 446.5,917.5 Q383,747 383,545 Q383,372 464.5,278 Q546,184 692,184 Q830,184 940.5,279.5 Q1051,375 1112.5,544.5 Q1174,714 1174,920 Q1174,1090 1095,1185 Q1016,1280 872,1280 M787,1604 Q884,1712 1012,1907 L1276,1907 L1276,1888 Q1222,1822 1118,1726.5 Q1014,1631 943,1579 L787,1579"/> 
            <glyph glyph-name="Ô" unicode="&#xD4;" horiz-adv-x="1421" d=" M1421,922 Q1421,643 1326,425 Q1231,207 1064.5,93.5 Q898,-20 678,-20 Q419,-20 277,129.5 Q135,279 135,543 Q135,810 233.5,1030.5 Q332,1251 503,1368 Q674,1485 891,1485 Q1142,1485 1281.5,1336 Q1421,1187 1421,922 M872,1280 Q734,1280 622,1184 Q510,1088 446.5,917.5 Q383,747 383,545 Q383,372 464.5,278 Q546,184 692,184 Q830,184 940.5,279.5 Q1051,375 1112.5,544.5 Q1174,714 1174,920 Q1174,1090 1095,1185 Q1016,1280 872,1280 M1268,1579 L1116,1579 Q1040,1642 955,1757 Q824,1647 719,1579 L555,1579 L555,1604 Q693,1732 756,1799.5 Q819,1867 846,1907 L1094,1907 Q1132,1808 1268,1604"/> 
            <glyph glyph-name="Õ" unicode="&#xD5;" horiz-adv-x="1421" d=" M1421,922 Q1421,643 1326,425 Q1231,207 1064.5,93.5 Q898,-20 678,-20 Q419,-20 277,129.5 Q135,279 135,543 Q135,810 233.5,1030.5 Q332,1251 503,1368 Q674,1485 891,1485 Q1142,1485 1281.5,1336 Q1421,1187 1421,922 M872,1280 Q734,1280 622,1184 Q510,1088 446.5,917.5 Q383,747 383,545 Q383,372 464.5,278 Q546,184 692,184 Q830,184 940.5,279.5 Q1051,375 1112.5,544.5 Q1174,714 1174,920 Q1174,1090 1095,1185 Q1016,1280 872,1280 M1069,1579 Q1024,1579 986.5,1596 Q949,1613 915,1633.5 Q881,1654 849.5,1671 Q818,1688 786,1688 Q748,1688 723,1660.5 Q698,1633 680,1577 L543,1577 Q600,1862 799,1862 Q845,1862 884,1844.5 Q923,1827 956.5,1806.5 Q990,1786 1020,1768.5 Q1050,1751 1079,1751 Q1119,1751 1144,1777.5 Q1169,1804 1192,1864 L1329,1864 Q1263,1579 1069,1579"/> 
            <glyph glyph-name="Ö" unicode="&#xD6;" horiz-adv-x="1421" d=" M1421,922 Q1421,643 1326,425 Q1231,207 1064.5,93.5 Q898,-20 678,-20 Q419,-20 277,129.5 Q135,279 135,543 Q135,810 233.5,1030.5 Q332,1251 503,1368 Q674,1485 891,1485 Q1142,1485 1281.5,1336 Q1421,1187 1421,922 M872,1280 Q734,1280 622,1184 Q510,1088 446.5,917.5 Q383,747 383,545 Q383,372 464.5,278 Q546,184 692,184 Q830,184 940.5,279.5 Q1051,375 1112.5,544.5 Q1174,714 1174,920 Q1174,1090 1095,1185 Q1016,1280 872,1280 M623,1718 Q623,1778 658,1816 Q693,1854 756,1854 Q804,1854 832.5,1830.5 Q861,1807 861,1759 Q861,1694 825.5,1657 Q790,1620 732,1620 Q685,1620 654,1643.5 Q623,1667 623,1718 M1006,1718 Q1006,1778 1041,1816 Q1076,1854 1139,1854 Q1187,1854 1215.5,1830.5 Q1244,1807 1244,1759 Q1244,1694 1208.5,1657 Q1173,1620 1115,1620 Q1068,1620 1037,1643.5 Q1006,1667 1006,1718"/> 
            <glyph glyph-name="×" unicode="&#xD7;" horiz-adv-x="1024" d=" M457,723 L147,1034 L272,1159 L584,850 L897,1159 L1024,1036 L709,723 L1020,410 L897,287 L584,596 L272,289 L150,412"/> 
            <glyph glyph-name="Ø" unicode="&#xD8;" horiz-adv-x="1460" d=" M1421,922 Q1421,643 1326,425 Q1231,207 1064.5,93.5 Q898,-20 678,-20 Q485,-20 360,63 L242,-86 L109,18 L238,178 Q135,316 135,543 Q135,810 233.5,1030.5 Q332,1251 503,1368 Q674,1485 891,1485 Q1080,1485 1208,1391 L1327,1540 L1460,1436 L1327,1270 Q1421,1140 1421,922 M872,1282 Q731,1282 619,1189 Q507,1096 442,924 Q377,752 377,545 Q377,457 401,381 L1069,1217 Q989,1282 872,1282 M1180,920 Q1180,1008 1161,1063 L500,238 Q575,182 694,182 Q833,182 944.5,277.5 Q1056,373 1118,542 Q1180,711 1180,920"/> 
            <glyph glyph-name="Ù" unicode="&#xD9;" horiz-adv-x="1419" d=" M1419,1462 L1217,506 Q1161,239 1009,109.5 Q857,-20 606,-20 Q389,-20 270.5,86 Q152,192 152,391 Q152,474 172,561 L365,1462 L602,1462 L410,557 Q389,469 389,399 Q389,297 448.5,240.5 Q508,184 629,184 Q774,184 859,264.5 Q944,345 983,526 L1182,1462 M996,1579 L852,1579 Q787,1642 720,1730.5 Q653,1819 619,1886 L619,1907 L864,1907 Q911,1753 996,1604"/> 
            <glyph glyph-name="Ú" unicode="&#xDA;" horiz-adv-x="1419" d=" M1419,1462 L1217,506 Q1161,239 1009,109.5 Q857,-20 606,-20 Q389,-20 270.5,86 Q152,192 152,391 Q152,474 172,561 L365,1462 L602,1462 L410,557 Q389,469 389,399 Q389,297 448.5,240.5 Q508,184 629,184 Q774,184 859,264.5 Q944,345 983,526 L1182,1462 M791,1604 Q888,1712 1016,1907 L1280,1907 L1280,1888 Q1226,1822 1122,1726.5 Q1018,1631 947,1579 L791,1579"/> 
            <glyph glyph-name="Û" unicode="&#xDB;" horiz-adv-x="1419" d=" M1419,1462 L1217,506 Q1161,239 1009,109.5 Q857,-20 606,-20 Q389,-20 270.5,86 Q152,192 152,391 Q152,474 172,561 L365,1462 L602,1462 L410,557 Q389,469 389,399 Q389,297 448.5,240.5 Q508,184 629,184 Q774,184 859,264.5 Q944,345 983,526 L1182,1462 M1249,1579 L1097,1579 Q1021,1642 936,1757 Q805,1647 700,1579 L536,1579 L536,1604 Q674,1732 737,1799.5 Q800,1867 827,1907 L1075,1907 Q1113,1808 1249,1604"/> 
            <glyph glyph-name="Ü" unicode="&#xDC;" horiz-adv-x="1419" d=" M1419,1462 L1217,506 Q1161,239 1009,109.5 Q857,-20 606,-20 Q389,-20 270.5,86 Q152,192 152,391 Q152,474 172,561 L365,1462 L602,1462 L410,557 Q389,469 389,399 Q389,297 448.5,240.5 Q508,184 629,184 Q774,184 859,264.5 Q944,345 983,526 L1182,1462 M602,1718 Q602,1778 637,1816 Q672,1854 735,1854 Q783,1854 811.5,1830.5 Q840,1807 840,1759 Q840,1694 804.5,1657 Q769,1620 711,1620 Q664,1620 633,1643.5 Q602,1667 602,1718 M985,1718 Q985,1778 1020,1816 Q1055,1854 1118,1854 Q1166,1854 1194.5,1830.5 Q1223,1807 1223,1759 Q1223,1694 1187.5,1657 Q1152,1620 1094,1620 Q1047,1620 1016,1643.5 Q985,1667 985,1718"/> 
            <glyph glyph-name="Ý" unicode="&#xDD;" horiz-adv-x="1280" d=" M582,793 L1014,1462 L1280,1462 L657,549 L543,0 L305,0 L424,553 L186,1462 L428,1462 M610,1604 Q707,1712 835,1907 L1099,1907 L1099,1888 Q1045,1822 941,1726.5 Q837,1631 766,1579 L610,1579"/> 
            <glyph glyph-name="Þ" unicode="&#xDE;" horiz-adv-x="1124" d=" M1124,817 Q1124,574 957.5,439.5 Q791,305 481,305 L373,305 L307,0 L70,0 L379,1462 L616,1462 L565,1219 L662,1219 Q889,1219 1006.5,1118 Q1124,1017 1124,817 M414,506 L510,506 Q686,506 784.5,584.5 Q883,663 883,811 Q883,920 823.5,969 Q764,1018 643,1018 L522,1018"/> 
            <glyph glyph-name="ß" unicode="&#xDF;" horiz-adv-x="1206" d=" M-117,-492 Q-186,-492 -258,-469 L-258,-276 Q-197,-297 -145,-297 Q-80,-297 -38.5,-253.5 Q3,-210 25,-106 L287,1128 Q335,1359 460,1461 Q585,1563 809,1563 Q997,1563 1101.5,1483 Q1206,1403 1206,1268 Q1206,1099 1027,969 Q909,882 878.5,849.5 Q848,817 848,782 Q848,738 922,681 Q1029,597 1065,554 Q1101,511 1120,461.5 Q1139,412 1139,352 Q1139,180 1023,80 Q907,-20 709,-20 Q527,-20 426,45 L426,246 Q552,160 678,160 Q783,160 842,204 Q901,248 901,328 Q901,376 877.5,413 Q854,450 766,520 Q684,584 645,641.5 Q606,699 606,768 Q606,843 650.5,907 Q695,971 786,1031 Q884,1097 924.5,1143 Q965,1189 965,1241 Q965,1306 918,1342 Q871,1378 786,1378 Q576,1378 524,1139 L260,-121 Q218,-318 125.5,-405 Q33,-492 -117,-492"/> 
            <glyph glyph-name="à" unicode="&#xE0;" horiz-adv-x="1151" d=" M399,-20 Q258,-20 176,81.5 Q94,183 94,367 Q94,569 163.5,745 Q233,921 355,1023.5 Q477,1126 623,1126 Q720,1126 790,1080.5 Q860,1035 899,948 L909,948 L971,1106 L1151,1106 L915,0 L733,0 L754,176 L748,176 Q590,-20 399,-20 M485,170 Q567,170 646,247.5 Q725,325 776,455 Q827,585 827,739 Q827,827 780,880.5 Q733,934 657,934 Q572,934 497,857 Q422,780 377,647.5 Q332,515 332,373 Q332,271 372.5,220.5 Q413,170 485,170 M1103,1241 L959,1241 Q894,1304 827,1392.5 Q760,1481 726,1548 L726,1569 L971,1569 Q1018,1415 1103,1266"/> 
            <glyph glyph-name="á" unicode="&#xE1;" horiz-adv-x="1151" d=" M399,-20 Q258,-20 176,81.5 Q94,183 94,367 Q94,569 163.5,745 Q233,921 355,1023.5 Q477,1126 623,1126 Q720,1126 790,1080.5 Q860,1035 899,948 L909,948 L971,1106 L1151,1106 L915,0 L733,0 L754,176 L748,176 Q590,-20 399,-20 M485,170 Q567,170 646,247.5 Q725,325 776,455 Q827,585 827,739 Q827,827 780,880.5 Q733,934 657,934 Q572,934 497,857 Q422,780 377,647.5 Q332,515 332,373 Q332,271 372.5,220.5 Q413,170 485,170 M598,1266 Q695,1374 823,1569 L1087,1569 L1087,1550 Q1033,1484 929,1388.5 Q825,1293 754,1241 L598,1241"/> 
            <glyph glyph-name="â" unicode="&#xE2;" horiz-adv-x="1151" d=" M399,-20 Q258,-20 176,81.5 Q94,183 94,367 Q94,569 163.5,745 Q233,921 355,1023.5 Q477,1126 623,1126 Q720,1126 790,1080.5 Q860,1035 899,948 L909,948 L971,1106 L1151,1106 L915,0 L733,0 L754,176 L748,176 Q590,-20 399,-20 M485,170 Q567,170 646,247.5 Q725,325 776,455 Q827,585 827,739 Q827,827 780,880.5 Q733,934 657,934 Q572,934 497,857 Q422,780 377,647.5 Q332,515 332,373 Q332,271 372.5,220.5 Q413,170 485,170 M1320,1241 L1168,1241 Q1092,1304 1007,1419 Q876,1309 771,1241 L607,1241 L607,1266 Q745,1394 808,1461.5 Q871,1529 898,1569 L1146,1569 Q1184,1470 1320,1266"/> 
            <glyph glyph-name="ã" unicode="&#xE3;" horiz-adv-x="1151" d=" M399,-20 Q258,-20 176,81.5 Q94,183 94,367 Q94,569 163.5,745 Q233,921 355,1023.5 Q477,1126 623,1126 Q720,1126 790,1080.5 Q860,1035 899,948 L909,948 L971,1106 L1151,1106 L915,0 L733,0 L754,176 L748,176 Q590,-20 399,-20 M485,170 Q567,170 646,247.5 Q725,325 776,455 Q827,585 827,739 Q827,827 780,880.5 Q733,934 657,934 Q572,934 497,857 Q422,780 377,647.5 Q332,515 332,373 Q332,271 372.5,220.5 Q413,170 485,170 M870,1241 Q825,1241 787.5,1258 Q750,1275 716,1295.5 Q682,1316 650.5,1333 Q619,1350 587,1350 Q549,1350 524,1322.5 Q499,1295 481,1239 L344,1239 Q401,1524 600,1524 Q646,1524 685,1506.5 Q724,1489 757.5,1468.5 Q791,1448 821,1430.5 Q851,1413 880,1413 Q920,1413 945,1439.5 Q970,1466 993,1526 L1130,1526 Q1064,1241 870,1241"/> 
            <glyph glyph-name="ä" unicode="&#xE4;" horiz-adv-x="1151" d=" M399,-20 Q258,-20 176,81.5 Q94,183 94,367 Q94,569 163.5,745 Q233,921 355,1023.5 Q477,1126 623,1126 Q720,1126 790,1080.5 Q860,1035 899,948 L909,948 L971,1106 L1151,1106 L915,0 L733,0 L754,176 L748,176 Q590,-20 399,-20 M485,170 Q567,170 646,247.5 Q725,325 776,455 Q827,585 827,739 Q827,827 780,880.5 Q733,934 657,934 Q572,934 497,857 Q422,780 377,647.5 Q332,515 332,373 Q332,271 372.5,220.5 Q413,170 485,170 M681,1380 Q681,1440 716,1478 Q751,1516 814,1516 Q862,1516 890.5,1492.5 Q919,1469 919,1421 Q919,1356 883.5,1319 Q848,1282 790,1282 Q743,1282 712,1305.5 Q681,1329 681,1380 M1064,1380 Q1064,1440 1099,1478 Q1134,1516 1197,1516 Q1245,1516 1273.5,1492.5 Q1302,1469 1302,1421 Q1302,1356 1266.5,1319 Q1231,1282 1173,1282 Q1126,1282 1095,1305.5 Q1064,1329 1064,1380"/> 
            <glyph glyph-name="å" unicode="&#xE5;" horiz-adv-x="1151" d=" M399,-20 Q258,-20 176,81.5 Q94,183 94,367 Q94,569 163.5,745 Q233,921 355,1023.5 Q477,1126 623,1126 Q720,1126 790,1080.5 Q860,1035 899,948 L909,948 L971,1106 L1151,1106 L915,0 L733,0 L754,176 L748,176 Q590,-20 399,-20 M485,170 Q567,170 646,247.5 Q725,325 776,455 Q827,585 827,739 Q827,827 780,880.5 Q733,934 657,934 Q572,934 497,857 Q422,780 377,647.5 Q332,515 332,373 Q332,271 372.5,220.5 Q413,170 485,170 M1244,1466 Q1244,1362 1178,1300.5 Q1112,1239 1006,1239 Q900,1239 836.5,1300 Q773,1361 773,1464 Q773,1567 838,1628.5 Q903,1690 1006,1690 Q1110,1690 1177,1629.5 Q1244,1569 1244,1466 M1113,1464 Q1113,1514 1083,1542.5 Q1053,1571 1006,1571 Q961,1571 931.5,1542.5 Q902,1514 902,1464 Q902,1415 928.5,1387.5 Q955,1360 1006,1360 Q1053,1360 1083,1387.5 Q1113,1415 1113,1464"/> 
            <glyph glyph-name="æ" unicode="&#xE6;" horiz-adv-x="1679" d=" M1186,-20 Q964,-20 881,117 L858,0 L707,0 L727,176 L719,176 Q634,70 553.5,25 Q473,-20 379,-20 Q245,-20 169.5,83 Q94,186 94,367 Q94,568 163,745 Q232,922 351.5,1024 Q471,1126 612,1126 Q700,1126 764,1082.5 Q828,1039 872,948 L881,948 L944,1106 L1092,1106 L1067,989 Q1118,1052 1198,1089 Q1278,1126 1378,1126 Q1518,1126 1598.5,1049.5 Q1679,973 1679,848 Q1679,666 1512.5,563.5 Q1346,461 1038,461 L993,461 L989,401 Q989,284 1049.5,224 Q1110,164 1225,164 Q1350,164 1530,248 L1530,59 Q1355,-20 1186,-20 M465,170 Q550,170 627.5,250.5 Q705,331 753,466 Q801,601 801,733 Q801,824 762.5,879 Q724,934 649,934 Q564,934 489.5,854 Q415,774 373.5,643 Q332,512 332,373 Q332,268 369,219 Q406,170 465,170 M1333,946 Q1230,946 1144.5,860 Q1059,774 1022,633 L1053,633 Q1240,633 1346,686.5 Q1452,740 1452,836 Q1452,894 1418,920 Q1384,946 1333,946"/> 
            <glyph glyph-name="ç" unicode="&#xE7;" horiz-adv-x="973" d=" M506,-20 Q310,-20 202,86 Q94,192 94,389 Q94,596 167.5,765.5 Q241,935 374,1030.5 Q507,1126 676,1126 Q840,1126 973,1065 L903,881 Q781,934 682,934 Q532,934 432,780.5 Q332,627 332,401 Q332,290 388,230 Q444,170 543,170 Q617,170 681.5,192 Q746,214 811,246 L811,51 Q671,-20 506,-20 M621,-264 Q621,-370 539,-431 Q457,-492 315,-492 Q251,-492 197,-477 L197,-342 Q244,-356 293,-356 Q430,-356 430,-260 Q430,-220 395,-198.5 Q360,-177 291,-168 L389,0 L535,0 L485,-96 Q557,-121 589,-163 Q621,-205 621,-264"/> 
            <glyph glyph-name="è" unicode="&#xE8;" horiz-adv-x="1018" d=" M664,946 Q568,946 483.5,860 Q399,774 362,633 L391,633 Q579,633 685,686.5 Q791,740 791,838 Q791,889 759,917.5 Q727,946 664,946 M512,-20 Q315,-20 204.5,91 Q94,202 94,401 Q94,599 171.5,769.5 Q249,940 381.5,1033 Q514,1126 678,1126 Q839,1126 928.5,1053.5 Q1018,981 1018,848 Q1018,666 851.5,563.5 Q685,461 377,461 L334,461 L332,430 L332,401 Q332,290 388.5,227 Q445,164 557,164 Q629,164 700,183 Q771,202 868,248 L868,61 Q772,17 691.5,-1.5 Q611,-20 512,-20 M1069,1241 L925,1241 Q860,1304 793,1392.5 Q726,1481 692,1548 L692,1569 L937,1569 Q984,1415 1069,1266"/> 
            <glyph glyph-name="é" unicode="&#xE9;" horiz-adv-x="1046" d=" M664,946 Q568,946 483.5,860 Q399,774 362,633 L391,633 Q579,633 685,686.5 Q791,740 791,838 Q791,889 759,917.5 Q727,946 664,946 M512,-20 Q315,-20 204.5,91 Q94,202 94,401 Q94,599 171.5,769.5 Q249,940 381.5,1033 Q514,1126 678,1126 Q839,1126 928.5,1053.5 Q1018,981 1018,848 Q1018,666 851.5,563.5 Q685,461 377,461 L334,461 L332,430 L332,401 Q332,290 388.5,227 Q445,164 557,164 Q629,164 700,183 Q771,202 868,248 L868,61 Q772,17 691.5,-1.5 Q611,-20 512,-20 M557,1266 Q654,1374 782,1569 L1046,1569 L1046,1550 Q992,1484 888,1388.5 Q784,1293 713,1241 L557,1241"/> 
            <glyph glyph-name="ê" unicode="&#xEA;" horiz-adv-x="1033" d=" M664,946 Q568,946 483.5,860 Q399,774 362,633 L391,633 Q579,633 685,686.5 Q791,740 791,838 Q791,889 759,917.5 Q727,946 664,946 M512,-20 Q315,-20 204.5,91 Q94,202 94,401 Q94,599 171.5,769.5 Q249,940 381.5,1033 Q514,1126 678,1126 Q839,1126 928.5,1053.5 Q1018,981 1018,848 Q1018,666 851.5,563.5 Q685,461 377,461 L334,461 L332,430 L332,401 Q332,290 388.5,227 Q445,164 557,164 Q629,164 700,183 Q771,202 868,248 L868,61 Q772,17 691.5,-1.5 Q611,-20 512,-20 M1289,1241 L1137,1241 Q1061,1304 976,1419 Q845,1309 740,1241 L576,1241 L576,1266 Q714,1394 777,1461.5 Q840,1529 867,1569 L1115,1569 Q1153,1470 1289,1266"/> 
            <glyph glyph-name="ë" unicode="&#xEB;" horiz-adv-x="1018" d=" M664,946 Q568,946 483.5,860 Q399,774 362,633 L391,633 Q579,633 685,686.5 Q791,740 791,838 Q791,889 759,917.5 Q727,946 664,946 M512,-20 Q315,-20 204.5,91 Q94,202 94,401 Q94,599 171.5,769.5 Q249,940 381.5,1033 Q514,1126 678,1126 Q839,1126 928.5,1053.5 Q1018,981 1018,848 Q1018,666 851.5,563.5 Q685,461 377,461 L334,461 L332,430 L332,401 Q332,290 388.5,227 Q445,164 557,164 Q629,164 700,183 Q771,202 868,248 L868,61 Q772,17 691.5,-1.5 Q611,-20 512,-20 M644,1380 Q644,1440 679,1478 Q714,1516 777,1516 Q825,1516 853.5,1492.5 Q882,1469 882,1421 Q882,1356 846.5,1319 Q811,1282 753,1282 Q706,1282 675,1305.5 Q644,1329 644,1380 M1027,1380 Q1027,1440 1062,1478 Q1097,1516 1160,1516 Q1208,1516 1236.5,1492.5 Q1265,1469 1265,1421 Q1265,1356 1229.5,1319 Q1194,1282 1136,1282 Q1089,1282 1058,1305.5 Q1027,1329 1027,1380"/> 
            <glyph glyph-name="ì" unicode="&#xEC;" horiz-adv-x="536" d=" M283,0 L47,0 L283,1106 L518,1106 M66072,1241 L65928,1241 Q65863,1304 65796,1392.5 Q65729,1481 65695,1548 L65695,1569 L65940,1569 Q65987,1415 66072,1266"/> 
            <glyph glyph-name="í" unicode="&#xED;" horiz-adv-x="797" d=" M283,0 L47,0 L283,1106 L518,1106 M65844,1266 Q65941,1374 66069,1569 L66333,1569 L66333,1550 Q66279,1484 66175,1388.5 Q66071,1293 66000,1241 L65844,1241"/> 
            <glyph glyph-name="î" unicode="&#xEE;" horiz-adv-x="777" d=" M283,0 L47,0 L283,1106 L518,1106 M66313,1241 L66161,1241 Q66085,1304 66000,1419 Q65869,1309 65764,1241 L65600,1241 L65600,1266 Q65738,1394 65801,1461.5 Q65864,1529 65891,1569 L66139,1569 Q66177,1470 66313,1266"/> 
            <glyph glyph-name="ï" unicode="&#xEF;" horiz-adv-x="763" d=" M283,0 L47,0 L283,1106 L518,1106 M65678,1380 Q65678,1440 65713,1478 Q65748,1516 65811,1516 Q65859,1516 65887.5,1492.5 Q65916,1469 65916,1421 Q65916,1356 65880.5,1319 Q65845,1282 65787,1282 Q65740,1282 65709,1305.5 Q65678,1329 65678,1380 M66061,1380 Q66061,1440 66096,1478 Q66131,1516 66194,1516 Q66242,1516 66270.5,1492.5 Q66299,1469 66299,1421 Q66299,1356 66263.5,1319 Q66228,1282 66170,1282 Q66123,1282 66092,1305.5 Q66061,1329 66061,1380"/> 
            <glyph glyph-name="ð" unicode="&#xF0;" horiz-adv-x="1147" d=" M647,1325 Q603,1366 512,1421 L618,1573 Q747,1501 827,1427 L1077,1565 L1147,1438 L930,1317 Q1085,1112 1085,805 Q1085,550 1012,360.5 Q939,171 808,75.5 Q677,-20 496,-20 Q299,-20 189.5,87 Q80,194 80,389 Q80,551 145.5,688 Q211,825 330,903 Q449,981 596,981 Q692,981 764,942.5 Q836,904 877,834 L883,834 Q873,1077 750,1217 L500,1075 L428,1204 M508,162 Q600,162 669.5,221.5 Q739,281 778,380.5 Q817,480 817,586 Q817,683 765,741 Q713,799 621,799 Q530,799 460.5,743 Q391,687 354,589.5 Q317,492 317,377 Q317,273 366,217.5 Q415,162 508,162"/> 
            <glyph glyph-name="ñ" unicode="&#xF1;" horiz-adv-x="1149" d=" M702,0 L844,672 Q862,762 862,803 Q862,934 733,934 Q661,934 591,877 Q521,820 465,712.5 Q409,605 381,469 L283,0 L47,0 L283,1106 L467,1106 L446,901 L455,901 Q538,1019 626,1072.5 Q714,1126 817,1126 Q951,1126 1024.5,1050 Q1098,974 1098,834 Q1098,765 1075,653 L938,0 M889,1241 Q844,1241 806.5,1258 Q769,1275 735,1295.5 Q701,1316 669.5,1333 Q638,1350 606,1350 Q568,1350 543,1322.5 Q518,1295 500,1239 L363,1239 Q420,1524 619,1524 Q665,1524 704,1506.5 Q743,1489 776.5,1468.5 Q810,1448 840,1430.5 Q870,1413 899,1413 Q939,1413 964,1439.5 Q989,1466 1012,1526 L1149,1526 Q1083,1241 889,1241"/> 
            <glyph glyph-name="ò" unicode="&#xF2;" horiz-adv-x="1079" d=" M842,702 Q842,809 793,869.5 Q744,930 653,930 Q560,930 486.5,858.5 Q413,787 372.5,664.5 Q332,542 332,403 Q332,292 381.5,233 Q431,174 528,174 Q618,174 690,242 Q762,310 802,432.5 Q842,555 842,702 M1079,692 Q1079,490 1006,324.5 Q933,159 805.5,70.5 Q678,-18 512,-18 Q320,-18 207,96.5 Q94,211 94,408 Q94,607 165.5,773 Q237,939 366,1031.5 Q495,1124 664,1124 Q859,1124 969,1008 Q1079,892 1079,692 M1077,1241 L933,1241 Q868,1304 801,1392.5 Q734,1481 700,1548 L700,1569 L945,1569 Q992,1415 1077,1266"/> 
            <glyph glyph-name="ó" unicode="&#xF3;" horiz-adv-x="1079" d=" M842,702 Q842,809 793,869.5 Q744,930 653,930 Q560,930 486.5,858.5 Q413,787 372.5,664.5 Q332,542 332,403 Q332,292 381.5,233 Q431,174 528,174 Q618,174 690,242 Q762,310 802,432.5 Q842,555 842,702 M1079,692 Q1079,490 1006,324.5 Q933,159 805.5,70.5 Q678,-18 512,-18 Q320,-18 207,96.5 Q94,211 94,408 Q94,607 165.5,773 Q237,939 366,1031.5 Q495,1124 664,1124 Q859,1124 969,1008 Q1079,892 1079,692 M580,1266 Q677,1374 805,1569 L1069,1569 L1069,1550 Q1015,1484 911,1388.5 Q807,1293 736,1241 L580,1241"/> 
            <glyph glyph-name="ô" unicode="&#xF4;" horiz-adv-x="1079" d=" M842,702 Q842,809 793,869.5 Q744,930 653,930 Q560,930 486.5,858.5 Q413,787 372.5,664.5 Q332,542 332,403 Q332,292 381.5,233 Q431,174 528,174 Q618,174 690,242 Q762,310 802,432.5 Q842,555 842,702 M1079,692 Q1079,490 1006,324.5 Q933,159 805.5,70.5 Q678,-18 512,-18 Q320,-18 207,96.5 Q94,211 94,408 Q94,607 165.5,773 Q237,939 366,1031.5 Q495,1124 664,1124 Q859,1124 969,1008 Q1079,892 1079,692 M1310,1241 L1158,1241 Q1082,1304 997,1419 Q866,1309 761,1241 L597,1241 L597,1266 Q735,1394 798,1461.5 Q861,1529 888,1569 L1136,1569 Q1174,1470 1310,1266"/> 
            <glyph glyph-name="õ" unicode="&#xF5;" horiz-adv-x="1114" d=" M842,702 Q842,809 793,869.5 Q744,930 653,930 Q560,930 486.5,858.5 Q413,787 372.5,664.5 Q332,542 332,403 Q332,292 381.5,233 Q431,174 528,174 Q618,174 690,242 Q762,310 802,432.5 Q842,555 842,702 M1079,692 Q1079,490 1006,324.5 Q933,159 805.5,70.5 Q678,-18 512,-18 Q320,-18 207,96.5 Q94,211 94,408 Q94,607 165.5,773 Q237,939 366,1031.5 Q495,1124 664,1124 Q859,1124 969,1008 Q1079,892 1079,692 M854,1241 Q809,1241 771.5,1258 Q734,1275 700,1295.5 Q666,1316 634.5,1333 Q603,1350 571,1350 Q533,1350 508,1322.5 Q483,1295 465,1239 L328,1239 Q385,1524 584,1524 Q630,1524 669,1506.5 Q708,1489 741.5,1468.5 Q775,1448 805,1430.5 Q835,1413 864,1413 Q904,1413 929,1439.5 Q954,1466 977,1526 L1114,1526 Q1048,1241 854,1241"/> 
            <glyph glyph-name="ö" unicode="&#xF6;" horiz-adv-x="1079" d=" M842,702 Q842,809 793,869.5 Q744,930 653,930 Q560,930 486.5,858.5 Q413,787 372.5,664.5 Q332,542 332,403 Q332,292 381.5,233 Q431,174 528,174 Q618,174 690,242 Q762,310 802,432.5 Q842,555 842,702 M1079,692 Q1079,490 1006,324.5 Q933,159 805.5,70.5 Q678,-18 512,-18 Q320,-18 207,96.5 Q94,211 94,408 Q94,607 165.5,773 Q237,939 366,1031.5 Q495,1124 664,1124 Q859,1124 969,1008 Q1079,892 1079,692 M665,1380 Q665,1440 700,1478 Q735,1516 798,1516 Q846,1516 874.5,1492.5 Q903,1469 903,1421 Q903,1356 867.5,1319 Q832,1282 774,1282 Q727,1282 696,1305.5 Q665,1329 665,1380 M1048,1380 Q1048,1440 1083,1478 Q1118,1516 1181,1516 Q1229,1516 1257.5,1492.5 Q1286,1469 1286,1421 Q1286,1356 1250.5,1319 Q1215,1282 1157,1282 Q1110,1282 1079,1305.5 Q1048,1329 1048,1380"/> 
            <glyph glyph-name="÷" unicode="&#xF7;" horiz-adv-x="1053" d=" M117,631 L117,811 L1053,811 L1053,631 M459,373 Q459,437 490.5,472.5 Q522,508 584,508 Q646,508 678.5,472 Q711,436 711,373 Q711,309 676.5,272.5 Q642,236 584,236 Q526,236 492.5,271.5 Q459,307 459,373 M459,1071 Q459,1135 490.5,1170.5 Q522,1206 584,1206 Q646,1206 678.5,1170 Q711,1134 711,1071 Q711,1007 676.5,970.5 Q642,934 584,934 Q526,934 492.5,969.5 Q459,1005 459,1071"/> 
            <glyph glyph-name="ø" unicode="&#xF8;" horiz-adv-x="1114" d=" M1077,700 Q1077,492 1003,324 Q929,156 802.5,69 Q676,-18 514,-18 Q377,-18 279,41 L174,-90 L51,6 L166,147 Q96,251 96,408 Q96,608 166.5,773 Q237,938 366,1031 Q495,1124 664,1124 Q800,1124 903,1063 L989,1171 L1114,1075 L1014,958 Q1077,858 1077,700 M653,936 Q512,936 418,790.5 Q324,645 324,426 Q324,387 332,352 L774,901 Q729,936 653,936 M528,168 Q617,168 691,234.5 Q765,301 807.5,418.5 Q850,536 850,676 Q850,721 844,743 L408,201 Q449,168 528,168"/> 
            <glyph glyph-name="ù" unicode="&#xF9;" horiz-adv-x="1159" d=" M506,1106 L377,496 Q346,355 346,303 Q346,170 473,170 Q545,170 616,227 Q687,284 742,389.5 Q797,495 827,637 L926,1106 L1159,1106 L926,0 L741,0 L762,205 L754,205 Q672,89 583,34.5 Q494,-20 391,-20 Q257,-20 184,56 Q111,132 111,274 Q111,337 123,398.5 Q135,460 147,522 L270,1106 M1079,1241 L935,1241 Q870,1304 803,1392.5 Q736,1481 702,1548 L702,1569 L947,1569 Q994,1415 1079,1266"/> 
            <glyph glyph-name="ú" unicode="&#xFA;" horiz-adv-x="1159" d=" M506,1106 L377,496 Q346,355 346,303 Q346,170 473,170 Q545,170 616,227 Q687,284 742,389.5 Q797,495 827,637 L926,1106 L1159,1106 L926,0 L741,0 L762,205 L754,205 Q672,89 583,34.5 Q494,-20 391,-20 Q257,-20 184,56 Q111,132 111,274 Q111,337 123,398.5 Q135,460 147,522 L270,1106 M623,1266 Q720,1374 848,1569 L1112,1569 L1112,1550 Q1058,1484 954,1388.5 Q850,1293 779,1241 L623,1241"/> 
            <glyph glyph-name="û" unicode="&#xFB;" horiz-adv-x="1159" d=" M506,1106 L377,496 Q346,355 346,303 Q346,170 473,170 Q545,170 616,227 Q687,284 742,389.5 Q797,495 827,637 L926,1106 L1159,1106 L926,0 L741,0 L762,205 L754,205 Q672,89 583,34.5 Q494,-20 391,-20 Q257,-20 184,56 Q111,132 111,274 Q111,337 123,398.5 Q135,460 147,522 L270,1106 M1083,1241 L931,1241 Q855,1304 770,1419 Q639,1309 534,1241 L370,1241 L370,1266 Q508,1394 571,1461.5 Q634,1529 661,1569 L909,1569 Q947,1470 1083,1266"/> 
            <glyph glyph-name="ü" unicode="&#xFC;" horiz-adv-x="1159" d=" M506,1106 L377,496 Q346,355 346,303 Q346,170 473,170 Q545,170 616,227 Q687,284 742,389.5 Q797,495 827,637 L926,1106 L1159,1106 L926,0 L741,0 L762,205 L754,205 Q672,89 583,34.5 Q494,-20 391,-20 Q257,-20 184,56 Q111,132 111,274 Q111,337 123,398.5 Q135,460 147,522 L270,1106 M432,1380 Q432,1440 467,1478 Q502,1516 565,1516 Q613,1516 641.5,1492.5 Q670,1469 670,1421 Q670,1356 634.5,1319 Q599,1282 541,1282 Q494,1282 463,1305.5 Q432,1329 432,1380 M815,1380 Q815,1440 850,1478 Q885,1516 948,1516 Q996,1516 1024.5,1492.5 Q1053,1469 1053,1421 Q1053,1356 1017.5,1319 Q982,1282 924,1282 Q877,1282 846,1305.5 Q815,1329 815,1380"/> 
            <glyph glyph-name="ý" unicode="&#xFD;" horiz-adv-x="1106" d=" M100,1106 L332,1106 L395,575 Q404,513 411,400.5 Q418,288 418,219 L424,219 Q510,434 559,532 L852,1106 L1106,1106 L418,-174 Q328,-339 222,-415.5 Q116,-492 -27,-492 Q-103,-492 -170,-473 L-170,-285 Q-95,-301 -45,-301 Q29,-301 89,-257.5 Q149,-214 213,-102 L264,-10 M757,1266 Q854,1374 982,1569 L1246,1569 L1246,1550 Q1192,1484 1088,1388.5 Q984,1293 913,1241 L757,1241"/> 
            <glyph glyph-name="þ" unicode="&#xFE;" horiz-adv-x="1104" d=" M586,-20 Q492,-20 421,25.5 Q350,71 307,156 L299,156 Q292,65 274,-29 L178,-492 L-55,-492 L377,1556 L612,1556 Q564,1333 539,1217 Q514,1101 463,926 L471,926 Q626,1126 799,1126 Q943,1126 1023.5,1024 Q1104,922 1104,737 Q1104,533 1036,355.5 Q968,178 851.5,79 Q735,-20 586,-20 M707,934 Q623,934 544,853 Q465,772 417,639.5 Q369,507 369,373 Q369,275 415,222.5 Q461,170 547,170 Q633,170 706.5,247 Q780,324 823,456 Q866,588 866,733 Q866,833 825,883.5 Q784,934 707,934"/> 
            <glyph glyph-name="ÿ" unicode="&#xFF;" horiz-adv-x="1106" d=" M100,1106 L332,1106 L395,575 Q404,513 411,400.5 Q418,288 418,219 L424,219 Q510,434 559,532 L852,1106 L1106,1106 L418,-174 Q328,-339 222,-415.5 Q116,-492 -27,-492 Q-103,-492 -170,-473 L-170,-285 Q-95,-301 -45,-301 Q29,-301 89,-257.5 Q149,-214 213,-102 L264,-10 M579,1380 Q579,1440 614,1478 Q649,1516 712,1516 Q760,1516 788.5,1492.5 Q817,1469 817,1421 Q817,1356 781.5,1319 Q746,1282 688,1282 Q641,1282 610,1305.5 Q579,1329 579,1380 M962,1380 Q962,1440 997,1478 Q1032,1516 1095,1516 Q1143,1516 1171.5,1492.5 Q1200,1469 1200,1421 Q1200,1356 1164.5,1319 Q1129,1282 1071,1282 Q1024,1282 993,1305.5 Q962,1329 962,1380"/> 
            <glyph glyph-name="Ā" unicode="&#x100;" horiz-adv-x="1137" d=" M827,406 L342,406 L133,0 L-121,0 L662,1464 L936,1464 L1102,0 L868,0 M811,614 Q771,1030 765.5,1117.5 Q760,1205 760,1257 Q705,1118 618,950 L446,614 M555,1755 L1137,1755 L1100,1579 L518,1579"/> 
            <glyph glyph-name="ā" unicode="&#x101;" horiz-adv-x="1151" d=" M399,-20 Q258,-20 176,81.5 Q94,183 94,367 Q94,569 163.5,745 Q233,921 355,1023.5 Q477,1126 623,1126 Q720,1126 790,1080.5 Q860,1035 899,948 L909,948 L971,1106 L1151,1106 L915,0 L733,0 L754,176 L748,176 Q590,-20 399,-20 M485,170 Q567,170 646,247.5 Q725,325 776,455 Q827,585 827,739 Q827,827 780,880.5 Q733,934 657,934 Q572,934 497,857 Q422,780 377,647.5 Q332,515 332,373 Q332,271 372.5,220.5 Q413,170 485,170 M467,1417 L1049,1417 L1012,1241 L430,1241"/> 
            <glyph glyph-name="Ă" unicode="&#x102;" horiz-adv-x="1170" d=" M827,406 L342,406 L133,0 L-121,0 L662,1464 L936,1464 L1102,0 L868,0 M811,614 Q771,1030 765.5,1117.5 Q760,1205 760,1257 Q705,1118 618,950 L446,614 M1170,1882 Q1139,1727 1050,1653 Q961,1579 809,1579 Q676,1579 600.5,1645 Q525,1711 525,1827 Q525,1863 529,1882 L664,1882 Q664,1819 700.5,1788 Q737,1757 824,1757 Q912,1757 959.5,1788 Q1007,1819 1022,1882"/> 
            <glyph glyph-name="ă" unicode="&#x103;" horiz-adv-x="1151" d=" M399,-20 Q258,-20 176,81.5 Q94,183 94,367 Q94,569 163.5,745 Q233,921 355,1023.5 Q477,1126 623,1126 Q720,1126 790,1080.5 Q860,1035 899,948 L909,948 L971,1106 L1151,1106 L915,0 L733,0 L754,176 L748,176 Q590,-20 399,-20 M485,170 Q567,170 646,247.5 Q725,325 776,455 Q827,585 827,739 Q827,827 780,880.5 Q733,934 657,934 Q572,934 497,857 Q422,780 377,647.5 Q332,515 332,373 Q332,271 372.5,220.5 Q413,170 485,170 M1347,1544 Q1316,1389 1227,1315 Q1138,1241 986,1241 Q853,1241 777.5,1307 Q702,1373 702,1489 Q702,1525 706,1544 L841,1544 Q841,1481 877.5,1450 Q914,1419 1001,1419 Q1089,1419 1136.5,1450 Q1184,1481 1199,1544"/> 
            <glyph glyph-name="Ą" unicode="&#x104;" horiz-adv-x="1102" d=" M827,406 L342,406 L133,0 L-121,0 L662,1464 L936,1464 L1102,0 L868,0 M811,614 Q771,1030 765.5,1117.5 Q760,1205 760,1257 Q705,1118 618,950 L446,614 M1030,0 Q919,-88 879.5,-145.5 Q840,-203 840,-254 Q840,-286 857,-302.5 Q874,-319 903,-319 Q941,-319 995,-305 L995,-446 Q930,-467 858,-467 Q767,-467 712,-420 Q657,-373 657,-289 Q657,-208 704.5,-141 Q752,-74 872,0"/> 
            <glyph glyph-name="ą" unicode="&#x105;" horiz-adv-x="1151" d=" M399,-20 Q258,-20 176,81.5 Q94,183 94,367 Q94,569 163.5,745 Q233,921 355,1023.5 Q477,1126 623,1126 Q720,1126 790,1080.5 Q860,1035 899,948 L909,948 L971,1106 L1151,1106 L915,0 L733,0 L754,176 L748,176 Q590,-20 399,-20 M485,170 Q567,170 646,247.5 Q725,325 776,455 Q827,585 827,739 Q827,827 780,880.5 Q733,934 657,934 Q572,934 497,857 Q422,780 377,647.5 Q332,515 332,373 Q332,271 372.5,220.5 Q413,170 485,170 M889,0 Q778,-88 738.5,-145.5 Q699,-203 699,-254 Q699,-286 716,-302.5 Q733,-319 762,-319 Q800,-319 854,-305 L854,-446 Q789,-467 717,-467 Q626,-467 571,-420 Q516,-373 516,-289 Q516,-208 563.5,-141 Q611,-74 731,0"/> 
            <glyph glyph-name="Ć" unicode="&#x106;" horiz-adv-x="1313" d=" M924,1278 Q770,1278 649,1189 Q528,1100 455.5,929.5 Q383,759 383,555 Q383,375 465.5,279.5 Q548,184 709,184 Q850,184 1038,252 L1038,47 Q858,-20 664,-20 Q416,-20 275.5,128.5 Q135,277 135,545 Q135,805 240.5,1028 Q346,1251 522,1367 Q698,1483 924,1483 Q1141,1483 1313,1391 L1219,1196 Q1156,1230 1085,1254 Q1014,1278 924,1278 M791,1604 Q888,1712 1016,1907 L1280,1907 L1280,1888 Q1226,1822 1122,1726.5 Q1018,1631 947,1579 L791,1579"/> 
            <glyph glyph-name="ć" unicode="&#x107;" horiz-adv-x="1044" d=" M506,-20 Q310,-20 202,86 Q94,192 94,389 Q94,596 167.5,765.5 Q241,935 374,1030.5 Q507,1126 676,1126 Q840,1126 973,1065 L903,881 Q781,934 682,934 Q532,934 432,780.5 Q332,627 332,401 Q332,290 388,230 Q444,170 543,170 Q617,170 681.5,192 Q746,214 811,246 L811,51 Q671,-20 506,-20 M555,1266 Q652,1374 780,1569 L1044,1569 L1044,1550 Q990,1484 886,1388.5 Q782,1293 711,1241 L555,1241"/> 
            <glyph glyph-name="Ĉ" unicode="&#x108;" horiz-adv-x="1313" d=" M924,1278 Q770,1278 649,1189 Q528,1100 455.5,929.5 Q383,759 383,555 Q383,375 465.5,279.5 Q548,184 709,184 Q850,184 1038,252 L1038,47 Q858,-20 664,-20 Q416,-20 275.5,128.5 Q135,277 135,545 Q135,805 240.5,1028 Q346,1251 522,1367 Q698,1483 924,1483 Q1141,1483 1313,1391 L1219,1196 Q1156,1230 1085,1254 Q1014,1278 924,1278 M1260,1579 L1108,1579 Q1032,1642 947,1757 Q816,1647 711,1579 L547,1579 L547,1604 Q685,1732 748,1799.5 Q811,1867 838,1907 L1086,1907 Q1124,1808 1260,1604"/> 
            <glyph glyph-name="ĉ" unicode="&#x109;" horiz-adv-x="1013" d=" M506,-20 Q310,-20 202,86 Q94,192 94,389 Q94,596 167.5,765.5 Q241,935 374,1030.5 Q507,1126 676,1126 Q840,1126 973,1065 L903,881 Q781,934 682,934 Q532,934 432,780.5 Q332,627 332,401 Q332,290 388,230 Q444,170 543,170 Q617,170 681.5,192 Q746,214 811,246 L811,51 Q671,-20 506,-20 M1269,1241 L1117,1241 Q1041,1304 956,1419 Q825,1309 720,1241 L556,1241 L556,1266 Q694,1394 757,1461.5 Q820,1529 847,1569 L1095,1569 Q1133,1470 1269,1266"/> 
            <glyph glyph-name="Ċ" unicode="&#x10A;" horiz-adv-x="1313" d=" M924,1278 Q770,1278 649,1189 Q528,1100 455.5,929.5 Q383,759 383,555 Q383,375 465.5,279.5 Q548,184 709,184 Q850,184 1038,252 L1038,47 Q858,-20 664,-20 Q416,-20 275.5,128.5 Q135,277 135,545 Q135,805 240.5,1028 Q346,1251 522,1367 Q698,1483 924,1483 Q1141,1483 1313,1391 L1219,1196 Q1156,1230 1085,1254 Q1014,1278 924,1278 M797,1716 Q797,1784 836,1826 Q875,1868 946,1868 Q999,1868 1032,1841.5 Q1065,1815 1065,1761 Q1065,1690 1024.5,1649 Q984,1608 919,1608 Q867,1608 832,1634 Q797,1660 797,1716"/> 
            <glyph glyph-name="ċ" unicode="&#x10B;" horiz-adv-x="973" d=" M506,-20 Q310,-20 202,86 Q94,192 94,389 Q94,596 167.5,765.5 Q241,935 374,1030.5 Q507,1126 676,1126 Q840,1126 973,1065 L903,881 Q781,934 682,934 Q532,934 432,780.5 Q332,627 332,401 Q332,290 388,230 Q444,170 543,170 Q617,170 681.5,192 Q746,214 811,246 L811,51 Q671,-20 506,-20 M566,1378 Q566,1446 605,1488 Q644,1530 715,1530 Q768,1530 801,1503.5 Q834,1477 834,1423 Q834,1352 793.5,1311 Q753,1270 688,1270 Q636,1270 601,1296 Q566,1322 566,1378"/> 
            <glyph glyph-name="Č" unicode="&#x10C;" horiz-adv-x="1313" d=" M924,1278 Q770,1278 649,1189 Q528,1100 455.5,929.5 Q383,759 383,555 Q383,375 465.5,279.5 Q548,184 709,184 Q850,184 1038,252 L1038,47 Q858,-20 664,-20 Q416,-20 275.5,128.5 Q135,277 135,545 Q135,805 240.5,1028 Q346,1251 522,1367 Q698,1483 924,1483 Q1141,1483 1313,1391 L1219,1196 Q1156,1230 1085,1254 Q1014,1278 924,1278 M574,1907 L723,1907 Q792,1849 885,1729 Q1010,1834 1123,1907 L1285,1907 L1285,1880 Q1205,1809 1116,1717.5 Q1027,1626 994,1579 L746,1579 Q702,1689 574,1880"/> 
            <glyph glyph-name="č" unicode="&#x10D;" horiz-adv-x="1066" d=" M506,-20 Q310,-20 202,86 Q94,192 94,389 Q94,596 167.5,765.5 Q241,935 374,1030.5 Q507,1126 676,1126 Q840,1126 973,1065 L903,881 Q781,934 682,934 Q532,934 432,780.5 Q332,627 332,401 Q332,290 388,230 Q444,170 543,170 Q617,170 681.5,192 Q746,214 811,246 L811,51 Q671,-20 506,-20 M611,1569 L760,1569 Q829,1511 922,1391 Q1047,1496 1160,1569 L1322,1569 L1322,1542 Q1242,1471 1153,1379.5 Q1064,1288 1031,1241 L783,1241 Q739,1351 611,1542"/> 
            <glyph glyph-name="Ď" unicode="&#x10E;" horiz-adv-x="1311" d=" M1311,893 Q1311,622 1211,420 Q1111,218 920,109 Q729,0 471,0 L70,0 L379,1462 L748,1462 Q1019,1462 1165,1317 Q1311,1172 1311,893 M483,201 Q660,201 792,287 Q924,373 994.5,529 Q1065,685 1065,885 Q1065,1069 977,1165.5 Q889,1262 721,1262 L575,1262 L348,201 M514,1907 L663,1907 Q732,1849 825,1729 Q950,1834 1063,1907 L1225,1907 L1225,1880 Q1145,1809 1056,1717.5 Q967,1626 934,1579 L686,1579 Q642,1689 514,1880"/> 
            <glyph glyph-name="ď" unicode="&#x10F;" horiz-adv-x="1630" d=" M623,1126 Q802,1126 891,948 L899,948 Q912,1094 936,1198 L1012,1556 L1245,1556 L915,0 L731,0 L750,176 L743,176 Q655,70 573,25 Q491,-20 399,-20 Q256,-20 175,81.5 Q94,183 94,369 Q94,574 165.5,752 Q237,930 357,1028 Q477,1126 623,1126 M489,170 Q571,170 651.5,252 Q732,334 780.5,466 Q829,598 829,733 Q829,824 785.5,879 Q742,934 653,934 Q568,934 494,857 Q420,780 376,646 Q332,512 332,373 Q332,170 489,170 M1272,1255 Q1352,1399 1409,1556 L1630,1556 L1630,1536 Q1597,1467 1529,1374.5 Q1461,1282 1407,1229 L1272,1229"/> 
            <glyph glyph-name="Đ" unicode="&#x110;" horiz-adv-x="1311" d=" M1311,893 Q1311,622 1211,420 Q1111,218 920,109 Q729,0 471,0 L70,0 L199,623 L53,623 L98,823 L242,823 L379,1462 L748,1462 Q1019,1462 1165,1317 Q1311,1172 1311,893 M483,201 Q660,201 792,287 Q924,373 994.5,529 Q1065,685 1065,885 Q1065,1069 977,1165.5 Q889,1262 721,1262 L575,1262 L481,823 L766,823 L721,623 L438,623 L348,201"/> 
            <glyph glyph-name="đ" unicode="&#x111;" horiz-adv-x="1360" d=" M614,1100 Q797,1100 887,930 L895,930 Q900,1005 918,1110 L940,1219 L606,1219 L639,1382 L975,1382 L1012,1556 L1245,1556 L1208,1382 L1360,1382 L1325,1219 L1174,1219 L915,0 L731,0 L750,176 L743,176 Q661,73 578.5,26.5 Q496,-20 403,-20 Q257,-20 175.5,84 Q94,188 94,369 Q94,561 161,733 Q228,905 346,1002.5 Q464,1100 614,1100 M492,170 Q572,170 649.5,247 Q727,324 777,452 Q827,580 827,713 Q827,800 785,853.5 Q743,907 651,907 Q564,907 490.5,833.5 Q417,760 374.5,635 Q332,510 332,373 Q332,170 492,170"/> 
            <glyph glyph-name="Ē" unicode="&#x112;" horiz-adv-x="1155" d=" M846,0 L70,0 L379,1462 L1155,1462 L1112,1257 L573,1257 L489,862 L991,862 L950,659 L446,659 L350,203 L889,203 M520,1755 L1102,1755 L1065,1579 L483,1579"/> 
            <glyph glyph-name="ē" unicode="&#x113;" horiz-adv-x="1018" d=" M664,946 Q568,946 483.5,860 Q399,774 362,633 L391,633 Q579,633 685,686.5 Q791,740 791,838 Q791,889 759,917.5 Q727,946 664,946 M512,-20 Q315,-20 204.5,91 Q94,202 94,401 Q94,599 171.5,769.5 Q249,940 381.5,1033 Q514,1126 678,1126 Q839,1126 928.5,1053.5 Q1018,981 1018,848 Q1018,666 851.5,563.5 Q685,461 377,461 L334,461 L332,430 L332,401 Q332,290 388.5,227 Q445,164 557,164 Q629,164 700,183 Q771,202 868,248 L868,61 Q772,17 691.5,-1.5 Q611,-20 512,-20 M436,1417 L1018,1417 L981,1241 L399,1241"/> 
            <glyph glyph-name="Ĕ" unicode="&#x114;" horiz-adv-x="1155" d=" M846,0 L70,0 L379,1462 L1155,1462 L1112,1257 L573,1257 L489,862 L991,862 L950,659 L446,659 L350,203 L889,203 M1143,1882 Q1112,1727 1023,1653 Q934,1579 782,1579 Q649,1579 573.5,1645 Q498,1711 498,1827 Q498,1863 502,1882 L637,1882 Q637,1819 673.5,1788 Q710,1757 797,1757 Q885,1757 932.5,1788 Q980,1819 995,1882"/> 
            <glyph glyph-name="ĕ" unicode="&#x115;" horiz-adv-x="1064" d=" M664,946 Q568,946 483.5,860 Q399,774 362,633 L391,633 Q579,633 685,686.5 Q791,740 791,838 Q791,889 759,917.5 Q727,946 664,946 M512,-20 Q315,-20 204.5,91 Q94,202 94,401 Q94,599 171.5,769.5 Q249,940 381.5,1033 Q514,1126 678,1126 Q839,1126 928.5,1053.5 Q1018,981 1018,848 Q1018,666 851.5,563.5 Q685,461 377,461 L334,461 L332,430 L332,401 Q332,290 388.5,227 Q445,164 557,164 Q629,164 700,183 Q771,202 868,248 L868,61 Q772,17 691.5,-1.5 Q611,-20 512,-20 M1320,1544 Q1289,1389 1200,1315 Q1111,1241 959,1241 Q826,1241 750.5,1307 Q675,1373 675,1489 Q675,1525 679,1544 L814,1544 Q814,1481 850.5,1450 Q887,1419 974,1419 Q1062,1419 1109.5,1450 Q1157,1481 1172,1544"/> 
            <glyph glyph-name="Ė" unicode="&#x116;" horiz-adv-x="1155" d=" M846,0 L70,0 L379,1462 L1155,1462 L1112,1257 L573,1257 L489,862 L991,862 L950,659 L446,659 L350,203 L889,203 M646,1687 Q646,1755 685,1797 Q724,1839 795,1839 Q848,1839 881,1812.5 Q914,1786 914,1732 Q914,1661 873.5,1620 Q833,1579 768,1579 Q716,1579 681,1605 Q646,1631 646,1687"/> 
            <glyph glyph-name="ė" unicode="&#x117;" horiz-adv-x="1018" d=" M664,946 Q568,946 483.5,860 Q399,774 362,633 L391,633 Q579,633 685,686.5 Q791,740 791,838 Q791,889 759,917.5 Q727,946 664,946 M512,-20 Q315,-20 204.5,91 Q94,202 94,401 Q94,599 171.5,769.5 Q249,940 381.5,1033 Q514,1126 678,1126 Q839,1126 928.5,1053.5 Q1018,981 1018,848 Q1018,666 851.5,563.5 Q685,461 377,461 L334,461 L332,430 L332,401 Q332,290 388.5,227 Q445,164 557,164 Q629,164 700,183 Q771,202 868,248 L868,61 Q772,17 691.5,-1.5 Q611,-20 512,-20 M576,1378 Q576,1446 615,1488 Q654,1530 725,1530 Q778,1530 811,1503.5 Q844,1477 844,1423 Q844,1352 803.5,1311 Q763,1270 698,1270 Q646,1270 611,1296 Q576,1322 576,1378"/> 
            <glyph glyph-name="Ę" unicode="&#x118;" horiz-adv-x="1155" d=" M846,0 L70,0 L379,1462 L1155,1462 L1112,1257 L573,1257 L489,862 L991,862 L950,659 L446,659 L350,203 L889,203 M772,0 Q661,-88 621.5,-145.5 Q582,-203 582,-254 Q582,-286 599,-302.5 Q616,-319 645,-319 Q683,-319 737,-305 L737,-446 Q672,-467 600,-467 Q509,-467 454,-420 Q399,-373 399,-289 Q399,-208 446.5,-141 Q494,-74 614,0"/> 
            <glyph glyph-name="ę" unicode="&#x119;" horiz-adv-x="1018" d=" M664,946 Q568,946 483.5,860 Q399,774 362,633 L391,633 Q579,633 685,686.5 Q791,740 791,838 Q791,889 759,917.5 Q727,946 664,946 M512,-20 Q315,-20 204.5,91 Q94,202 94,401 Q94,599 171.5,769.5 Q249,940 381.5,1033 Q514,1126 678,1126 Q839,1126 928.5,1053.5 Q1018,981 1018,848 Q1018,666 851.5,563.5 Q685,461 377,461 L334,461 L332,430 L332,401 Q332,290 388.5,227 Q445,164 557,164 Q629,164 700,183 Q771,202 868,248 L868,61 Q772,17 691.5,-1.5 Q611,-20 512,-20 M709,25 Q598,-63 558.5,-120.5 Q519,-178 519,-229 Q519,-261 536,-277.5 Q553,-294 582,-294 Q620,-294 674,-280 L674,-421 Q609,-442 537,-442 Q446,-442 391,-395 Q336,-348 336,-264 Q336,-183 383.5,-116 Q431,-49 551,25"/> 
            <glyph glyph-name="Ě" unicode="&#x11A;" horiz-adv-x="1178" d=" M846,0 L70,0 L379,1462 L1155,1462 L1112,1257 L573,1257 L489,862 L991,862 L950,659 L446,659 L350,203 L889,203 M467,1907 L616,1907 Q685,1849 778,1729 Q903,1834 1016,1907 L1178,1907 L1178,1880 Q1098,1809 1009,1717.5 Q920,1626 887,1579 L639,1579 Q595,1689 467,1880"/> 
            <glyph glyph-name="ě" unicode="&#x11B;" horiz-adv-x="1095" d=" M664,946 Q568,946 483.5,860 Q399,774 362,633 L391,633 Q579,633 685,686.5 Q791,740 791,838 Q791,889 759,917.5 Q727,946 664,946 M512,-20 Q315,-20 204.5,91 Q94,202 94,401 Q94,599 171.5,769.5 Q249,940 381.5,1033 Q514,1126 678,1126 Q839,1126 928.5,1053.5 Q1018,981 1018,848 Q1018,666 851.5,563.5 Q685,461 377,461 L334,461 L332,430 L332,401 Q332,290 388.5,227 Q445,164 557,164 Q629,164 700,183 Q771,202 868,248 L868,61 Q772,17 691.5,-1.5 Q611,-20 512,-20 M640,1569 L789,1569 Q858,1511 951,1391 Q1076,1496 1189,1569 L1351,1569 L1351,1542 Q1271,1471 1182,1379.5 Q1093,1288 1060,1241 L812,1241 Q768,1351 640,1542"/> 
            <glyph glyph-name="Ĝ" unicode="&#x11C;" horiz-adv-x="1372" d=" M786,793 L1298,793 L1141,57 Q1029,17 922.5,-1.5 Q816,-20 684,-20 Q423,-20 279,126 Q135,272 135,539 Q135,803 237.5,1022 Q340,1241 527.5,1362 Q715,1483 954,1483 Q1065,1483 1167,1462.5 Q1269,1442 1372,1393 L1282,1190 Q1108,1276 948,1276 Q790,1276 661,1185.5 Q532,1095 457.5,927.5 Q383,760 383,555 Q383,372 472,278 Q561,184 725,184 Q834,184 940,217 L1020,588 L743,588 M1264,1579 L1112,1579 Q1036,1642 951,1757 Q820,1647 715,1579 L551,1579 L551,1604 Q689,1732 752,1799.5 Q815,1867 842,1907 L1090,1907 Q1128,1808 1264,1604"/> 
            <glyph glyph-name="ĝ" unicode="&#x11D;" horiz-adv-x="1143" d=" M1143,1106 L1112,969 L920,936 Q948,878 948,799 Q948,606 829,492.5 Q710,379 510,379 Q458,379 418,387 Q307,347 307,283 Q307,245 338.5,231 Q370,217 430,209 L557,193 Q733,171 809,105.5 Q885,40 885,-82 Q885,-278 734,-385 Q583,-492 305,-492 Q102,-492 -9.5,-417 Q-121,-342 -121,-211 Q-121,-108 -51.5,-33 Q18,42 172,94 Q96,139 96,221 Q96,290 142.5,340.5 Q189,391 289,438 Q154,519 154,690 Q154,886 276.5,1006 Q399,1126 600,1126 Q680,1126 760,1106 M324,18 Q212,0 152,-53 Q92,-106 92,-184 Q92,-249 147.5,-287.5 Q203,-326 317,-326 Q480,-326 572,-272 Q664,-218 664,-117 Q664,-66 619,-37 Q574,-8 461,4 M594,969 Q529,969 480,930.5 Q431,892 404,825.5 Q377,759 377,680 Q377,609 412.5,570.5 Q448,532 514,532 Q579,532 626.5,571 Q674,610 700.5,678 Q727,746 727,827 Q727,969 594,969 M1069,1241 L917,1241 Q841,1304 756,1419 Q625,1309 520,1241 L356,1241 L356,1266 Q494,1394 557,1461.5 Q620,1529 647,1569 L895,1569 Q933,1470 1069,1266"/> 
            <glyph glyph-name="Ğ" unicode="&#x11E;" horiz-adv-x="1372" d=" M786,793 L1298,793 L1141,57 Q1029,17 922.5,-1.5 Q816,-20 684,-20 Q423,-20 279,126 Q135,272 135,539 Q135,803 237.5,1022 Q340,1241 527.5,1362 Q715,1483 954,1483 Q1065,1483 1167,1462.5 Q1269,1442 1372,1393 L1282,1190 Q1108,1276 948,1276 Q790,1276 661,1185.5 Q532,1095 457.5,927.5 Q383,760 383,555 Q383,372 472,278 Q561,184 725,184 Q834,184 940,217 L1020,588 L743,588 M1268,1882 Q1237,1727 1148,1653 Q1059,1579 907,1579 Q774,1579 698.5,1645 Q623,1711 623,1827 Q623,1863 627,1882 L762,1882 Q762,1819 798.5,1788 Q835,1757 922,1757 Q1010,1757 1057.5,1788 Q1105,1819 1120,1882"/> 
            <glyph glyph-name="ğ" unicode="&#x11F;" horiz-adv-x="1143" d=" M1143,1106 L1112,969 L920,936 Q948,878 948,799 Q948,606 829,492.5 Q710,379 510,379 Q458,379 418,387 Q307,347 307,283 Q307,245 338.5,231 Q370,217 430,209 L557,193 Q733,171 809,105.5 Q885,40 885,-82 Q885,-278 734,-385 Q583,-492 305,-492 Q102,-492 -9.5,-417 Q-121,-342 -121,-211 Q-121,-108 -51.5,-33 Q18,42 172,94 Q96,139 96,221 Q96,290 142.5,340.5 Q189,391 289,438 Q154,519 154,690 Q154,886 276.5,1006 Q399,1126 600,1126 Q680,1126 760,1106 M324,18 Q212,0 152,-53 Q92,-106 92,-184 Q92,-249 147.5,-287.5 Q203,-326 317,-326 Q480,-326 572,-272 Q664,-218 664,-117 Q664,-66 619,-37 Q574,-8 461,4 M594,969 Q529,969 480,930.5 Q431,892 404,825.5 Q377,759 377,680 Q377,609 412.5,570.5 Q448,532 514,532 Q579,532 626.5,571 Q674,610 700.5,678 Q727,746 727,827 Q727,969 594,969 M1320,1544 Q1289,1389 1200,1315 Q1111,1241 959,1241 Q826,1241 750.5,1307 Q675,1373 675,1489 Q675,1525 679,1544 L814,1544 Q814,1481 850.5,1450 Q887,1419 974,1419 Q1062,1419 1109.5,1450 Q1157,1481 1172,1544"/> 
            <glyph glyph-name="Ġ" unicode="&#x120;" horiz-adv-x="1372" d=" M786,793 L1298,793 L1141,57 Q1029,17 922.5,-1.5 Q816,-20 684,-20 Q423,-20 279,126 Q135,272 135,539 Q135,803 237.5,1022 Q340,1241 527.5,1362 Q715,1483 954,1483 Q1065,1483 1167,1462.5 Q1269,1442 1372,1393 L1282,1190 Q1108,1276 948,1276 Q790,1276 661,1185.5 Q532,1095 457.5,927.5 Q383,760 383,555 Q383,372 472,278 Q561,184 725,184 Q834,184 940,217 L1020,588 L743,588 M805,1716 Q805,1784 844,1826 Q883,1868 954,1868 Q1007,1868 1040,1841.5 Q1073,1815 1073,1761 Q1073,1690 1032.5,1649 Q992,1608 927,1608 Q875,1608 840,1634 Q805,1660 805,1716"/> 
            <glyph glyph-name="ġ" unicode="&#x121;" horiz-adv-x="1143" d=" M1143,1106 L1112,969 L920,936 Q948,878 948,799 Q948,606 829,492.5 Q710,379 510,379 Q458,379 418,387 Q307,347 307,283 Q307,245 338.5,231 Q370,217 430,209 L557,193 Q733,171 809,105.5 Q885,40 885,-82 Q885,-278 734,-385 Q583,-492 305,-492 Q102,-492 -9.5,-417 Q-121,-342 -121,-211 Q-121,-108 -51.5,-33 Q18,42 172,94 Q96,139 96,221 Q96,290 142.5,340.5 Q189,391 289,438 Q154,519 154,690 Q154,886 276.5,1006 Q399,1126 600,1126 Q680,1126 760,1106 M324,18 Q212,0 152,-53 Q92,-106 92,-184 Q92,-249 147.5,-287.5 Q203,-326 317,-326 Q480,-326 572,-272 Q664,-218 664,-117 Q664,-66 619,-37 Q574,-8 461,4 M594,969 Q529,969 480,930.5 Q431,892 404,825.5 Q377,759 377,680 Q377,609 412.5,570.5 Q448,532 514,532 Q579,532 626.5,571 Q674,610 700.5,678 Q727,746 727,827 Q727,969 594,969 M611,1378 Q611,1446 650,1488 Q689,1530 760,1530 Q813,1530 846,1503.5 Q879,1477 879,1423 Q879,1352 838.5,1311 Q798,1270 733,1270 Q681,1270 646,1296 Q611,1322 611,1378"/> 
            <glyph glyph-name="Ģ" unicode="&#x122;" horiz-adv-x="1372" d=" M786,793 L1298,793 L1141,57 Q1029,17 922.5,-1.5 Q816,-20 684,-20 Q423,-20 279,126 Q135,272 135,539 Q135,803 237.5,1022 Q340,1241 527.5,1362 Q715,1483 954,1483 Q1065,1483 1167,1462.5 Q1269,1442 1372,1393 L1282,1190 Q1108,1276 948,1276 Q790,1276 661,1185.5 Q532,1095 457.5,927.5 Q383,760 383,555 Q383,372 472,278 Q561,184 725,184 Q834,184 940,217 L1020,588 L743,588 M430,-426 Q517,-270 565,-125 L787,-125 L787,-145 Q758,-210 694,-297.5 Q630,-385 565,-453 L430,-453"/> 
            <glyph glyph-name="ģ" unicode="&#x123;" horiz-adv-x="1143" d=" M1143,1106 L1112,969 L920,936 Q948,878 948,799 Q948,606 829,492.5 Q710,379 510,379 Q458,379 418,387 Q307,347 307,283 Q307,245 338.5,231 Q370,217 430,209 L557,193 Q733,171 809,105.5 Q885,40 885,-82 Q885,-278 734,-385 Q583,-492 305,-492 Q102,-492 -9.5,-417 Q-121,-342 -121,-211 Q-121,-108 -51.5,-33 Q18,42 172,94 Q96,139 96,221 Q96,290 142.5,340.5 Q189,391 289,438 Q154,519 154,690 Q154,886 276.5,1006 Q399,1126 600,1126 Q680,1126 760,1106 M324,18 Q212,0 152,-53 Q92,-106 92,-184 Q92,-249 147.5,-287.5 Q203,-326 317,-326 Q480,-326 572,-272 Q664,-218 664,-117 Q664,-66 619,-37 Q574,-8 461,4 M594,969 Q529,969 480,930.5 Q431,892 404,825.5 Q377,759 377,680 Q377,609 412.5,570.5 Q448,532 514,532 Q579,532 626.5,571 Q674,610 700.5,678 Q727,746 727,827 Q727,969 594,969 M961,1542 Q864,1361 824,1241 L602,1241 L602,1262 Q633,1324 696.5,1412.5 Q760,1501 824,1569 L961,1569"/> 
            <glyph glyph-name="Ĥ" unicode="&#x124;" horiz-adv-x="1419" d=" M1110,0 L872,0 L1012,659 L446,659 L307,0 L70,0 L379,1462 L616,1462 L489,864 L1055,864 L1182,1462 L1419,1462 M1251,1579 L1099,1579 Q1023,1642 938,1757 Q807,1647 702,1579 L538,1579 L538,1604 Q676,1732 739,1799.5 Q802,1867 829,1907 L1077,1907 Q1115,1808 1251,1604"/> 
            <glyph glyph-name="ĥ" unicode="&#x125;" horiz-adv-x="1137" d=" M702,0 L844,672 Q862,762 862,799 Q862,934 733,934 Q621,934 523.5,809 Q426,684 381,467 L283,0 L47,0 L377,1556 L612,1556 L555,1294 Q528,1168 482,1001 L463,926 L471,926 Q555,1032 639.5,1079 Q724,1126 817,1126 Q953,1126 1025.5,1048.5 Q1098,971 1098,827 Q1098,751 1075,653 L936,0 M1137,1634 L985,1634 Q909,1697 824,1812 Q693,1702 588,1634 L424,1634 L424,1659 Q562,1787 625,1854.5 Q688,1922 715,1962 L963,1962 Q1001,1863 1137,1659"/> 
            <glyph glyph-name="Ħ" unicode="&#x126;" horiz-adv-x="1556" d=" M1374,1239 L1556,1239 L1522,1069 L1337,1069 L1112,0 L872,0 L1012,659 L446,659 L307,0 L70,0 L295,1069 L113,1069 L150,1239 L332,1239 L379,1462 L616,1462 L569,1239 L1135,1239 L1182,1462 L1421,1462 M1055,864 L1098,1069 L532,1069 L489,864"/> 
            <glyph glyph-name="ħ" unicode="&#x127;" horiz-adv-x="1087" d=" M702,0 L838,635 Q854,706 854,762 Q854,893 733,893 Q660,893 586.5,835.5 Q513,778 456.5,673.5 Q400,569 373,432 L283,0 L47,0 L307,1219 L150,1219 L186,1382 L340,1382 L377,1556 L612,1556 L575,1382 L899,1382 L864,1219 L541,1219 L457,891 L465,891 Q548,997 632,1043.5 Q716,1090 809,1090 Q1087,1090 1087,776 Q1087,720 1067,616 L936,0"/> 
            </font>
</defs>
</svg>
